<?xml version="1.0" encoding="UTF-8" standalone="no"?>
<!-- Created with Inkscape (http://www.inkscape.org/) -->

<svg
   xmlns:dc="http://purl.org/dc/elements/1.1/"
   xmlns:cc="http://creativecommons.org/ns#"
   xmlns:rdf="http://www.w3.org/1999/02/22-rdf-syntax-ns#"
   xmlns:svg="http://www.w3.org/2000/svg"
   xmlns="http://www.w3.org/2000/svg"
   xmlns:sodipodi="http://sodipodi.sourceforge.net/DTD/sodipodi-0.dtd"
   xmlns:inkscape="http://www.inkscape.org/namespaces/inkscape"
   width="77.821716mm"
   height="77.821716mm"
   viewBox="0 0 275.74624 275.74624"
   id="svg2"
   version="1.1"
   inkscape:version="0.91 r13725"
   sodipodi:docname="avatar-rtst.svg">
  <defs
     id="defs4" />
  <sodipodi:namedview
     id="base"
     pagecolor="#ffffff"
     bordercolor="#666666"
     borderopacity="1.0"
     inkscape:pageopacity="0.0"
     inkscape:pageshadow="2"
     inkscape:zoom="0.85585937"
     inkscape:cx="136.64309"
     inkscape:cy="127.41213"
     inkscape:document-units="px"
     inkscape:current-layer="layer1"
     showgrid="false"
     fit-margin-top="0"
     fit-margin-left="0"
     fit-margin-right="0"
     fit-margin-bottom="0"
     inkscape:window-width="1366"
     inkscape:window-height="747"
     inkscape:window-x="0"
     inkscape:window-y="21"
     inkscape:window-maximized="1" />
  <metadata
     id="metadata7">
    <rdf:RDF>
      <cc:Work
         rdf:about="">
        <dc:format>image/svg+xml</dc:format>
        <dc:type
           rdf:resource="http://purl.org/dc/dcmitype/StillImage" />
        <dc:title></dc:title>
      </cc:Work>
    </rdf:RDF>
  </metadata>
  <g
     inkscape:groupmode="layer"
     id="layer2"
     inkscape:label="Layer 2"
     style="display:inline"
     transform="translate(-50.241898,-477.50139)">
    <circle
       style="opacity:1;fill:#feab57;fill-opacity:1;stroke:none;stroke-width:28.77000046;stroke-linecap:butt;stroke-linejoin:miter;stroke-miterlimit:4;stroke-dasharray:none;stroke-opacity:1"
       id="path4159"
       cx="188.11502"
       cy="615.37451"
       r="137.87312" />
  </g>
  <g
     inkscape:label="Layer 1"
     inkscape:groupmode="layer"
     id="layer1"
     style="display:inline"
     transform="translate(-50.241898,-477.50139)">
    <g
       id="Forma_5"
       transform="matrix(0.97905349,0,0,0.97905349,35.427727,305.204)">
      <g
         id="g4138">
        <path
           id="path4140"
           d="m 124.76531,344.84418 c 0,0 -9.25701,0.006 -9.35356,0.0158 -1.14739,0.0778 -2.27314,0.55 -3.15021,1.42591 L 84.450146,374.0768 c 0,0 -0.0081,-24.62021 -0.02457,-24.74775 -0.222344,-2.51364 -2.332246,-4.48487 -4.905554,-4.48487 l -14.011014,0 c -1.05144,0 -1.906868,-0.85484 -1.906868,-1.90569 l 0,-84.00289 c 0,-1.05086 0.855428,-1.9057 1.906868,-1.9057 l 140.123012,0 c 1.05143,0 1.90687,0.85484 1.90687,1.9057 l 0,32.22837 c 0,2.71959 2.20644,4.92369 4.92778,4.92369 2.72135,0 4.92779,-2.20469 4.92779,-4.92369 l 0,-32.22837 c 0,-6.48125 -5.27651,-11.75366 -11.76185,-11.75366 l -140.123602,0 c -6.485345,5.8e-4 -11.761855,5.27299 -11.761855,11.75366 l 0,84.00289 c 0,6.48124 5.27651,11.75366 11.761855,11.75366 l 9.086155,0 0,31.27231 c 0,1.99112 1.200643,3.78682 3.041979,4.54922 0.609684,0.25276 1.249793,0.37505 1.884636,0.37505 1.282557,0 2.542297,-0.50085 3.485493,-1.4423 l 34.780619,-34.75428 6.978,0 c 2.72134,0 4.92779,-2.2041 4.92779,-4.92368 -5.8e-4,-2.72018 -2.20704,-4.92429 -4.92836,-4.92429 z m 126.10321,-37.43525 -98.08353,0 c -6.48593,0 -11.76244,5.27241 -11.76244,11.75366 l 0,57.30672 c 0,6.48066 5.27651,11.75309 11.76244,11.75309 l 61.40599,0 24.87824,24.86009 c 0.94261,0.94202 2.20294,1.4423 3.4855,1.4423 0.63483,0 1.27495,-0.12229 1.88464,-0.37505 1.84075,-0.76241 3.04196,-2.55751 3.04196,-4.54922 l 0,-21.37812 3.38663,0 c 6.48593,0 11.76184,-5.27243 11.76184,-11.75368 l 0,-57.30554 c 10e-4,-6.48184 -5.27535,-11.75425 -11.76127,-11.75425 z m 1.90687,69.05979 c 0,1.05087 -0.85543,1.90571 -1.90687,1.90571 l -8.31264,0 c -2.59321,0 -4.71363,2.00282 -4.90848,4.54394 -0.0128,0.10768 -0.0204,14.79448 -0.0204,14.79448 l -17.8915,-17.87799 c -0.0187,-0.0187 -0.0385,-0.0363 -0.0574,-0.055 -0.0702,-0.0684 -0.13633,-0.12814 -0.19952,-0.18138 -0.86713,-0.75947 -2.00048,-1.22405 -3.24383,-1.22405 l -63.44979,0 c -1.05143,0 -1.90686,-0.85484 -1.90686,-1.90571 l 0,-57.30671 c 0,-1.05085 0.85543,-1.9057 1.90686,-1.9057 l 98.08353,0 c 1.05145,0 1.90687,0.85485 1.90687,1.9057 l 0,57.30671 z m -127.81641,-96.11756 -23.14573,23.12876 -9.908235,-9.90062 c -1.923837,-1.92266 -5.044221,-1.92325 -6.968645,0 -1.924425,1.92267 -1.923839,5.04072 0,6.96338 l 12.925051,12.91569 c 0.132818,0.17378 0.273245,0.34287 0.432396,0.50143 0.971279,0.97011 2.246813,1.44933 3.519433,1.44054 1.2726,0.009 2.54814,-0.47043 3.51884,-1.44054 0.15857,-0.15798 0.29899,-0.32706 0.43122,-0.49967 l 26.16489,-26.14558 c 1.92384,-1.92267 1.92443,-5.04013 0,-6.96339 -1.925,-1.92266 -5.04479,-1.92266 -6.96922,0 z m 82.44298,69.22305 8.54903,-8.5426 c 1.92442,-1.92266 1.92442,-5.04069 0,-6.96337 -1.92443,-1.92266 -5.0448,-1.92266 -6.96863,0 l -8.54904,8.54259 -8.54903,-8.54259 c -1.92383,-1.92266 -5.04421,-1.92266 -6.96864,0 -1.92441,1.92268 -1.92384,5.04071 0,6.96337 l 8.54902,8.5426 -8.54902,8.54259 c -1.92384,1.92265 -1.92441,5.04071 0,6.96337 1.92443,1.92326 5.04481,1.92267 6.96864,0 l 8.54903,-8.54258 8.54904,8.54258 c 1.9244,1.92326 5.0442,1.92326 6.96863,0 1.92442,-1.92266 1.92383,-5.04072 0,-6.96337 l -8.54903,-8.54259 z"
           inkscape:connector-curvature="0"
           style="clip-rule:evenodd;fill:#ffffff;fill-rule:evenodd" />
      </g>
    </g>
  </g>
</svg>
