<?xml version="1.0" encoding="utf-8"?>
<!-- Generator: Adobe Illustrator 17.0.0, SVG Export Plug-In . SVG Version: 6.00 Build 0)  -->
<!DOCTYPE svg PUBLIC "-//W3C//DTD SVG 1.1//EN" "http://www.w3.org/Graphics/SVG/1.1/DTD/svg11.dtd">
<svg version="1.1" id="Layer_2" xmlns="http://www.w3.org/2000/svg" xmlns:xlink="http://www.w3.org/1999/xlink" x="0px" y="0px"
	 width="1396.004px" height="1246.364px" viewBox="0 0 1396.004 1246.364" enable-background="new 0 0 1396.004 1246.364"
	 xml:space="preserve">
<g>
	<g>
		<path fill="#76D2DC" d="M1396.004,72.515c-83.126,83.489-599.71,601.911-599.71,601.911L634.442,511.8
			c-33.673-33.813-88.259-33.813-121.93,0c-33.689,33.833-33.689,88.631,0,122.462l222.81,223.856
			c16.17,16.24,38.078,25.373,60.973,25.373c22.914,0,44.801-9.115,60.973-25.373c0,0,343.359-344.88,538.737-541.103
			C1396.239,316.854,1395.542,72.759,1396.004,72.515z M1287.585,673.964l-0.237-0.24l-491.124,493.182L247.886,616.273
			c-100.733-101.246-100.733-265.945,0-367.118c48.747-48.971,113.595-75.944,182.655-75.944
			c69.061,0,133.998,27.007,182.834,76.068L735.32,371.562c33.69,33.742,88.259,33.794,121.948-0.036l121.807-122.373
			c49.227-49.463,117.021-73.952,184.659-73.455l-0.005-0.209c47.36-1.101,85.463-39.821,85.463-87.643
			c0-48.517-39.167-87.848-87.479-87.848c-0.079,0-0.148,0.025-0.227,0.025c-115.033,0.058-223.054,45.037-304.373,126.667
			l-60.886,61.141l-60.905-61.071C653.893,45.025,545.657,0,430.54,0C315.422,0,207.294,44.99,125.938,126.674
			c-167.917,168.767-167.917,443.329,0,612.043c0,0,331.538,332.946,505.5,507.647c2.465-0.366,327.383-0.366,327.915-0.13
			c152.088-152.64,405.221-406.691,433.969-435.544c1.763-1.77,2.682-2.692,2.682-2.692V661.307
			c-12.713-7.415-31.175-13.323-46.935-13.323C1324.969,647.984,1303.235,657.959,1287.585,673.964z"/>
	</g>
</g>
</svg>
