<?xml version="1.0" encoding="utf-8"?>
<!-- Generator: Adobe Illustrator 17.0.0, SVG Export Plug-In . SVG Version: 6.00 Build 0)  -->
<!DOCTYPE svg PUBLIC "-//W3C//DTD SVG 1.1//EN" "http://www.w3.org/Graphics/SVG/1.1/DTD/svg11.dtd">
<svg version="1.1" id="Layer_2" xmlns="http://www.w3.org/2000/svg" xmlns:xlink="http://www.w3.org/1999/xlink" x="0px" y="0px"
	 width="528px" height="457.999px" viewBox="0 0 528 457.999" enable-background="new 0 0 528 457.999" xml:space="preserve">
<g>
	<g>
		<path fill="#FFFFFF" d="M272.8,264.229c-31.09,0-52.8,21.729-52.8,52.846v8.807c0,42.805,24.183,70.462,61.599,70.462
			c37.418,0,61.6-27.657,61.6-70.462v-8.807c0-31.117-21.718-52.846-52.8-52.846H272.8z M325.6,317.075v8.807
			c0,15.889-4.294,52.846-44,52.846c-39.714,0-44-36.957-44-52.846v-8.807c0-21.403,13.815-35.23,35.199-35.23H290.4
			C311.775,281.845,325.6,295.672,325.6,317.075z M264.264,317.075h-0.097c-4.849,0-8.747,3.946-8.747,8.807
			c0,4.862,3.978,8.808,8.844,8.808c4.857,0,8.799-3.946,8.799-8.808C273.063,321.021,269.121,317.075,264.264,317.075z
			 M307.323,202.549c4.902,0.317,9.081-3.259,9.452-8.103l8.791-114.359c1.953-20.962,30.105-44.858,52.835-44.858H396
			c23.162,0,51.304,23.798,52.827,44.717l8.8,114.499c0.352,4.615,4.206,8.13,8.764,8.13c0.22,0,0.458-0.008,0.687-0.028
			c4.84-0.369,8.466-4.606,8.096-9.459l-8.8-114.464c-2.35-32.279-41.317-61.01-70.374-61.01h-17.6
			c-32.032,0-67.539,30.704-70.373,60.975l-8.8,114.499C298.857,197.942,302.482,202.18,307.323,202.549z M386.742,76.485
			c-1.197-3.602-4.558-6.024-8.343-6.024c-3.793,0-7.155,2.422-8.351,6.024c-6.609,19.862-26.083,20.39-26.848,20.399
			c-4.867,0-8.8,3.946-8.8,8.807v35.23c0,29.417,20.081,70.462,52.8,70.462c32.709,0,52.8-41.044,52.8-70.462v-35.23
			c0-4.861-3.942-8.807-8.8-8.807C430.821,96.884,393.36,96.328,386.742,76.485z M422.401,140.922H422.4
			c0,23.94-15.699,52.846-35.2,52.846c-19.501,0-35.199-28.906-35.199-52.846v-27.497c8.615-1.955,19.254-6.87,27.069-16.876
			c12.32,12.339,31.988,16.197,43.331,17.404V140.922z M176.001,88.076h8.799c4.857,0,8.8-3.946,8.8-8.808s-3.943-8.807-8.8-8.807
			h-8.799c-4.867,0-8.8,3.946-8.8,8.807C167.2,84.13,171.134,88.076,176.001,88.076z M299.464,334.691c4.857,0,8.8-3.946,8.8-8.808
			c0-4.861-3.943-8.807-8.8-8.807h-0.097c-4.849,0-8.747,3.946-8.747,8.807C290.62,330.745,294.597,334.691,299.464,334.691z
			 M88.335,103.516c1.681,16.928,9.038,31.831,9.39,32.535c7.973,15.969,20.037,40.101,60.676,40.101
			c40.638,0,52.695-24.133,60.667-40.101c0.352-0.705,7.708-15.607,9.399-32.535c5.439-2.994,9.135-8.799,9.135-15.44V70.461
			c0-6.509-3.547-12.199-8.8-15.246v-2.369c0-29.145-23.69-52.846-52.8-52.846h-35.2c-29.119,0-52.8,23.701-52.8,52.846v2.369
			c-5.264,3.047-8.802,8.737-8.802,15.246v17.616C79.2,94.717,82.896,100.521,88.335,103.516z M96.799,70.461H96.8
			c4.857,0,8.8-3.946,8.8-8.807v-8.808c0-19.43,15.787-35.23,35.2-35.23h35.2c19.413,0,35.2,15.801,35.2,35.23v8.808
			c0,4.861,3.933,8.807,8.8,8.807v17.616c-4.867,0-8.8,3.945-8.8,8.807c0,15.238-7.796,31.144-7.875,31.294
			c-9.161,18.337-17.239,30.36-44.924,30.36c-27.693,0-35.772-12.022-44.924-30.351c-0.088-0.159-7.876-16.066-7.876-31.302
			c0-4.862-3.943-8.807-8.8-8.807V70.461z M308,405.152c-1.743,0-3.441,0.52-4.884,1.48L281.6,420.989l-21.525-14.357
			c-1.443-0.959-3.141-1.48-4.875-1.48c-50.907,0-61.6,23.948-61.6,44.039c0,0.63,0.069,1.243,0.194,1.836v6.973h17.551v-11.706
			h-0.08c0.496-8.27,4.752-22.839,41.302-23.508l24.147,16.118c2.956,1.973,6.802,1.973,9.759,0l24.156-16.118
			c36.55,0.669,40.806,15.239,41.302,23.508h-0.176v11.706h17.551v-6.601c0.183-0.707,0.291-1.445,0.291-2.209
			C369.6,429.101,358.908,405.152,308,405.152z M466.981,299.461h-0.035c-4.849,0-8.782,3.919-8.8,8.772l-0.545,140.923
			c-0.002,0.64,0.067,1.262,0.194,1.864v6.98h17.551v-29.265h-0.067l0.466-120.43C475.763,303.442,471.847,299.478,466.981,299.461z
			 M132,88.076h8.8c4.857,0,8.8-3.946,8.8-8.808s-3.943-8.807-8.8-8.807H132c-4.867,0-8.8,3.946-8.8,8.807
			S127.133,88.076,132,88.076z M202.224,248.349l7.365-36.781c44.431,1.004,76.41,12.084,86.214,30.105
			c2.314,4.272,7.638,5.848,11.932,3.523c4.269-2.326,5.843-7.672,3.52-11.943c-13.808-25.401-52.264-39.37-108.293-39.37
			c-4.373-0.08-8.325,2.775-9.195,7.073l-8.8,43.924c-0.951,4.773,2.129,9.415,6.899,10.367c0.59,0.123,1.161,0.177,1.743,0.177
			C197.719,255.422,201.379,252.533,202.224,248.349z M506.422,237.816c-17.247-17.228-43.164-26.326-74.958-26.326
			c-5.086,0.097-9.038,3.849-9.064,8.782c-0.009,1.797-0.625,43.96-35.2,43.96c-34.584,0-35.191-42.154-35.199-43.95
			c-0.009-4.853-3.951-8.781-8.8-8.781c-4.867,0-8.8,3.937-8.8,8.807c0,19.695,9.504,55.568,44,60.826v44.752
			c0,4.861,3.933,8.808,8.8,8.808c4.857,0,8.799-3.946,8.799-8.808v-44.761c29.7-4.536,40.885-31.735,43.401-51.798
			c23.346,1.312,42.098,8.482,54.578,20.962c10.595,10.579,16.421,24.908,16.421,40.365v140.922c0,0.31,0.017,0.616,0.048,0.918
			v25.508H528V290.652C528,270.483,520.336,251.723,506.422,237.816z M158.4,193.768c-9.706,0-17.6,7.9-17.6,17.616
			c0,6.491,3.564,12.11,8.8,15.166v64.103c0,4.861,3.933,8.808,8.799,8.808c4.857,0,8.8-3.946,8.8-8.808V226.55
			c5.227-3.056,8.8-8.675,8.8-15.166C176.001,201.668,168.098,193.768,158.4,193.768z M61.6,299.461c-4.866,0-8.8,3.946-8.8,8.807
			v138.025h-0.146v11.706h17.551v-6.975c0.126-0.592,0.194-1.205,0.194-1.834V308.268C70.4,303.406,66.458,299.461,61.6,299.461z
			 M123.006,200.893c-0.88-4.28-5.025-7.002-9.205-7.011c-46.227,0-81.586,9.909-99.616,27.911C4.779,231.2,0,242.519,0,255.422
			v202.578h17.551v-25.507c0.031-0.302,0.048-0.607,0.048-0.917V255.422c0-8.174,2.957-15.096,9.02-21.165
			c13.71-13.696,42.873-21.843,80.634-22.689l42.531,204.188c0.986,4.756,5.667,7.812,10.41,6.826
			c4.761-0.995,7.815-5.664,6.811-10.42L123.006,200.893z"/>
	</g>
</g>
</svg>
