<?xml version="1.0" encoding="utf-8"?>
<!-- Generator: Adobe Illustrator 17.0.0, SVG Export Plug-In . SVG Version: 6.00 Build 0)  -->
<!DOCTYPE svg PUBLIC "-//W3C//DTD SVG 1.1//EN" "http://www.w3.org/Graphics/SVG/1.1/DTD/svg11.dtd">
<svg version="1.1" id="Layer_2" xmlns="http://www.w3.org/2000/svg" xmlns:xlink="http://www.w3.org/1999/xlink" x="0px" y="0px"
	 width="844.007px" height="1021.001px" viewBox="0 0 844.007 1021.001" enable-background="new 0 0 844.007 1021.001"
	 xml:space="preserve">
<g id="Forma_3">
	<g>
		<path fill-rule="evenodd" clip-rule="evenodd" fill="#53B5BA" d="M693.29,360.565c0-8.327-6.734-15.085-15.075-15.085H527.504
			c-8.332,0-15.077,6.758-15.077,15.085c0,8.329,6.745,15.085,15.077,15.085h150.711C686.556,375.65,693.29,368.894,693.29,360.565z
			 M708.364,435.975h-90.429c-8.341,0-15.077,6.758-15.077,15.085c0,8.321,6.736,15.076,15.077,15.076h90.429
			c8.332,0,15.068-6.756,15.068-15.076C723.432,442.734,716.696,435.975,708.364,435.975z M406.931,435.975
			c-8.339,0-15.075,6.758-15.075,15.085c0,8.321,6.736,15.076,15.075,15.076h150.714c8.339,0,15.074-6.756,15.074-15.076
			c0-8.326-6.736-15.085-15.074-15.085H406.931z M482.287,990.838H195.928c-24.923,0-45.215-20.306-45.215-45.247V75.065
			c0-8.329-6.736-15.087-15.068-15.087c-41.55,0-75.354,33.831-75.354,75.41c0,8.329,6.734,15.085,15.066,15.085
			c8.339,0,15.074-6.756,15.074-15.085c0-19.667,12.6-36.436,30.14-42.666v852.869c0,41.579,33.807,75.41,75.357,75.41h286.359
			c8.339,0,15.075-6.758,15.075-15.085C497.362,997.596,490.626,990.838,482.287,990.838z M256.219,375.65h211.002
			c8.33,0,15.066-6.756,15.066-15.085c0-8.327-6.736-15.085-15.066-15.085H256.219c-8.341,0-15.075,6.758-15.075,15.085
			C241.145,368.894,247.878,375.65,256.219,375.65z M678.215,613.542H527.504c-8.332,0-15.077,6.758-15.077,15.085
			c0,8.329,6.745,15.085,15.077,15.085h150.711c8.341,0,15.075-6.756,15.075-15.085C693.29,620.3,686.556,613.542,678.215,613.542z
			 M256.219,643.712h211.002c8.33,0,15.066-6.756,15.066-15.085c0-8.327-6.736-15.085-15.066-15.085H256.219
			c-8.341,0-15.075,6.758-15.075,15.085C241.145,636.956,247.878,643.712,256.219,643.712z M256.219,285.155h60.28
			c8.341,0,15.076-6.756,15.076-15.086c0-8.318-6.736-15.076-15.076-15.076h-60.28c-8.341,0-15.075,6.758-15.075,15.076
			C241.145,278.399,247.878,285.155,256.219,285.155z M497.362,254.985H376.79c-8.339,0-15.074,6.758-15.074,15.085
			c0,8.329,6.736,15.086,15.074,15.086h120.571c8.332,0,15.065-6.756,15.065-15.086
			C512.427,261.743,505.694,254.985,497.362,254.985z M708.364,0H135.646C61.024,0,0.285,60.616,0,135.207v0.716
			c0.199,48.097,26.131,92.903,67.802,117.034c7.21,4.16,16.419,1.71,20.594-5.488c4.184-7.207,1.7-16.442-5.484-20.602
			c-32.496-18.839-52.71-53.799-52.772-91.306c0.112-58.131,47.389-105.4,105.505-105.4h572.719
			c58.161,0,105.499,47.363,105.499,105.581v810.194c0,7.646-2.139,15.328-6.166,22.171c-4.21,7.18-1.821,16.424,5.347,20.644
			c2.413,1.425,5.036,2.088,7.632,2.088c5.164,0,10.202-2.658,13.004-7.439c6.753-11.478,10.324-24.431,10.324-37.463V135.742
			C844.004,60.886,783.16,0,708.364,0z M256.219,466.136h90.422c8.338,0,15.075-6.756,15.075-15.076
			c0-8.326-6.736-15.085-15.075-15.085h-90.422c-8.341,0-15.075,6.758-15.075,15.085
			C241.145,459.381,247.878,466.136,256.219,466.136z M256.219,556.632h180.853c8.339,0,15.075-6.756,15.075-15.076
			c0-8.329-6.736-15.085-15.075-15.085H256.219c-8.341,0-15.075,6.755-15.075,15.085
			C241.145,549.876,247.878,556.632,256.219,556.632z M257.813,844.518c3.709,7.448,12.765,10.468,20.208,6.756
			c7.451-3.727,10.478-12.79,6.734-20.246c-14.918-29.859-18.265-56.646-8.977-71.681c4.941-8.009,13.567-12.065,25.647-12.065
			c7.193,0,9.875,2.467,11.566,4.884c11.226,16.199,0.558,65.528-10.608,95.398c-2.492,6.645,0,14.126,5.968,17.975
			c5.932,3.815,13.789,2.987,18.81-2.019c6.433-6.429,13.41-12.841,19.481-18.037v7.37c0,6.093,3.665,11.599,9.306,13.92
			c5.63,2.355,12.098,1.054,16.428-3.254c6.881-6.878,14.867-13.618,21.594-18.477c-0.181,0.38-0.362,0.742-0.543,1.087
			c-2.303,4.671-2.053,10.227,0.7,14.655c2.751,4.436,7.588,7.153,12.805,7.153h60.282c8.339,0,15.074-6.756,15.074-15.085
			c0-8.318-6.736-15.076-15.074-15.076h-39.232c1.225-7.18,0.923-14.482-2.707-20.367c-3.846-6.221-10.54-9.803-18.344-9.803
			c-9.313,0-20.274,5.669-30.279,12.704c-0.766-6.577-4.656-11.997-10.564-14.438c-4.027-1.657-9.211-3.824-21.793,3.728
			c4.959-25.986,6.409-55.94-6.528-74.606c-5.647-8.166-16.532-17.873-36.333-17.873c-22.576,0-40.799,9.363-51.304,26.373
			C235.098,767.84,237.893,804.656,257.813,844.518z M663.15,541.556c0-8.329-6.736-15.085-15.074-15.085H497.362
			c-8.339,0-15.075,6.755-15.075,15.085c0,8.32,6.736,15.076,15.075,15.076h150.714C656.414,556.632,663.15,549.876,663.15,541.556z
			 M712.055,139.666h-24.456v-24.469c0-13.545-10.955-24.482-24.461-24.482c-13.489,0-24.447,10.938-24.447,24.482v24.469h-24.453
			c-13.535,0-24.465,10.963-24.465,24.479c0,13.497,10.93,24.465,24.465,24.465h24.453v24.473c0,13.544,10.958,24.479,24.447,24.479
			c13.506,0,24.461-10.934,24.461-24.479V188.61h24.456c13.535,0,24.462-10.967,24.462-24.465
			C736.517,150.63,725.59,139.666,712.055,139.666z"/>
	</g>
</g>
</svg>
