<?xml version="1.0" encoding="utf-8"?>
<!-- Generator: Adobe Illustrator 20.0.0, SVG Export Plug-In . SVG Version: 6.00 Build 0)  -->
<svg version="1.1" id="Layer_1" xmlns="http://www.w3.org/2000/svg" xmlns:xlink="http://www.w3.org/1999/xlink" x="0px" y="0px"
	 viewBox="0 0 496 496" style="enable-background:new 0 0 496 496;" xml:space="preserve">
<style type="text/css">
	.st0{fill:#C5ECF0;}
</style>
<g>
	<g>
		<g>
			<path class="st0" d="M471.6,344c-1.9-22.9-11.9-43.6-27.1-59.1c2.3-12.1,3.5-24.5,3.5-36.9c0-110.3-89.7-200-200-200
				c-9.3,0-18.7,0.8-28.1,2.2l-37.7-37.7l-14.9,14.9c-4.9-2.5-10-4.6-15.3-6.3V0H88v21.1c-5.3,1.7-10.4,3.8-15.3,6.3L57.8,12.5
				L12.5,57.8l14.9,14.9c-2.5,4.9-4.6,10-6.3,15.3H0v64h21.1c1.7,5.3,3.8,10.4,6.3,15.3l-14.9,14.9l37.7,37.7
				c-1.3,9.4-2.2,18.9-2.2,28.1c0,110.3,89.7,200,200,200c24.8,0,49-4.5,72-13.4V448h-16v16h16v32h112v-32h16v-16h-16v-18.1
				c22.9-16.5,37.2-42,39.5-69.9H496v-16H471.6z M35.2,182.2L47.4,170l-3.2-5.3c-4.2-7-7.3-14.6-9.4-22.6l-1.6-6H16v-32h17.3l1.6-6
				c2.1-8,5.2-15.6,9.4-22.6l3.2-5.3L35.2,57.8l22.6-22.6L70,47.4l5.3-3.2c7-4.2,14.6-7.3,22.6-9.4l6-1.5V16h32v17.3l6,1.5
				c8,2.1,15.6,5.2,22.6,9.4l5.3,3.2l12.3-12.3l22.6,22.6L192.6,70l3.2,5.3c4.2,7,7.3,14.6,9.4,22.6l1.6,6H224v32h-17.3l-1.6,6
				c-2.1,8-5.2,15.6-9.4,22.6l-3.2,5.3l12.3,12.3l-22.6,22.6L170,192.6l-5.3,3.2c-7,4.2-14.6,7.3-22.6,9.4l-6,1.5V224h-32v-17.3
				l-6-1.5c-8-2.1-15.6-5.2-22.6-9.4l-5.3-3.2l-12.3,12.3L35.2,182.2z M248,432c-101.5,0-184-82.5-184-184c0-9.6,0.9-19.4,2.4-29.2
				l6.3-6.3c4.9,2.5,10,4.6,15.3,6.3V240h64v-21.1c5.3-1.7,10.4-3.8,15.3-6.3l14.9,14.9l45.2-45.3l-14.9-14.9
				c2.5-4.9,4.6-10,6.3-15.3H240V88h-21.1c-1.7-5.3-3.8-10.4-6.3-15.3l6.3-6.3c9.8-1.6,19.6-2.4,29.2-2.4c101.5,0,184,82.5,184,184
				c0,8.3-0.6,16.6-1.7,24.9C414.8,262.3,396.1,256,376,256c-50.2,0-91.5,38.8-95.6,88H256v16h24.5c2,23.5,12.4,45.2,29.3,61.3
				C290,428.4,269.2,432,248,432z M416,480h-80v-16h80V480z M419.6,419l-3.6,2.4V448h-32v-65.1c13.8-3.6,24-16,24-30.9
				c0-17.6-14.4-32-32-32s-32,14.4-32,32c0,14.9,10.2,27.3,24,30.9V448h-32v-26.6l-3.6-2.4c-22.8-14.9-36.4-39.9-36.4-67
				c0-44.1,35.9-80,80-80s80,35.9,80,80C456,379.1,442.4,404.1,419.6,419z M376,368c-8.8,0-16-7.2-16-16s7.2-16,16-16s16,7.2,16,16
				S384.8,368,376,368z"/>
			<rect x="368" y="288" class="st0" width="16" height="16"/>

				<rect x="328.4" y="304.4" transform="matrix(0.7069 -0.7074 0.7074 0.7069 -122.3244 329.5378)" class="st0" width="16" height="16"/>
			<rect x="312" y="344" class="st0" width="16" height="16"/>

				<rect x="328.4" y="383.6" transform="matrix(0.7074 -0.7069 0.7069 0.7074 -178.3392 352.4015)" class="st0" width="16" height="16"/>

				<rect x="407.6" y="383.6" transform="matrix(0.7069 -0.7074 0.7074 0.7069 -155.1543 408.7871)" class="st0" width="16" height="16"/>
			<rect x="424" y="344" class="st0" width="16" height="16"/>

				<rect x="407.6" y="304.4" transform="matrix(0.7074 -0.7069 0.7069 0.7074 -99.2213 385.2282)" class="st0" width="16" height="16"/>
			<path class="st0" d="M120,184c35.3,0,64-28.7,64-64s-28.7-64-64-64s-64,28.7-64,64S84.7,184,120,184z M72.7,112
				c1.2-7.3,4.1-14,8.2-19.8L91.7,103L103,91.7L92.2,80.9c5.8-4.1,12.5-7,19.8-8.2V88h16V72.7c7.3,1.2,14,4.1,19.8,8.2L137,91.7
				l11.3,11.3l10.8-10.8c4.1,5.8,7,12.5,8.2,19.8H152v16h15.3c-1.2,7.3-4.1,14-8.2,19.8L148.3,137L137,148.3l10.8,10.8
				c-5.8,4.1-12.5,7-19.8,8.2V152h-16v15.3c-7.3-1.2-14-4.1-19.8-8.2l10.8-10.8L91.7,137l-10.8,10.8c-4.1-5.8-7-12.5-8.2-19.8H88
				v-16H72.7z"/>
			<path class="st0" d="M364.4,219.7l-33.9-11.3l-5.1,15.2l54.1,18l27.3-45.5l-13.7-8.2l-14.3,23.8c-15.2-55-63.9-95.7-122.4-99.3
				l-1,16C308.4,131.7,352.2,169.3,364.4,219.7z"/>
			<path class="st0" d="M132.5,279.2l31.9,16l7.2-14.3L117,253.5l-27.8,46.4l13.7,8.2l14.4-24c15.2,55.2,63.8,95.9,122.2,99.5l1-16
				C188.7,364.4,145.6,328.2,132.5,279.2z"/>
		</g>
	</g>
</g>
</svg>
