<?xml version="1.0" encoding="utf-8"?>
<!-- Generator: Adobe Illustrator 17.0.0, SVG Export Plug-In . SVG Version: 6.00 Build 0)  -->
<!DOCTYPE svg PUBLIC "-//W3C//DTD SVG 1.1//EN" "http://www.w3.org/Graphics/SVG/1.1/DTD/svg11.dtd">
<svg version="1.1" id="Forma_1_1_" xmlns="http://www.w3.org/2000/svg" xmlns:xlink="http://www.w3.org/1999/xlink" x="0px" y="0px"
	 width="535px" height="596px" viewBox="0 0 535 596" enable-background="new 0 0 535 596" xml:space="preserve">
<g id="Forma_1">
	<g>
		<path fill-rule="evenodd" clip-rule="evenodd" fill="#FEAB57" d="M498.864,0h-348.19c-19.926,0-36.138,16.211-36.138,36.136
			v80.866C48.485,135.904-0.001,196.829-0.001,268.867S48.484,401.83,114.537,420.732v139.132c0,19.925,16.212,36.136,36.138,36.136
			h284.538c3.376,0,6.613-1.34,9-3.727l87.06-87.058c2.387-2.387,3.727-5.624,3.727-9V36.136C535,16.211,518.79,0,498.864,0z
			 M25.455,268.866c0-73.047,59.429-132.474,132.479-132.474c73.05,0,132.479,59.427,132.479,132.474
			c0,73.046-59.43,132.475-132.479,132.475C84.884,401.34,25.455,341.912,25.455,268.866z M447.942,552.543v-32.922
			c0-5.89,4.792-10.68,10.68-10.68h32.923L447.942,552.543z M509.541,483.485h-50.923c-19.927,0-36.136,16.211-36.136,36.135v50.923
			H150.674c-5.89,0-10.682-4.79-10.682-10.68V425.77c5.891,0.669,11.876,1.026,17.943,1.026c47.439,0,90.055-21.027,119.03-54.245
			h77.987c7.029,0,12.728-5.698,12.728-12.727s-5.699-12.727-12.728-12.727h-59.859c11.071-19.333,18.163-41.218,20.175-64.536
			h39.682c7.029,0,12.728-5.698,12.728-12.727s-5.699-12.727-12.728-12.727H315.43c-1.721-23.266-8.51-45.142-19.257-64.535h58.776
			c7.03,0,12.728-5.698,12.728-12.727s-5.698-12.728-12.728-12.728h-76.335c-28.993-34.331-72.331-56.179-120.682-56.179
			c-6.067,0-12.051,0.357-17.943,1.026v-11.96h369.552V483.485z M509.544,74.547H139.992V36.136c0-5.89,4.792-10.681,10.682-10.681
			h348.19c5.889,0,10.68,4.791,10.68,10.681V74.547z M404.959,192.57h42.269c7.03,0,12.728-5.698,12.728-12.727
			s-5.698-12.727-12.728-12.727h-42.269c-7.029,0-12.728,5.698-12.728,12.727S397.93,192.57,404.959,192.57z M404.959,282.559
			h42.269c7.03,0,12.728-5.698,12.728-12.727s-5.698-12.727-12.728-12.727h-42.269c-7.029,0-12.728,5.698-12.728,12.727
			S397.93,282.559,404.959,282.559z M404.959,372.55h42.269c7.03,0,12.728-5.698,12.728-12.727s-5.698-12.727-12.728-12.727h-42.269
			c-7.029,0-12.728,5.698-12.728,12.727S397.93,372.55,404.959,372.55z M447.228,437.085H328.161
			c-7.03,0-12.728,5.698-12.728,12.728s5.698,12.727,12.728,12.727h119.066c7.03,0,12.728-5.698,12.728-12.727
			S454.257,437.085,447.228,437.085z M256.753,204.662l-15.528-15.527c-4.182-4.181-9.741-6.483-15.655-6.483
			c-5.914,0-11.473,2.303-15.655,6.483l-81.446,81.443l-22.514-22.513c-4.181-4.179-9.741-6.482-15.654-6.482
			c-5.913,0-11.473,2.303-15.654,6.483l-15.532,15.53c-8.631,8.632-8.631,22.677,0.001,31.308l53.696,53.692
			c4.182,4.183,9.742,6.486,15.657,6.486h0.001c5.913,0,11.473-2.303,15.653-6.483l112.632-112.628
			C265.385,227.34,265.385,213.293,256.753,204.662z M128.467,328.253L79.46,279.249l10.839-10.839l29.167,29.166
			c4.971,4.971,13.03,4.971,18.001,0l88.102-88.099l10.839,10.839L128.467,328.253z"/>
	</g>
</g>
</svg>
