<?xml version="1.0" encoding="utf-8"?>
<!-- Generator: Adobe Illustrator 17.0.0, SVG Export Plug-In . SVG Version: 6.00 Build 0)  -->
<!DOCTYPE svg PUBLIC "-//W3C//DTD SVG 1.1//EN" "http://www.w3.org/Graphics/SVG/1.1/DTD/svg11.dtd">
<svg version="1.1" id="Shape_1_1_" xmlns="http://www.w3.org/2000/svg" xmlns:xlink="http://www.w3.org/1999/xlink" x="0px" y="0px"
	 width="601px" height="618px" viewBox="0 0 601 618" enable-background="new 0 0 601 618" xml:space="preserve">
<g id="Shape_1">
	<g>
		<path fill-rule="evenodd" clip-rule="evenodd" fill="#C5ECF0" d="M132.381,345.177c1.567,7.492,3.638,14.919,6.16,22.035
			l20.23-7.148c-2.2-6.225-4.014-12.719-5.387-19.288L132.381,345.177z M131.973,276.945l21.067,4.111
			c1.277-6.548,3.005-13.053,5.14-19.342l-20.337-6.902C135.407,262.004,133.443,269.453,131.973,276.945z M175.964,225.929
			l-17.794-12.011c-4.272,6.333-8.157,12.988-11.515,19.76l19.221,9.564C168.806,237.306,172.208,231.489,175.964,225.929z
			 M545.568,419.463c-7.92-6.686-18.384-9.488-28.58-7.717l-212.84,37.02l-60.453-60.462c-2.007-2.018-4.733-3.145-7.588-3.145
			H128.785c0-5.935-4.797-10.733-10.732-10.733H0v21.466h64.393V546.16H0v21.467h118.053c5.935,0,10.732-4.798,10.732-10.734h29.664
			l114.737,57.381c4.958,2.479,10.335,3.724,15.69,3.724c6.107,0,12.202-1.599,17.665-4.787l234.132-136.604
			c10.732-6.257,17.397-17.86,17.397-30.289C558.072,435.939,553.51,426.15,545.568,419.463z M107.321,546.16H85.857V395.892h21.464
			V546.16z M529.856,458.06L295.735,594.664c-3.971,2.319-8.811,2.469-12.943,0.408L165.79,536.564
			c-1.491-0.751-3.144-1.138-4.808-1.138h-32.197V406.626h102.878l84.559,84.569c3.649,3.649,5.742,8.704,5.742,13.878
			c0,10.82-8.8,19.621-19.619,19.621c-5.162,0-10.227-2.093-13.877-5.742l-55.506-55.513l-15.176,15.177l55.506,55.512
			c7.76,7.761,18.073,12.033,29.052,12.033c22.645,0,41.082-18.44,41.082-41.088c0-10.969-4.271-21.295-12.03-29.055l-8.693-8.694
			l197.944-34.433c3.981-0.72,8.017,0.397,11.097,2.995c3.09,2.597,4.862,6.397,4.862,10.421
			C536.607,451.127,534.021,455.635,529.856,458.06z M601,73.89V52.424h-67.408c-1.954-2.028-4.668,0-7.717,0h-42.929
			c-5.935,0-10.732,0-10.732,10.733H442.55L327.803,4.124C317.167-1.2,304.696-1.619,294.457,4.36L60.325,140.545
			c-10.732,6.257-17.397,17.656-17.397,30.086c0,10.379,4.561,20.05,12.492,26.737c6.386,5.367,14.36,8.189,22.559,8.189
			c2.018,0,4.025-0.204,6.031-0.547l212.829-37.03l60.455,62.114c2.018,2.007,4.744,4.798,7.598,4.798h107.321
			c0,0,4.797,10.733,10.732,10.733H601v-21.467h-64.392V73.89H601z M472.214,213.425H369.336l-84.548-86.21
			c-3.714-3.714-5.753-9.478-5.753-14.716c0-10.83,8.801-20.05,19.619-20.05c5.237,0,10.163,1.835,13.876,5.549l55.507,55.395
			l15.175-15.231L327.717,82.65c-7.76-7.783-18.084-12.066-29.063-12.066c-22.645,0-41.083,18.43-41.083,41.089
			c0,10.959,4.261,21.273,12.031,29.056l8.682,8.683L80.34,183.844c-4.014,0.697-8.017-0.408-11.107-2.995
			c-3.07-2.598-4.84-6.398-4.84-10.423c0-4.83,2.586-9.338,6.751-11.764L305.265,22.069c3.971-2.307,8.811-2.468,12.943-0.407
			L435.21,81.833c1.491,0.74,3.144,2.791,4.808,2.791h32.196V213.425z M515.143,224.158h-21.464V73.89h21.464V224.158z
			 M425.047,394.078l17.772,12.032c4.271-6.321,8.168-12.965,11.537-19.771l-19.221-9.563
			C432.194,382.734,428.792,388.551,425.047,394.078z M442.829,358.314l20.337,6.903c2.447-7.192,4.411-14.63,5.881-22.133
			l-21.067-4.11C446.693,345.532,444.965,352.025,442.829,358.314z M442.207,259.943c2.233,6.322,4.035,12.805,5.376,19.277
			l21.025-4.357c-1.546-7.407-3.617-14.823-6.15-22.046L442.207,259.943z M128.785,310.057c0.011,4.175,0.161,8.318,0.451,12.43
			l21.4-1.514c-0.247-3.617-0.376-7.288-0.387-10.948c0-3.048,0.086-6.075,0.269-9.091l-21.422-1.32
			C128.893,303.07,128.785,306.537,128.785,310.057z M472.214,310.057c0.012-4.218-0.15-8.404-0.45-12.558l-21.401,1.567
			c0.258,3.607,0.398,7.256,0.387,10.959c0,3.037-0.086,6.054-0.268,9.059l21.421,1.32
			C472.107,316.959,472.214,313.503,472.214,310.057z M300.5,256.873c-17.483-15.306-44.807-14.909-61.785,1.245
			c-8.607,8.2-13.34,19.126-13.34,30.794c0,11.656,4.733,22.583,13.34,30.773l54.38,51.778c2.082,1.975,4.743,2.963,7.405,2.963
			c2.661,0,5.323-0.987,7.394-2.952l54.38-51.778c8.618-8.2,13.35-19.126,13.35-30.783c0-11.668-4.733-22.594-13.34-30.794
			c0-0.011,0-0.011,0-0.011C345.296,241.954,317.972,241.578,300.5,256.873z M347.486,304.132L300.5,348.87l-46.986-44.737
			c-4.293-4.1-6.675-9.51-6.675-15.231c0-5.72,2.372-11.141,6.675-15.242c4.626-4.4,10.7-6.6,16.764-6.6
			c6.075,0,12.149,2.2,16.764,6.6l6.042,5.753c4.154,3.94,10.647,3.94,14.8,0l6.042-5.753c9.24-8.801,24.276-8.791,33.538-0.01
			c4.325,4.11,6.697,9.531,6.697,15.252C354.16,294.622,351.778,300.032,347.486,304.132z"/>
	</g>
</g>
</svg>
