<?xml version="1.0" encoding="utf-8"?>
<!-- Generator: Adobe Illustrator 17.0.0, SVG Export Plug-In . SVG Version: 6.00 Build 0)  -->
<!DOCTYPE svg PUBLIC "-//W3C//DTD SVG 1.1//EN" "http://www.w3.org/Graphics/SVG/1.1/DTD/svg11.dtd">
<svg version="1.1" id="Forma_5_1_" xmlns="http://www.w3.org/2000/svg" xmlns:xlink="http://www.w3.org/1999/xlink" x="0px" y="0px"
	 width="357px" height="286px" viewBox="0 0 357 286" enable-background="new 0 0 357 286" xml:space="preserve">
<g id="Forma_5">
	<g>
		<path fill-rule="evenodd" clip-rule="evenodd" fill="#FEAB57" d="M121.376,166.909c0,0-15.821,0.011-15.986,0.027
			c-1.961,0.133-3.885,0.94-5.384,2.437L52.474,216.87c0,0-0.014-42.078-0.042-42.296c-0.38-4.296-3.986-7.665-8.384-7.665H20.102
			c-1.797,0-3.259-1.461-3.259-3.257V20.084c0-1.796,1.462-3.257,3.259-3.257h239.482c1.797,0,3.259,1.461,3.259,3.257v55.081
			c0,4.648,3.771,8.415,8.422,8.415c4.651,0,8.422-3.768,8.422-8.415V20.084c0-11.077-9.018-20.088-20.102-20.088H20.102
			C9.018-0.003,0,9.008,0,20.084v143.568c0,11.077,9.018,20.088,20.102,20.088h15.529v53.447c0,3.403,2.052,6.472,5.199,7.775
			c1.042,0.432,2.136,0.641,3.221,0.641c2.192,0,4.345-0.856,5.957-2.465l59.443-59.398h11.926c4.651,0,8.422-3.767,8.422-8.415
			C129.798,170.676,126.027,166.909,121.376,166.909z M336.897,102.929H169.264c-11.085,0-20.103,9.011-20.103,20.088v97.942
			c0,11.076,9.018,20.087,20.103,20.087h104.948l42.519,42.488c1.611,1.61,3.765,2.465,5.957,2.465c1.085,0,2.179-0.209,3.221-0.641
			c3.146-1.303,5.199-4.371,5.199-7.775v-36.537h5.788c11.085,0,20.102-9.011,20.102-20.088v-97.94
			C357,111.94,347.982,102.929,336.897,102.929z M340.156,220.958c0,1.796-1.462,3.257-3.259,3.257H322.69
			c-4.432,0-8.056,3.423-8.389,7.766c-0.022,0.184-0.035,25.285-0.035,25.285l-30.578-30.555c-0.032-0.032-0.066-0.062-0.098-0.094
			c-0.12-0.117-0.233-0.219-0.341-0.31c-1.482-1.298-3.419-2.092-5.544-2.092H169.264c-1.797,0-3.259-1.461-3.259-3.257v-97.942
			c0-1.796,1.462-3.257,3.259-3.257h167.633c1.797,0,3.259,1.461,3.259,3.257V220.958z M121.707,56.685L82.149,96.214L65.215,79.293
			c-3.288-3.286-8.621-3.287-11.91,0c-3.289,3.286-3.288,8.615,0,11.901l22.09,22.074c0.227,0.297,0.467,0.586,0.739,0.857
			c1.66,1.658,3.84,2.477,6.015,2.462c2.175,0.015,4.355-0.804,6.014-2.462c0.271-0.27,0.511-0.559,0.737-0.854l44.718-44.685
			c3.288-3.286,3.289-8.614,0-11.901C130.328,53.399,124.996,53.399,121.707,56.685z M262.609,174.993l14.611-14.6
			c3.289-3.286,3.289-8.615,0-11.901c-3.289-3.286-8.622-3.286-11.91,0l-14.611,14.6l-14.611-14.6c-3.288-3.286-8.621-3.286-11.91,0
			c-3.289,3.286-3.288,8.615,0,11.901l14.611,14.6l-14.611,14.6c-3.288,3.286-3.289,8.615,0,11.901c3.289,3.287,8.622,3.286,11.91,0
			l14.611-14.6l14.611,14.6c3.289,3.287,8.621,3.287,11.91,0c3.289-3.286,3.288-8.615,0-11.901L262.609,174.993z"/>
	</g>
</g>
</svg>
