<?xml version="1.0" encoding="utf-8"?>
<!-- Generator: Adobe Illustrator 17.0.0, SVG Export Plug-In . SVG Version: 6.00 Build 0)  -->
<!DOCTYPE svg PUBLIC "-//W3C//DTD SVG 1.1//EN" "http://www.w3.org/Graphics/SVG/1.1/DTD/svg11.dtd">
<svg version="1.1" id="Forma_1_1_" xmlns="http://www.w3.org/2000/svg" xmlns:xlink="http://www.w3.org/1999/xlink" x="0px" y="0px"
	 width="571px" height="636px" viewBox="0 0 571 636" enable-background="new 0 0 571 636" xml:space="preserve">
<g id="Forma_1">
	<g>
		<path fill-rule="evenodd" clip-rule="evenodd" fill="#EEEEEE" d="M83.688,64.464h403.624c17.822,0,32.258-14.433,32.258-32.237
			C519.568,14.421,505.134,0,487.312,0H83.688C65.864,0,51.43,14.421,51.43,32.225C51.43,50.031,65.864,64.464,83.688,64.464z
			 M83.688,162.488c-9.83,0-17.823,7.986-17.823,17.79c0,9.82,7.994,17.806,17.823,17.806c9.83,0,17.824-7.986,17.824-17.806
			C101.512,170.474,93.518,162.488,83.688,162.488z M487.312,96.687H83.688C30.743,96.687,0,141.121,0,180.279
			c0,46.186,37.457,83.604,83.688,83.604c20.51,0,39.057-7.667,53.61-19.899v357.13c0,19.258,15.642,34.885,34.921,34.885h226.571
			c19.279,0,34.921-15.627,34.921-34.885v-357.12c14.554,12.233,33.088,19.886,53.598,19.886c46.208,0,83.688-37.418,83.688-83.604
			C571,140.898,539.997,96.687,487.312,96.687z M220.974,568.521c0,8.893-7.226,16.112-16.131,16.112
			c-8.905,0-16.127-7.218-16.127-16.112V258.665c0-8.896,7.223-16.112,16.127-16.112c8.905,0,16.131,7.215,16.131,16.112V568.521z
			 M301.639,568.521c0,8.893-7.223,16.112-16.127,16.112c-8.905,0-16.131-7.218-16.131-16.112V258.665
			c0-8.896,7.225-16.112,16.131-16.112c8.906,0,16.127,7.215,16.127,16.112V568.521z M382.296,568.521
			c0,8.893-7.223,16.112-16.128,16.112c-8.905,0-16.131-7.218-16.131-16.112V258.665c0-8.896,7.224-16.112,16.131-16.112
			c8.907,0,16.128,7.215,16.128,16.112V568.521z M487.312,230.309c-27.617,0-50.082-22.443-50.082-50.031
			c0-6.279,1.293-12.242,3.425-17.79h-310.31c2.132,5.548,3.425,11.511,3.425,17.79c0,27.588-22.466,50.031-50.081,50.031
			c-27.616,0-50.079-22.443-50.079-50.031c0-27.574,22.463-50.016,50.079-50.016h403.623c27.616,0,50.079,22.442,50.079,50.016
			C537.389,207.866,514.928,230.309,487.312,230.309z M487.312,162.488c-9.828,0-17.823,7.986-17.823,17.79
			c0,9.82,7.994,17.806,17.823,17.806c9.83,0,17.822-7.986,17.822-17.806C505.134,170.474,497.14,162.488,487.312,162.488z"/>
	</g>
</g>
</svg>
