<?xml version="1.0" encoding="utf-8"?>
<!-- Generator: Adobe Illustrator 17.0.0, SVG Export Plug-In . SVG Version: 6.00 Build 0)  -->
<!DOCTYPE svg PUBLIC "-//W3C//DTD SVG 1.1//EN" "http://www.w3.org/Graphics/SVG/1.1/DTD/svg11.dtd">
<svg version="1.1" id="Forma_6_1_" xmlns="http://www.w3.org/2000/svg" xmlns:xlink="http://www.w3.org/1999/xlink" x="0px" y="0px"
	 width="659px" height="661px" viewBox="0 0 659 661" enable-background="new 0 0 659 661" xml:space="preserve">
<g id="Forma_6">
	<g>
		<path fill-rule="evenodd" clip-rule="evenodd" fill="#C5ECF0" d="M650.115,60.06c-6.947-0.923-24.455-4.788-36.954-20.708
			c-8.881-11.319-11.013-23.598-11.494-29.91C601.263,4.152,596.878,0.06,591.58,0h-0.234c-5.298,0.06-9.684,4.152-10.087,9.442
			c-0.482,6.313-2.614,18.591-11.494,29.91c-12.501,15.923-30.008,19.787-36.955,20.708c-5.086,0.675-8.885,5.008-8.885,10.134
			c0,5.127,3.8,9.459,8.885,10.135c6.948,0.923,24.455,4.787,36.955,20.708c8.881,11.319,11.013,23.598,11.494,29.909
			c0.406,5.33,4.853,9.448,10.204,9.448c5.351,0,9.798-4.118,10.204-9.448c0.482-6.312,2.614-18.591,11.492-29.907
			c12.502-15.924,30.01-19.789,36.956-20.71c5.087-0.674,8.885-5.008,8.885-10.135C659,65.068,655.201,60.736,650.115,60.06z
			 M597.054,88.423c-2.128,2.713-3.98,5.454-5.59,8.189c-1.611-2.735-3.464-5.477-5.593-8.189
			c-6.422-8.182-13.776-14.038-20.958-18.228c7.184-4.19,14.538-10.046,20.958-18.228l0.002-0.001
			c2.128-2.712,3.98-5.454,5.59-8.189c1.611,2.735,3.464,5.478,5.593,8.19c6.422,8.182,13.776,14.038,20.959,18.228
			C610.831,74.384,603.476,80.242,597.054,88.423z M45.839,101.037c8.881,11.319,11.013,23.598,11.493,29.909
			c0.408,5.33,4.855,9.448,10.205,9.448c5.35,0,9.797-4.118,10.204-9.448c0.481-6.312,2.614-18.591,11.492-29.907
			c12.502-15.924,30.01-19.789,36.956-20.71c5.086-0.674,8.885-5.008,8.885-10.135c0-5.126-3.8-9.459-8.885-10.134
			c-6.946-0.923-24.454-4.788-36.954-20.708c-8.881-11.319-11.013-23.598-11.494-29.91C77.338,4.152,72.953,0.06,67.654,0H67.42
			c-5.298,0.06-9.684,4.152-10.087,9.442c-0.481,6.313-2.614,18.591-11.492,29.909C33.34,55.274,15.832,59.138,8.886,60.06
			C3.8,60.736,0,65.068,0,70.194c0,5.127,3.8,9.459,8.885,10.135C15.832,81.25,33.34,85.115,45.839,101.037z M61.947,51.966
			c2.129-2.712,3.98-5.454,5.59-8.189c1.61,2.735,3.463,5.477,5.59,8.189l0.001,0.001c6.422,8.182,13.778,14.038,20.96,18.228
			c-7.184,4.19-14.537,10.048-20.961,18.229c-2.128,2.713-3.98,5.454-5.59,8.189c-1.611-2.735-3.464-5.477-5.593-8.189
			c-6.421-8.182-13.775-14.038-20.958-18.228C48.17,66.005,55.525,60.147,61.947,51.966z M514.805,352.807
			c2.51-5.058,0.439-11.193-4.624-13.7c-5.062-2.507-11.203-0.438-13.713,4.619c-31.689,63.866-95.668,103.541-166.969,103.541
			c-102.692,0-186.239-83.467-186.239-186.063S226.806,75.141,329.498,75.141s186.239,83.467,186.239,186.063
			c0,12.12-1.173,24.24-3.486,36.024c-1.087,5.539,2.527,10.913,8.073,11.999c5.541,1.09,10.923-2.524,12.011-8.063
			c2.566-13.078,3.868-26.521,3.868-39.958c0-113.87-92.727-206.51-206.705-206.51s-206.705,92.64-206.705,206.51
			c0,113.869,92.727,206.51,206.705,206.51c39.251,0,77.445-11.04,110.454-31.927C472.069,415.468,497.951,386.774,514.805,352.807z
			 M504.627,428.274c-0.495-0.495-1.029-0.927-1.591-1.299l0.08-14.036l37.918-5.301c2.936-0.41,5.549-2.073,7.163-4.557
			c1.616-2.483,2.073-5.545,1.252-8.392l-10.577-36.763l34.886-15.759c2.702-1.221,4.74-3.551,5.589-6.39
			c0.849-2.838,0.424-5.904-1.165-8.404l-20.516-32.297l29.029-24.941c2.247-1.931,3.548-4.743,3.561-7.703
			c0.014-2.961-1.258-5.784-3.488-7.735l-28.793-25.215l20.819-32.101c1.612-2.485,2.066-5.546,1.244-8.393
			c-0.821-2.846-2.838-5.196-5.527-6.442l-34.736-16.089l10.925-36.662c0.846-2.838,0.417-5.904-1.173-8.403
			c-1.591-2.499-4.189-4.185-7.121-4.624l-37.866-5.66l0.143-38.251c0.011-2.962-1.263-5.782-3.495-7.732
			c-2.229-1.951-5.193-2.833-8.136-2.433l-37.929,5.227l-10.649-36.741c-0.824-2.845-2.843-5.193-5.534-6.437
			c-2.692-1.24-5.789-1.259-8.493-0.044l-34.917,15.69L374.953,8.137c-1.593-2.497-4.192-4.182-7.124-4.618
			c-2.932-0.433-5.911,0.422-8.16,2.349l-29.079,24.885L301.748,5.593c-2.233-1.948-5.202-2.834-8.139-2.425
			c-2.936,0.408-5.552,2.067-7.168,4.55L265.558,39.78l-34.767-16.02c-2.691-1.24-5.79-1.254-8.493-0.036
			c-2.701,1.219-4.744,3.548-5.595,6.384l-10.997,36.64l-37.877-5.586c-2.929-0.428-5.909,0.426-8.159,2.357
			c-2.248,1.928-3.551,4.738-3.568,7.698l-0.218,38.253l-37.918,5.302c-2.936,0.411-5.549,2.073-7.163,4.557
			c-1.615,2.483-2.072,5.545-1.252,8.393l10.577,36.763l-34.886,15.76c-2.7,1.221-4.74,3.551-5.589,6.39
			c-0.849,2.837-0.424,5.903,1.165,8.403l20.517,32.296l-29.029,24.941c-2.247,1.932-3.547,4.742-3.561,7.703
			c-0.014,2.961,1.258,5.784,3.487,7.736l28.793,25.215L80.203,325.03c-1.611,2.485-2.066,5.547-1.244,8.392
			c0.821,2.846,2.839,5.196,5.528,6.442l34.736,16.088l-10.925,36.662c-0.846,2.838-0.418,5.903,1.173,8.403
			c1.591,2.499,4.189,4.185,7.121,4.624l37.866,5.661l-0.064,17.174c-0.459,0.326-0.902,0.684-1.314,1.095l-30.017,29.987
			c-3.996,3.994-3.996,10.466,0,14.459c1.997,1.995,4.617,2.993,7.235,2.993c2.618,0,5.238-0.998,7.235-2.993l18.618-18.601
			c0.474,0.68,1.02,1.312,1.656,1.867c2.231,1.952,5.197,2.838,8.136,2.433l37.928-5.227l10.649,36.741
			c0.824,2.844,2.844,5.193,5.534,6.437c2.692,1.242,5.791,1.261,8.494,0.044l34.917-15.693l5.695,8.928L131.679,628.298
			l-5.658-59.354c-0.465-4.881-4.332-8.743-9.217-9.208l-59.412-5.653l46.034-45.991c3.996-3.994,3.996-10.467,0-14.459
			c-3.996-3.991-10.476-3.991-14.471,0l-61.398,61.339c-6.005,5.999-2.169,16.604,6.266,17.407l72.625,6.91l6.916,72.557
			c0.514,5.39,5.054,8.899,9.83,9.152h1.154c2.303-0.134,4.59-1.045,6.439-2.893l149.643-149.503c1.373,2.152,2.622,4.477,4.2,6.487
			c3.538,4.511,10.345,5.182,14.704,1.452l29.079-24.885l28.842,25.157c4.752,4.148,11.946,2.876,15.378-2.233
			c1.601-2.383,3.134-4.812,4.7-7.216l150.884,150.74c1.854,1.851,4.146,2.762,6.454,2.894h1.115
			c4.785-0.243,9.34-3.754,9.855-9.154l6.916-72.557l72.625-6.911c8.435-0.803,12.271-11.407,6.265-17.407L504.627,428.274z
			 M381.119,464.066l-19.284,29.602l-26.629-23.228c-1.927-1.68-4.328-2.522-6.73-2.522c-2.37,0-4.741,0.819-6.657,2.458
			l-26.848,22.976l-1.662-2.605c-0.167-2.372-1.148-4.697-2.964-6.511c-0.693-0.693-1.464-1.257-2.281-1.708l-12.095-18.959
			c-2.732-4.283-8.194-5.913-12.827-3.828l-32.239,14.488l-9.831-33.923c-1.413-4.875-6.196-7.979-11.227-7.283l-35.02,4.826
			l0.132-35.315c0.019-5.078-3.693-9.398-8.718-10.149l-34.963-5.227l10.087-33.849c1.45-4.865-0.894-10.057-5.504-12.192
			l-32.071-14.852l19.223-29.64c2.763-4.26,1.978-9.902-1.844-13.247l-26.584-23.28l26.802-23.029
			c3.853-3.31,4.691-8.942,1.968-13.229l-18.942-29.819l32.21-14.551c4.629-2.092,7.021-7.261,5.618-12.139l-9.766-33.941
			l35.01-4.897c5.032-0.704,8.785-4.99,8.814-10.066l0.201-35.318l34.972,5.157c5.029,0.743,9.836-2.316,11.296-7.178l10.153-33.83
			l32.1,14.793c4.614,2.124,10.091,0.545,12.862-3.708l19.281-29.603l26.629,23.227c3.829,3.34,9.529,3.367,13.387,0.065
			l26.848-22.975l19.001,29.783c2.732,4.281,8.192,5.913,12.826,3.829l32.239-14.488l9.833,33.924
			c1.414,4.877,6.201,7.983,11.228,7.284l35.02-4.827l-0.133,35.316c-0.019,5.078,3.693,9.399,8.72,10.148l34.961,5.226
			l-10.087,33.849c-1.45,4.865,0.894,10.057,5.504,12.191l32.073,14.854l-19.223,29.64c-2.763,4.26-1.978,9.901,1.843,13.246
			l26.584,23.281l-26.802,23.028c-3.853,3.312-4.691,8.943-1.967,13.229l18.942,29.819l-32.21,14.551
			c-4.631,2.091-7.023,7.26-5.619,12.14l9.765,33.942l-35.009,4.896c-5.032,0.705-8.785,4.99-8.814,10.066l-0.201,35.318
			l-34.972-5.158c-5.023-0.733-9.836,2.314-11.296,7.178l-10.152,33.83l-32.1-14.793
			C389.365,458.232,383.89,459.813,381.119,464.066z M542.197,559.736c-4.884,0.465-8.752,4.327-9.216,9.208l-5.658,59.354
			L388.742,489.847l4.703-7.219l34.767,16.02c2.692,1.241,5.79,1.255,8.494,0.036c2.701-1.219,4.744-3.547,5.595-6.384l10.997-36.64
			l37.877,5.586c2.935,0.432,5.91-0.427,8.159-2.357c1.306-1.121,2.28-2.542,2.882-4.112l99.398,99.302L542.197,559.736z
			 M388.152,575.312c-6.946-0.922-24.454-4.787-36.954-20.708c-8.881-11.319-11.013-23.599-11.494-29.91
			c-0.406-5.329-4.853-9.447-10.204-9.447c-5.351,0-9.797,4.118-10.204,9.447c-0.481,6.314-2.614,18.592-11.492,29.909
			c-12.502,15.924-30.01,19.788-36.956,20.71c-5.087,0.675-8.885,5.008-8.885,10.135c0,5.127,3.8,9.459,8.885,10.135
			c6.947,0.922,24.455,4.787,36.954,20.708c8.881,11.319,11.013,23.598,11.494,29.91c0.407,5.33,4.853,9.447,10.204,9.447
			c5.351,0,9.798-4.118,10.204-9.447c0.482-6.313,2.614-18.591,11.492-29.909c12.502-15.923,30.01-19.788,36.956-20.709
			c5.087-0.675,8.885-5.008,8.885-10.135C397.037,580.32,393.239,575.988,388.152,575.312z M335.09,603.675
			c-2.128,2.713-3.98,5.454-5.59,8.188c-1.611-2.734-3.464-5.477-5.593-8.19c-6.422-8.181-13.776-14.036-20.958-18.227
			c7.183-4.19,14.537-10.047,20.961-18.229c2.128-2.713,3.98-5.454,5.59-8.188c1.61,2.734,3.463,5.475,5.59,8.188l0.002,0.001
			c6.422,8.182,13.776,14.037,20.958,18.228C348.869,589.637,341.513,595.494,335.09,603.675z"/>
	</g>
</g>
</svg>
