<?xml version="1.0" encoding="utf-8"?>
<!-- Generator: Adobe Illustrator 17.0.0, SVG Export Plug-In . SVG Version: 6.00 Build 0)  -->
<!DOCTYPE svg PUBLIC "-//W3C//DTD SVG 1.1//EN" "http://www.w3.org/Graphics/SVG/1.1/DTD/svg11.dtd">
<svg version="1.1" id="Forma_1_1_" xmlns="http://www.w3.org/2000/svg" xmlns:xlink="http://www.w3.org/1999/xlink" x="0px" y="0px"
	 width="386px" height="579px" viewBox="0 0 386 579" enable-background="new 0 0 386 579" xml:space="preserve">
<g id="Forma_1">
	<g>
		<path fill-rule="evenodd" clip-rule="evenodd" fill="#EEEEEE" d="M307.159,347.238H386v-35.299
			c0-29.77-16.557-55.671-40.959-68.999v-90.863C345.041,68.221,276.836,0,193.001,0C109.166,0,40.959,68.221,40.959,152.077v90.861
			C16.557,256.267,0,282.168,0,311.937v188.494C0,543.823,35.169,579,78.55,579h228.9c43.38,0,78.55-35.177,78.55-78.569v-24.342
			h-78.841v0.002c-11.28,0-20.423-9.145-20.423-20.428c0-11.282,9.143-20.428,20.423-20.428H386v-47.141h-78.841
			c-11.28,0-20.423-9.145-20.423-20.428C286.736,356.384,295.88,347.238,307.159,347.238z M119.509,233.37v-81.293
			c0-40.533,32.966-73.509,73.49-73.509c40.521,0,73.49,32.975,73.49,73.509v81.293H119.509z"/>
	</g>
</g>
</svg>
