<?xml version="1.0" encoding="utf-8"?>
<!-- Generator: Adobe Illustrator 17.0.0, SVG Export Plug-In . SVG Version: 6.00 Build 0)  -->
<!DOCTYPE svg PUBLIC "-//W3C//DTD SVG 1.1//EN" "http://www.w3.org/Graphics/SVG/1.1/DTD/svg11.dtd">
<svg version="1.1" id="Forma_3_1_" xmlns="http://www.w3.org/2000/svg" xmlns:xlink="http://www.w3.org/1999/xlink" x="0px" y="0px"
	 width="916px" height="693px" viewBox="0 0 916 693" enable-background="new 0 0 916 693" xml:space="preserve">
<g id="Forma_3">
	<g>
		<path fill-rule="evenodd" clip-rule="evenodd" fill="#C5ECF0" d="M615.413,238.117c39.486,0,71.565,34.193,71.565,73.683
			c0,7.891,6.44,16.354,14.33,16.354h214.692v-28.592h-28.572V152.231c0-23.708-19.304-42.997-42.992-42.997
			c-11.038,0-20.968,4.33-28.572,11.183c-7.622-6.854-17.622-11.183-28.661-11.183c-11.039,0-21.04,4.33-28.662,11.183
			c-7.603-6.854-17.533-11.183-28.572-11.183c-23.688,0-42.992,19.289-42.992,42.997v87.425
			c-18.16-18.591-43.53-28.092-71.565-28.092c-45.282,0-83.568,30.687-95.949,73.665H396.535
			c-12.362-42.978-50.667-73.665-95.949-73.665c-27.391,0-53.119,10.271-71.564,29.487v-88.82c0-23.708-19.286-42.997-42.992-42.997
			c-11.039,0-20.95,4.33-28.573,11.183c-7.621-6.854-17.622-11.183-28.66-11.183c-11.039,0-20.968,4.33-28.572,11.183
			c-7.621-6.854-17.622-11.183-28.662-11.183c-23.687,0-42.902,19.289-42.902,42.997v147.331H0v28.592h214.691
			c7.89,0,14.331-8.462,14.331-16.354c0-33.835,30.611-72.627,71.564-72.627c39.414,0,71.564,31.026,71.564,70.517v28.592
			c0,7.891-6.44,14.334-14.33,14.334s-14.331-6.443-14.331-14.334V309.69c0-23.691-19.215-42.979-42.903-42.979
			c-23.688,0-42.992,19.288-42.992,42.979v171.736c0,23.691,19.304,45.091,42.992,45.091c12.649,0,23.903-12.238,31.72-12.238
			h33.761c-11.039,14.261-36.194,40.814-65.481,40.814c-35.925,0-64.855-23.405-70.455-58.422
			c-1.109-6.995-7.12-11.057-14.188-11.057H0v28.664h204.494c12.076,28.593,50.041,71.572,96.092,71.572
			c45.282,0,83.587-42.979,95.949-71.572h122.929c12.381,28.593,50.668,71.572,95.949,71.572c44.942,0,83.516-42.979,95.967-71.572
			h204.619v-28.664H700.056c-6.996,0-12.935,2.934-14.116,9.859c-5.868,34.533-35.514,60.675-70.527,60.675
			c-29.198,0-54.371-27.609-65.481-41.869h33.761c7.818,0,19.071,12.238,31.72,12.238c23.706,0,42.992-21.4,42.992-45.091V309.69
			c0-23.691-19.287-42.979-42.992-42.979c-23.616,0-42.902,19.288-42.902,42.979v28.592c0,7.891-6.423,14.334-14.331,14.334
			c-7.89,0-14.331-6.443-14.331-14.334V309.69C543.849,270.199,576,238.117,615.413,238.117z M830.104,152.231
			c0-7.91,6.441-14.332,14.331-14.332c7.908,0,14.331,6.422,14.331,14.332v147.331h-28.662V152.231z M772.872,152.231
			c0-7.91,6.44-14.332,14.331-14.332c7.89,0,14.33,6.422,14.33,14.332v147.331h-28.661V152.231z M715.638,152.231
			c0-7.91,6.423-14.332,14.331-14.332c7.89,0,14.331,6.422,14.331,14.332v147.331h-28.661V152.231z M85.894,299.562H57.233V152.231
			c0-7.91,6.44-14.332,14.33-14.332c7.891,0,14.331,6.422,14.331,14.332V299.562z M143.128,299.562h-28.662V152.231
			c0-7.91,6.441-14.332,14.331-14.332c7.908,0,14.331,6.422,14.331,14.332V299.562z M200.36,299.562h-28.572V152.231
			c0-7.91,6.352-14.332,14.241-14.332c7.907,0,14.33,6.422,14.33,14.332V299.562z M314.917,481.426
			c0,7.891-6.44,14.333-14.331,14.333c-7.908,0-14.331-6.442-14.331-14.333V309.69c0-7.891,6.423-14.315,14.331-14.315
			c7.891,0,14.331,6.424,14.331,14.315V481.426z M601.172,309.69c0-7.891,6.352-14.315,14.241-14.315
			c7.908,0,14.331,6.424,14.331,14.315v171.736c0,7.891-6.423,14.333-14.331,14.333c-7.889,0-14.241-6.442-14.241-14.333V309.69z
			 M458.044,485.614H343.488V378.613c4.544,1.61,9.303,2.648,14.331,2.648c23.687,0,42.902-19.288,42.902-42.979v-24.459h57.323
			v26.284c-24.672,6.353-42.992,28.79-42.992,55.415c0,26.697,18.321,49.063,42.992,55.505V485.614z M558.18,381.261
			c5.027,0,9.857-1.038,14.331-2.648v107.001h-85.895v-47.095c0-7.909-6.351-14.333-14.33-14.333
			c-15.709,0-28.572-12.864-28.572-28.664c0-15.728,12.863-28.575,28.572-28.575c7.979,0,14.33-6.442,14.33-14.331v-38.793h28.662
			v24.459C515.278,361.973,534.492,381.261,558.18,381.261z M490.82,105.047l20.253-18.108l-18.517-16.426h137.187V41.866H492.556
			l18.517-20.559L490.82-0.004L447.9,42.421c-5.582,5.582-5.582,14.404,0,19.987L490.82,105.047z M686.995,37.661h-28.59v28.665
			h28.59V37.661z M744.3,37.661h-28.661v28.665H744.3V37.661z M801.533,37.661h-28.661v28.665h28.661V37.661z M425.196,585.85
			l-20.27,22.295l18.517,20.612H286.255v28.665h137.188l-18.517,16.425l20.27,19.146l42.902-43.463c5.6-5.601,5.6-14.887,0-20.487
			L425.196,585.85z M229.022,653.236h28.59v-28.665h-28.59V653.236z M171.789,653.236h28.59v-28.665h-28.59V653.236z
			 M114.466,653.236h28.662v-28.665h-28.662V653.236z"/>
	</g>
</g>
</svg>
