<?xml version="1.0" encoding="utf-8"?>
<!-- Generator: Adobe Illustrator 21.0.0, SVG Export Plug-In . SVG Version: 6.00 Build 0)  -->
<svg version="1.1" id="Capa_1" xmlns="http://www.w3.org/2000/svg" xmlns:xlink="http://www.w3.org/1999/xlink" x="0px" y="0px"
	 viewBox="0 0 470 470" style="enable-background:new 0 0 470 470;" xml:space="preserve">
<style type="text/css">
	.st0{fill:#C5ECF0;}
</style>
<g>
	<path class="st0" d="M272.1,146.5c4.1,0,7.5-3.4,7.5-7.5s-3.4-7.5-7.5-7.5h-0.6V99.3c0-11-8.9-19.9-19.9-19.9H28
		c-11,0-19.9,8.9-19.9,19.9v32.2H7.5c-4.1,0-7.5,3.4-7.5,7.5s3.4,7.5,7.5,7.5H26v17.9l-9.2,5.3C7.4,175,0,188.4,0,200.1v237.6
		C0,455.5,14.5,470,32.3,470h215.1c17.8,0,32.3-14.5,32.3-32.3V200.1c0-11.7-7.4-25.1-16.7-30.4l-9.2-5.3v-17.9L272.1,146.5
		L272.1,146.5z M264.6,437.7c0,9.5-7.7,17.3-17.3,17.3H32.3c-9.5,0-17.3-7.7-17.3-17.3v-17.3h249.6V437.7z M264.6,405.5H15V260.3
		h249.6V405.5z M255.4,182.7c4.8,2.8,9.2,11.1,9.2,17.4v45.2H15v-45.2c0-6.4,4.4-14.7,9.2-17.4l13-7.4c2.3-1.3,3.8-3.8,3.8-6.5
		v-22.3h197.7v22.3c0,2.7,1.4,5.2,3.8,6.5L255.4,182.7z M23.1,131.5V99.3c0-2.6,2.2-4.9,4.9-4.9h29.8V109c0,4.1,3.4,7.5,7.5,7.5
		s7.5-3.4,7.5-7.5V94.4h34.7V109c0,4.1,3.4,7.5,7.5,7.5s7.5-3.4,7.5-7.5V94.4h34.7V109c0,4.1,3.4,7.5,7.5,7.5s7.5-3.4,7.5-7.5V94.4
		h34.7V109c0,4.1,3.4,7.5,7.5,7.5s7.5-3.4,7.5-7.5V94.4h29.8c2.6,0,4.9,2.2,4.9,4.9v32.2H23.1z"/>
	<path class="st0" d="M94.9,378.4h89.7c25.1,0,45.5-20.4,45.5-45.5s-20.4-45.5-45.5-45.5H94.9c-25.1,0-45.5,20.4-45.5,45.5
		S69.9,378.4,94.9,378.4z M147.3,302.4h37.4c16.8,0,30.5,13.7,30.5,30.5s-13.7,30.5-30.5,30.5h-37.4V302.4z M94.9,302.4h37.4v60.9
		H94.9c-16.8,0-30.5-13.7-30.5-30.5S78.1,302.4,94.9,302.4z"/>
	<path class="st0" d="M216.1,161.2h-92.7c-4.1,0-7.5,3.4-7.5,7.5s3.4,7.5,7.5,7.5h92.7c4.1,0,7.5-3.4,7.5-7.5
		S220.3,161.2,216.1,161.2z"/>
	<path class="st0" d="M93.4,161.2h-30c-4.1,0-7.5,3.4-7.5,7.5s3.4,7.5,7.5,7.5h30c4.1,0,7.5-3.4,7.5-7.5S97.6,161.2,93.4,161.2z"/>
	<path class="st0" d="M306.1,432.5c0,4.1,3.4,7.5,7.5,7.5s7.5-3.4,7.5-7.5v-60c0-4.1-3.4-7.5-7.5-7.5s-7.5,3.4-7.5,7.5V432.5z"/>
	<path class="st0" d="M313.6,350c4.1,0,7.5-3.4,7.5-7.5v-305c0-4.1-3.4-7.5-7.5-7.5s-7.5,3.4-7.5,7.5v305
		C306.1,346.6,309.4,350,313.6,350z"/>
	<path class="st0" d="M413.5,0H213.6c-31.2,0-56.5,25.3-56.5,56.5c0,4.1,3.4,7.5,7.5,7.5s7.5-3.4,7.5-7.5
		c0-22.9,18.6-41.5,41.5-41.5h199.9c22.9,0,41.5,18.6,41.5,41.5v357c0,22.9-18.6,41.5-41.5,41.5H296.3c-4.1,0-7.5,3.4-7.5,7.5
		s3.4,7.5,7.5,7.5h117.2c31.2,0,56.5-25.3,56.5-56.5v-357C470,25.3,444.7,0,413.5,0z"/>
	<path class="st0" d="M388,117.6c20.2,0,36.6-16.4,36.6-36.6c0-20.2-16.4-36.6-36.6-36.6S351.4,60.8,351.4,81
		C351.4,101.2,367.8,117.6,388,117.6z M388,59.4c11.9,0,21.6,9.7,21.6,21.6s-9.7,21.6-21.6,21.6s-21.6-9.7-21.6-21.6
		C366.4,69.1,376.1,59.4,388,59.4z"/>
	<path class="st0" d="M388,220.3c20.2,0,36.6-16.4,36.6-36.6c0-20.2-16.4-36.6-36.6-36.6s-36.6,16.4-36.6,36.6
		C351.4,203.9,367.8,220.3,388,220.3L388,220.3z M388,162.1c11.9,0,21.6,9.7,21.6,21.6s-9.7,21.6-21.6,21.6s-21.6-9.7-21.6-21.6
		C366.4,171.8,376.1,162.1,388,162.1z"/>
	<path class="st0" d="M388,322.9c20.2,0,36.6-16.4,36.6-36.6s-16.4-36.6-36.6-36.6s-36.6,16.4-36.6,36.6
		C351.4,306.5,367.8,322.9,388,322.9z M388,264.7c11.9,0,21.6,9.7,21.6,21.6c0,11.9-9.7,21.6-21.6,21.6s-21.6-9.7-21.6-21.6
		C366.4,274.4,376.1,264.7,388,264.7z"/>
	<path class="st0" d="M388,425.6c20.2,0,36.6-16.4,36.6-36.6s-16.4-36.6-36.6-36.6s-36.6,16.4-36.6,36.6
		C351.4,409.2,367.8,425.6,388,425.6z M388,367.4c11.9,0,21.6,9.7,21.6,21.6c0,11.9-9.7,21.6-21.6,21.6s-21.6-9.7-21.6-21.6
		C366.4,377,376.1,367.4,388,367.4z"/>
	<path class="st0" d="M227,63.1c3.6-2.4,7.7-3.7,12.1-3.7c4.4,0,8.7,1.3,12.3,3.8c1.3,0.9,2.8,1.3,4.3,1.3c2.4,0,4.7-1.1,6.2-3.2
		c2.4-3.4,1.5-8.1-1.9-10.4c-6.1-4.2-13.3-6.5-20.8-6.5c-7.3,0-14.4,2.2-20.5,6.3c-3.4,2.3-4.3,7-2,10.4
		C218.9,64.5,223.6,65.4,227,63.1L227,63.1z"/>
</g>
</svg>
