<?xml version="1.0" encoding="utf-8"?>
<!-- Generator: Adobe Illustrator 17.0.0, SVG Export Plug-In . SVG Version: 6.00 Build 0)  -->
<!DOCTYPE svg PUBLIC "-//W3C//DTD SVG 1.1//EN" "http://www.w3.org/Graphics/SVG/1.1/DTD/svg11.dtd">
<svg version="1.1" id="Forma_1_1_" xmlns="http://www.w3.org/2000/svg" xmlns:xlink="http://www.w3.org/1999/xlink" x="0px" y="0px"
	 width="389px" height="582px" viewBox="0 0 389 582" enable-background="new 0 0 389 582" xml:space="preserve">
<g id="Forma_1">
	<g>
		<path fill-rule="evenodd" clip-rule="evenodd" fill="#EEEEEE" d="M359.825,38.798h-116.7l17.505-23.28
			c3.229-4.278,2.354-10.36-1.945-13.57c-4.289-3.211-10.386-2.347-13.605,1.94l-26.268,34.91h-47.477L154.569,5.362
			c-2.402-4.792-8.247-6.712-13.051-4.336c-4.804,2.396-6.749,8.225-4.347,13.017l12.419,24.754H29.175
			C13.091,38.798,0.003,51.852,0,67.893v485.008c0.003,16.042,13.091,29.095,29.175,29.095h330.65
			c16.085,0,29.175-13.056,29.175-29.1V67.898C389,51.854,375.91,38.798,359.825,38.798z M178.278,96.038l7.518,14.996
			c1.712,3.404,5.144,5.364,8.714,5.364c1.459,0,2.947-0.33,4.337-1.019c4.804-2.396,6.749-8.225,4.347-13.017l-7.488-14.938
			c10.153,0.63,18.244,8.992,18.244,19.274c0,10.699-8.723,19.4-19.45,19.4c-10.727,0-19.45-8.701-19.45-19.4
			C175.05,102.76,176.246,99.103,178.278,96.038z M116.7,533.497h-9.725c-5.378,0-9.725-4.336-9.725-9.7
			c0-5.364,4.347-9.7,9.725-9.7h9.725c5.378,0,9.725,4.336,9.725,9.7C126.425,529.161,122.078,533.497,116.7,533.497z
			 M175.05,533.497H155.6c-5.378,0-9.725-4.336-9.725-9.7c0-5.364,4.347-9.7,9.725-9.7h19.45c5.378,0,9.725,4.336,9.725,9.7
			C184.775,529.161,180.428,533.497,175.05,533.497z M223.675,533.497h-9.725c-5.378,0-9.725-4.336-9.725-9.7
			c0-5.364,4.347-9.7,9.725-9.7h9.725c5.378,0,9.725,4.336,9.725,9.7C233.4,529.161,229.053,533.497,223.675,533.497z
			 M282.025,533.497h-19.45c-5.378,0-9.725-4.336-9.725-9.7c0-5.364,4.347-9.7,9.725-9.7h19.45c5.378,0,9.725,4.336,9.725,9.7
			C291.75,529.161,287.403,533.497,282.025,533.497z M282.025,494.697h-175.05c-5.378,0-9.725-4.336-9.725-9.7
			c0-5.364,4.347-9.7,9.725-9.7h175.05c5.378,0,9.725,4.336,9.725,9.7C291.75,490.361,287.403,494.697,282.025,494.697z
			 M136.15,446.197c0-5.364,4.347-9.7,9.725-9.7h97.25c5.378,0,9.725,4.336,9.725,9.7c0,5.364-4.347,9.7-9.725,9.7h-97.25
			C140.497,455.897,136.15,451.561,136.15,446.197z M369.55,387.997h-79.239c-2.966-11.475-10.649-21.282-21.492-26.694
			L233.4,343.261v-3.754c15.832-8.623,26.968-22.824,33.182-42.33c9.424-4.986,15.443-14.695,15.443-25.579v-9.7
			c0-8.982-4.191-17.314-11.193-22.785c-6.068-36.666-31.723-55.251-76.332-55.251c-2.11,0-4.172,0.078-6.185,0.233
			c-11.67,0.931-22.98-1.581-31.353-7.178c-3.978-2.677-6.983-5.277-8.898-7.692c-4.318-5.51-13.323-5.762-17.923-0.601
			c-2.208,2.464-3.248,5.781-2.859,9.079c0.409,3.628,1.021,7.847,1.945,12.474c1.877,9.457,1.877,9.457-0.759,15.122
			c-0.992,2.134-2.217,4.743-3.656,8.264c-3.219,7.867-5.505,16.48-6.817,25.676c-6.895,5.471-11.019,13.764-11.019,22.659v9.7
			c0,10.884,6.02,20.593,15.443,25.579c6.214,19.516,17.35,33.717,33.182,42.33v3.647l-36.654,18.022
			c-10.474,5.694-17.777,15.5-20.491,26.821H19.45V67.898c0-5.354,4.357-9.7,9.725-9.7h130.14l9.725,19.4
			c-8.169,7.12-13.44,17.45-13.44,29.1c0,21.398,17.446,38.8,38.9,38.8s38.9-17.402,38.9-38.8c0-21.398-17.446-38.8-38.9-38.8
			c-2.791,0-5.504,0.32-8.13,0.883l-5.31-10.583h178.765c5.368,0,9.725,4.346,9.725,9.7V387.997z"/>
	</g>
</g>
</svg>
