<?xml version="1.0" encoding="UTF-8" standalone="no"?>
<!-- Created with Inkscape (http://www.inkscape.org/) -->

<svg
   xmlns:dc="http://purl.org/dc/elements/1.1/"
   xmlns:cc="http://creativecommons.org/ns#"
   xmlns:rdf="http://www.w3.org/1999/02/22-rdf-syntax-ns#"
   xmlns:svg="http://www.w3.org/2000/svg"
   xmlns="http://www.w3.org/2000/svg"
   xmlns:sodipodi="http://sodipodi.sourceforge.net/DTD/sodipodi-0.dtd"
   xmlns:inkscape="http://www.inkscape.org/namespaces/inkscape"
   id="svg2"
   version="1.1"
   inkscape:version="0.91 r13725"
   xml:space="preserve"
   width="478.75"
   height="513.75"
   viewBox="0 0 478.75 513.75"
   sodipodi:docname="icon-eje1.svg"><metadata
     id="metadata8"><rdf:RDF><cc:Work
         rdf:about=""><dc:format>image/svg+xml</dc:format><dc:type
           rdf:resource="http://purl.org/dc/dcmitype/StillImage" /><dc:title></dc:title></cc:Work></rdf:RDF></metadata><defs
     id="defs6" /><sodipodi:namedview
     pagecolor="#ffffff"
     bordercolor="#666666"
     borderopacity="1"
     objecttolerance="10"
     gridtolerance="10"
     guidetolerance="10"
     inkscape:pageopacity="0"
     inkscape:pageshadow="2"
     inkscape:window-width="1366"
     inkscape:window-height="747"
     id="namedview4"
     showgrid="false"
     inkscape:zoom="1.1232968"
     inkscape:cx="198.7415"
     inkscape:cy="351.30818"
     inkscape:window-x="0"
     inkscape:window-y="21"
     inkscape:window-maximized="1"
     inkscape:current-layer="g10" /><g
     id="g10"
     inkscape:groupmode="layer"
     inkscape:label="ink_ext_XXXXXX"
     transform="matrix(1.25,0,0,-1.25,0,513.75)"><g
       id="g12"
       transform="scale(0.1,0.1)"><path
         d="m 2321.05,2672.33 c 0,-37.7 30.55,-68.28 68.29,-68.28 l 682.65,0 c 37.78,0 68.28,30.58 68.28,68.28 0,37.69 -30.5,68.28 -68.28,68.28 l -682.65,0 c -37.74,0 -68.29,-30.59 -68.29,-68.28 z"
         style="fill:#c5ecf0;fill-opacity:1;fill-rule:nonzero;stroke:none"
         id="path14"
         inkscape:connector-curvature="0" /><path
         d="m 2730.66,2262.72 c 0,-37.66 30.51,-68.24 68.29,-68.24 l 409.6,0 c 37.74,0 68.25,30.58 68.25,68.24 0,37.69 -30.51,68.28 -68.25,68.28 l -409.6,0 c -37.78,0 -68.29,-30.59 -68.29,-68.28 z"
         style="fill:#c5ecf0;fill-opacity:1;fill-rule:nonzero;stroke:none"
         id="path16"
         inkscape:connector-curvature="0" /><path
         d="m 2662.38,3013.66 c 37.78,0 68.28,30.58 68.28,68.28 0,37.65 -30.5,68.24 -68.28,68.24 l -136.52,0 c -37.74,0 -68.24,-30.59 -68.24,-68.24 0,-37.7 30.5,-68.28 68.24,-68.28 l 136.52,0 z"
         style="fill:#c5ecf0;fill-opacity:1;fill-rule:nonzero;stroke:none"
         id="path18"
         inkscape:connector-curvature="0" /><path
         d="m 1843.2,2331 c -37.77,0 -68.28,-30.59 -68.28,-68.28 0,-37.66 30.51,-68.24 68.28,-68.24 l 682.66,0 c 37.77,0 68.28,30.58 68.28,68.24 0,37.69 -30.51,68.28 -68.28,68.28 l -682.66,0 z"
         style="fill:#c5ecf0;fill-opacity:1;fill-rule:nonzero;stroke:none"
         id="path20"
         inkscape:connector-curvature="0" /><path
         d="m 2184.53,419.52 -1297.069,0 c -112.891,0 -204.801,91.91 -204.801,204.8 l 0,3140.27 c 0,37.7 -30.512,68.29 -68.25,68.29 -188.199,0 -341.32,-153.13 -341.32,-341.33 0,-37.7 30.5,-68.28 68.238,-68.28 37.774,0 68.281,30.58 68.281,68.28 0,89.02 57.071,164.92 136.52,193.12 l 0,-3060.35 c 0,-188.199 153.133,-341.332 341.332,-341.332 l 1297.069,0 c 37.77,0 68.28,30.59 68.28,68.282 0,37.66 -30.51,68.25 -68.28,68.25 z"
         style="fill:#c5ecf0;fill-opacity:1;fill-rule:nonzero;stroke:none"
         id="path22"
         inkscape:connector-curvature="0" /><path
         d="m 1160.55,2604.05 955.74,0 c 37.73,0 68.24,30.58 68.24,68.28 0,37.69 -30.51,68.28 -68.24,68.28 l -955.74,0 c -37.78,0 -68.28,-30.59 -68.28,-68.28 0,-37.7 30.5,-68.28 68.28,-68.28 z"
         style="fill:#c5ecf0;fill-opacity:1;fill-rule:nonzero;stroke:none"
         id="path24"
         inkscape:connector-curvature="0" /><path
         d="m 1160.55,3013.66 273.04,0 c 37.78,0 68.29,30.58 68.29,68.28 0,37.65 -30.51,68.24 -68.29,68.24 l -273.04,0 c -37.78,0 -68.28,-30.59 -68.28,-68.24 0,-37.7 30.5,-68.28 68.28,-68.28 z"
         style="fill:#c5ecf0;fill-opacity:1;fill-rule:nonzero;stroke:none"
         id="path26"
         inkscape:connector-curvature="0" /><path
         d="m 2252.81,3150.22 -546.13,0 c -37.77,0 -68.28,-30.59 -68.28,-68.28 0,-37.7 30.51,-68.28 68.28,-68.28 l 546.13,0 c 37.74,0 68.24,30.58 68.24,68.28 0,37.69 -30.5,68.28 -68.24,68.28 z"
         style="fill:#c5ecf0;fill-opacity:1;fill-rule:nonzero;stroke:none"
         id="path28"
         inkscape:connector-curvature="0" /><path
         d="m 3208.55,4104.36 -2594.14,0 C 276.41,4104.36 1.28906,3829.99 0,3492.37 l 0,-3.24 c 0.898438,-217.7 118.359,-420.51 307.109,-529.73 32.661,-18.83 74.371,-7.74 93.282,24.84 18.949,32.62 7.699,74.42 -24.84,93.25 -147.192,85.27 -238.75,243.51 -239.031,413.28 0.511,263.12 214.652,477.07 477.89,477.07 l 2594.14,0 c 263.44,0 477.86,-214.38 477.86,-477.89 l 0,-2867.188 c 0,-34.614 -9.69,-69.383 -27.93,-100.352 -19.07,-32.5 -8.25,-74.34 24.22,-93.441 10.93,-6.449 22.81,-9.449 34.57,-9.449 23.39,0 46.21,12.031 58.9,33.671 30.59,51.95 46.76,110.579 46.76,169.571 l 0,2867.188 c 0,338.82 -275.59,614.41 -614.38,614.41 z"
         style="fill:#c5ecf0;fill-opacity:1;fill-rule:nonzero;stroke:none"
         id="path30"
         inkscape:connector-curvature="0" /><path
         d="m 3413.32,965.648 c 0,225.902 -183.67,409.612 -409.57,409.612 -225.9,0 -409.61,-183.71 -409.61,-409.612 0,-225.898 183.71,-409.57 409.61,-409.57 225.9,0 409.57,183.672 409.57,409.57 z M 3003.75,692.602 c -150.63,0 -273.09,122.457 -273.09,273.046 0,150.622 122.46,273.092 273.09,273.092 150.59,0 273.05,-122.47 273.05,-273.092 0,-150.589 -122.46,-273.046 -273.05,-273.046 z"
         style="fill:#c5ecf0;fill-opacity:1;fill-rule:nonzero;stroke:none"
         id="path32"
         inkscape:connector-curvature="0" /><path
         d="m 2880.51,487.719 c -32.54,18.871 -74.34,7.66 -93.24,-24.957 l -147,-254.731 -23.32,35.239 c -11.83,17.968 -31.4,29.289 -52.85,30.5 l -42.19,2.539 149.42,258.711 c 18.87,32.66 7.65,74.421 -24.96,93.289 -32.66,18.902 -74.42,7.691 -93.32,-25 L 2348.44,248.93 c -11.8,-20.469 -12.15,-45.66 -0.94,-66.481 11.17,-20.82 32.34,-34.418 56.05,-35.789 l 118.29,-7.07 65.35,-98.9416 c 12.61,-19.1796 34.06,-30.6289 56.91,-30.6289 l 2.11,0 c 23.56,0.75 45.2,13.6407 57.07,34.1094 L 2905.59,394.48 c 18.82,32.61 7.61,74.411 -25.08,93.239 z"
         style="fill:#c5ecf0;fill-opacity:1;fill-rule:nonzero;stroke:none"
         id="path34"
         inkscape:connector-curvature="0" /><path
         d="m 3456.21,600.102 c -18.91,32.699 -60.78,43.91 -93.24,24.957 -32.7,-18.821 -43.91,-60.618 -25.08,-93.239 l 147.66,-255.511 -42.19,-2.539 c -21.41,-1.282 -41.02,-12.61 -52.89,-30.5 l -23.2,-35.239 -146.25,253.438 c -18.95,32.621 -60.75,43.832 -93.32,24.961 -32.62,-18.828 -43.79,-60.621 -24.97,-93.239 L 3304.26,44.1289 c 11.87,-20.4687 33.51,-33.3594 57.07,-34.14062 l 2.11,0 c 22.81,0 44.29,11.48052 56.99,30.66012 l 65.27,98.8316 118.25,7.18 c 23.67,1.371 44.84,14.969 56.05,35.789 11.21,20.821 10.78,45.973 -0.98,66.481 l -202.81,351.172 z"
         style="fill:#c5ecf0;fill-opacity:1;fill-rule:nonzero;stroke:none"
         id="path36"
         inkscape:connector-curvature="0" /><path
         d="m 1160.55,2194.48 409.57,0 c 37.77,0 68.28,30.58 68.28,68.24 0,37.69 -30.51,68.28 -68.28,68.28 l -409.57,0 c -37.78,0 -68.28,-30.59 -68.28,-68.28 0,-37.66 30.5,-68.24 68.28,-68.24 z"
         style="fill:#c5ecf0;fill-opacity:1;fill-rule:nonzero;stroke:none"
         id="path38"
         inkscape:connector-curvature="0" /><path
         d="m 1160.55,1784.87 819.18,0 c 37.77,0 68.28,30.58 68.28,68.24 0,37.7 -30.51,68.28 -68.28,68.28 l -819.18,0 c -37.78,0 -68.28,-30.58 -68.28,-68.28 0,-37.66 30.5,-68.24 68.28,-68.24 z"
         style="fill:#c5ecf0;fill-opacity:1;fill-rule:nonzero;stroke:none"
         id="path40"
         inkscape:connector-curvature="0" /><path
         d="m 1167.77,935.141 c 16.8,-33.711 57.82,-47.379 91.53,-30.582 33.75,16.871 47.46,57.89 30.5,91.64 -67.57,135.151 -82.73,256.401 -40.66,324.451 22.38,36.25 61.45,54.61 116.17,54.61 32.58,0 44.73,-11.17 52.39,-22.11 50.85,-73.32 2.53,-296.6 -48.05,-431.798 -11.29,-30.082 0,-63.942 27.03,-81.364 26.87,-17.269 62.46,-13.519 85.2,9.141 29.14,29.101 60.74,58.121 88.24,81.641 l 0,-33.36 c 0,-27.582 16.6,-52.5 42.15,-63.012 25.5,-10.66 54.8,-4.769 74.41,14.731 31.17,31.133 67.34,61.641 97.81,83.633 -0.82,-1.723 -1.64,-3.364 -2.46,-4.922 -10.43,-21.141 -9.3,-46.289 3.17,-66.328 12.46,-20.082 34.37,-32.383 58,-32.383 l 273.05,0 c 37.77,0 68.28,30.582 68.28,68.281 0,37.649 -30.51,68.238 -68.28,68.238 l -177.7,0 c 5.55,32.5 4.18,65.552 -12.26,92.192 -17.42,28.16 -47.74,44.37 -83.09,44.37 -42.18,0 -91.83,-25.66 -137.15,-57.5 -3.47,29.77 -21.09,54.3 -47.85,65.35 -18.24,7.5 -41.72,17.31 -98.71,-16.87 22.46,117.62 29.03,253.2 -29.57,337.69 -25.58,36.96 -74.88,80.9 -164.57,80.9 -102.26,0 -184.8,-42.38 -232.38,-119.37 -68.09,-110.2 -55.43,-276.84 34.8,-457.269 z"
         style="fill:#c5ecf0;fill-opacity:1;fill-rule:nonzero;stroke:none"
         id="path42"
         inkscape:connector-curvature="0" /><path
         d="m 3003.75,1853.11 c 0,37.7 -30.51,68.28 -68.28,68.28 l -682.66,0 c -37.77,0 -68.28,-30.58 -68.28,-68.28 0,-37.66 30.51,-68.24 68.28,-68.24 l 682.66,0 c 37.77,0 68.28,30.58 68.28,68.24 z"
         style="fill:#c5ecf0;fill-opacity:1;fill-rule:nonzero;stroke:none"
         id="path44"
         inkscape:connector-curvature="0" /></g></g></svg>
