<?xml version="1.0" encoding="utf-8"?>
<!-- Generator: Adobe Illustrator 17.0.0, SVG Export Plug-In . SVG Version: 6.00 Build 0)  -->
<!DOCTYPE svg PUBLIC "-//W3C//DTD SVG 1.1//EN" "http://www.w3.org/Graphics/SVG/1.1/DTD/svg11.dtd">
<svg version="1.1" id="Forma_1_1_" xmlns="http://www.w3.org/2000/svg" xmlns:xlink="http://www.w3.org/1999/xlink" x="0px" y="0px"
	 width="535px" height="596px" viewBox="0 0 535 596" enable-background="new 0 0 535 596" xml:space="preserve">
<g id="Forma_1">
	<g>
		<path fill-rule="evenodd" clip-rule="evenodd" fill="#FFFFFF" d="M498.864,0h-348.19c-19.926,0-36.137,16.211-36.137,36.136
			v80.866C48.485,135.904-0.001,196.829-0.001,268.867c0,72.038,48.484,132.963,114.537,151.865v139.132
			c0,19.925,16.212,36.136,36.137,36.136h284.538c3.376,0,6.612-1.34,9-3.727l87.06-87.057c2.387-2.387,3.727-5.624,3.727-9V36.136
			C535,16.211,518.79,0,498.864,0z M25.454,268.866c0-73.047,59.43-132.474,132.479-132.474c73.05,0,132.479,59.427,132.479,132.474
			c0,73.046-59.429,132.474-132.479,132.474C84.884,401.34,25.454,341.912,25.454,268.866z M447.941,552.543v-32.922
			c0-5.889,4.792-10.68,10.68-10.68h32.923L447.941,552.543z M509.541,483.485h-50.923c-19.927,0-36.136,16.211-36.136,36.135
			v50.923H150.674c-5.89,0-10.682-4.79-10.682-10.68V425.77c5.891,0.669,11.876,1.025,17.943,1.025
			c47.439,0,90.055-21.027,119.03-54.245h77.987c7.029,0,12.728-5.698,12.728-12.727c0-7.029-5.699-12.727-12.728-12.727h-59.859
			c11.071-19.333,18.163-41.219,20.176-64.536h39.682c7.029,0,12.728-5.698,12.728-12.727c0-7.029-5.699-12.727-12.728-12.727
			H315.43c-1.721-23.266-8.51-45.142-19.257-64.535h58.776c7.029,0,12.728-5.698,12.728-12.727c0-7.029-5.698-12.728-12.728-12.728
			h-76.336c-28.993-34.331-72.331-56.178-120.682-56.178c-6.067,0-12.052,0.357-17.943,1.025v-11.96h369.552V483.485z
			 M509.544,74.547H139.992V36.136c0-5.89,4.792-10.681,10.682-10.681h348.19c5.889,0,10.68,4.791,10.68,10.681V74.547z
			 M404.959,192.569h42.269c7.029,0,12.728-5.698,12.728-12.727c0-7.029-5.698-12.727-12.728-12.727h-42.269
			c-7.029,0-12.728,5.698-12.728,12.727C392.231,186.871,397.929,192.569,404.959,192.569z M404.959,282.559h42.269
			c7.029,0,12.728-5.698,12.728-12.727c0-7.029-5.698-12.727-12.728-12.727h-42.269c-7.029,0-12.728,5.698-12.728,12.727
			C392.231,276.861,397.929,282.559,404.959,282.559z M404.959,372.55h42.269c7.029,0,12.728-5.698,12.728-12.727
			c0-7.029-5.698-12.727-12.728-12.727h-42.269c-7.029,0-12.728,5.698-12.728,12.727C392.231,366.852,397.929,372.55,404.959,372.55
			z M447.227,437.084H328.161c-7.03,0-12.728,5.699-12.728,12.728c0,7.029,5.698,12.727,12.728,12.727h119.066
			c7.029,0,12.728-5.698,12.728-12.727C459.955,442.783,454.257,437.084,447.227,437.084z M256.753,204.662l-15.528-15.528
			c-4.182-4.181-9.741-6.483-15.655-6.483c-5.914,0-11.473,2.303-15.655,6.483l-81.446,81.443l-22.514-22.513
			c-4.181-4.179-9.741-6.482-15.654-6.482c-5.913,0-11.473,2.303-15.654,6.483l-15.532,15.53c-8.63,8.632-8.63,22.677,0.002,31.308
			l53.696,53.692c4.182,4.183,9.742,6.486,15.656,6.486h0.001c5.914,0,11.474-2.303,15.653-6.483l112.632-112.628
			C265.385,227.339,265.385,213.293,256.753,204.662z M128.467,328.253L79.46,279.248l10.839-10.838l29.167,29.166
			c4.971,4.971,13.029,4.971,18.001,0l88.103-88.099l10.839,10.839L128.467,328.253z"/>
	</g>
</g>
</svg>
