<?xml version="1.0" encoding="utf-8"?>
<!-- Generator: Adobe Illustrator 17.0.0, SVG Export Plug-In . SVG Version: 6.00 Build 0)  -->
<!DOCTYPE svg PUBLIC "-//W3C//DTD SVG 1.1//EN" "http://www.w3.org/Graphics/SVG/1.1/DTD/svg11.dtd">
<svg version="1.1" id="Forma_5_1_" xmlns="http://www.w3.org/2000/svg" xmlns:xlink="http://www.w3.org/1999/xlink" x="0px" y="0px"
	 width="721px" height="721px" viewBox="0 0 721 721" enable-background="new 0 0 721 721" xml:space="preserve">
<g id="Forma_5">
	<g>
		<path fill-rule="evenodd" clip-rule="evenodd" fill="#C5ECF0" d="M674.667,118.713V37.632l27.792,20.854l13.907-18.541
			L663.078-0.004l-53.279,39.962l13.897,18.528l27.801-20.841v81.068c0,31.935-25.974,57.919-57.909,57.919h-46.329
			c-36.651,0-67.648,23.161-77.66,57.91h-16.591l-0.429,23.161h13.599v36.104c-5.688-0.808-11.45-1.355-17.375-1.355
			c-26.935,0-52.838,9.002-74.096,25.569c-15.214-16.187-36.508-25.569-59.095-25.569c-7.935,0-15.712,1.258-23.161,3.505v-72.993
			c0-38.327-31.173-69.503-69.5-69.503h-11.581v-23.158H188.2v23.158h-34.736c-38.327,0-69.49,31.176-69.49,69.503v23.158
			c0,12.778-10.392,23.171-23.171,23.171h-23.17l20.854-27.804L39.95,227.595l-39.953,53.267l39.965,53.288l18.525-13.907
			l-20.842-27.791h23.158c25.545,0,46.329-20.784,46.329-46.33v-23.171c0-25.548,20.784-46.328,46.332-46.328h69.487
			c25.557,0,46.329,20.781,46.329,46.328v84.203c-5.035,3.527-9.726,7.564-13.894,12.197c-8.716-2.492-17.661-3.742-26.639-3.742
			c-49.688,0-90.925,36.745-97.434,85.117c-41.327,12.223-70.509,50.619-70.509,94.406c0,20.51,6.449,40.534,18.291,57.137
			c-4.466,11.389-6.71,23.301-6.71,35.523c0,54.285,44.167,98.456,98.452,98.456c4.384,0,8.684-0.392,12.922-0.952
			c0.796-0.107,1.605-0.249,2.399-0.368c4.29-0.678,8.504-1.568,12.602-2.779c15.925,10.286,34.167,15.676,53.145,15.676
			c21.237,0,41.461-6.685,58.244-19.06c18.254,26.366,48.05,42.231,80.746,42.231c30.37,0,58.35-13.694,76.948-37.147
			c15.226,9.179,32.447,13.976,50.464,13.976c54.285,0,98.44-44.156,98.44-98.443c0-11.721-2.064-23.171-6.151-34.119
			c18.729-18.47,29.324-43.562,29.324-70.12c0-5.914-0.584-11.708-1.605-17.376h1.605v-23.17h-8.85
			c-11.602-25.496-33.775-45.556-61.482-53.799c-5.096-47.469-37.043-86.2-80.237-101.365v-41.732
			c0-31.935,25.974-57.91,57.909-57.91h46.329C638.281,199.793,674.667,163.416,674.667,118.713z M547.058,410.444l0.331,9.133
			l8.966,1.795c20.832,4.18,38.098,16.981,48.8,34.107v22.291h9.276c1.365,5.63,2.313,11.39,2.313,17.376
			c0,18.384-6.719,35.785-18.631,49.406c-16.652-22.934-43.03-36.958-73.266-38.965l-1.52,21.675
			c38.478,2.542,68.727,30.285,70.116,74.738c-1.39,40.297-34.511,72.67-75.139,72.67c-16.865,0-32.863-5.521-46.247-15.974
			l-4.621-3.609c-14.274-13.006-23.028-31.02-24.335-50.689l-23.122,1.545c1.627,24.511,12.243,47.04,29.44,63.823
			c-14.226,17.731-35.475,28.062-58.527,28.062c-28.753,0-54.596-16.08-67.411-41.96l-7.123-14.393l-11.413,11.331
			c-14.192,14.083-33.027,21.863-53.03,21.863c-9.167,0-18.039-1.83-26.46-5.022c26.414-17.685,43.823-47.755,43.823-81.852
			c0-2.46-0.319-4.859-0.499-7.294c18.434-3.192,35.654-11.532,49.631-24.356l-15.652-17.081
			c-10.796,9.893-24.098,16.284-38.336,18.67c-7.756-24.192-24.527-44.857-47.779-57.113l-10.796,20.498
			c24.846,13.101,40.272,38.634,40.272,66.675c0,32.504-20.748,60.178-49.655,70.7c-4.074,1.472-8.206,2.588-12.362,3.348
			c-0.286,0.049-0.559,0.085-0.845,0.131c-4.132,0.702-8.276,1.107-12.423,1.107c-41.518,0-75.282-33.767-75.282-75.285
			c0-11.14,2.457-21.973,7.327-32.222l3.171-6.674l-4.728-5.688c-11.198-13.493-17.351-30.546-17.351-48.077
			c0-35.737,25.393-66.781,60.378-73.799l8.884-1.769l0.416-9.039c1.189-25.32,14.691-47.162,34.56-59.892v22.885h23.158v-32.647
			c5.582-1.32,11.392-2.092,17.376-2.092c8.957,0,17.886,1.651,26.497,4.907l8.291,3.123l5.19-7.148
			c0.164-0.25,0.38-0.454,0.556-0.703v57.73h23.171v-76.079c7.233-3.195,15.095-5.001,23.161-5.001
			c16.032,0,31.103,6.688,41.944,18.123c-19.415,22.091-33.252,50.688-33.252,80.332c0,67.055,60.807,121.614,118.716,121.614
			v-23.17c-46.329,0-95.558-44.167-95.558-98.443c0-24.18,10.428-47.505,26.366-65.45l6.64-5.643
			c18.479-17.646,42.859-27.363,67.979-27.363c5.95,0,12.091,0.595,17.731,1.604v44.727c0,31.935-25.974,57.91-57.909,57.91h-11.578
			v23.17h11.578c44.702,0,81.08-36.39,81.08-81.08v-37.579C522.364,339.257,545.644,371.75,547.058,410.444z M570.429,454.599
			h-34.751v23.17h34.751V454.599z M593.588,257.7h34.751v-23.158h-34.751V257.7z M413.912,246.691l11.672-20.012
			c-8.361-4.88-15.451-11.827-20.498-20.118l-19.774,12.067C392.356,230.173,402.237,239.875,413.912,246.691z M373.518,176.623
			c0,1.21,0.024,2.41,0.085,3.621l23.146-2.578l-0.058-35.782h-23.173V176.623z M373.518,72.38v34.752h23.17V72.38H373.518z
			 M667.638,447.485l11.152,20.297c11.839-6.506,21.97-15.961,29.309-27.327l-19.476-12.554
			C683.375,436.038,676.105,442.806,667.638,447.485z M697.825,396.69c0,1.368-0.046,2.721-0.152,4.085l23.122,1.615
			c0.131-1.888,0.204-3.789,0.204-5.701v-34.748h-23.174V396.69z M524.088,257.7h34.751v-23.158h-34.751V257.7z M718.196,294.531
			l-22.365,6.032c1.332,4.904,1.994,9.967,1.994,15.047v11.592h23.174V315.61C720.999,308.486,720.06,301.396,718.196,294.531z
			 M698.455,259.625c-9.379-9.808-21.128-17.16-33.976-21.282l-7.057,22.054c9.17,2.946,17.579,8.218,24.302,15.238L698.455,259.625
			z M373.518,37.632h23.173l27.801,20.854l13.894-18.528L385.111-0.004l-53.276,39.962l13.894,18.528L373.518,37.632z
			 M188.213,95.555h23.158V60.803h-23.158V95.555z M188.213,304.032h23.158V269.28h-23.158V304.032z M211.371,199.793h-23.158
			v34.751h23.158V199.793z M188.213,443.021h23.158v-34.751h-23.158V443.021z M199.793,28.95l39.382,29.536l13.894-18.528
			L199.793-0.004l-53.279,39.962l13.897,18.528L199.793,28.95z"/>
	</g>
</g>
</svg>
