<?xml version="1.0" encoding="utf-8"?>
<!-- Generator: Adobe Illustrator 17.0.0, SVG Export Plug-In . SVG Version: 6.00 Build 0)  -->
<!DOCTYPE svg PUBLIC "-//W3C//DTD SVG 1.1//EN" "http://www.w3.org/Graphics/SVG/1.1/DTD/svg11.dtd">
<svg version="1.1" id="Shape_1_1_" xmlns="http://www.w3.org/2000/svg" xmlns:xlink="http://www.w3.org/1999/xlink" x="0px" y="0px"
	 width="660px" height="660px" viewBox="0 0 660 660" enable-background="new 0 0 660 660" xml:space="preserve">
<g id="Shape_1">
	<g>
		<path fill-rule="evenodd" clip-rule="evenodd" fill="#C5ECF0" d="M141.428,282.856c38.999,0,70.715-31.715,70.715-70.714
			c0-38.999-31.715-70.714-70.715-70.714c-38.999,0-70.714,31.715-70.714,70.714C70.714,251.14,102.43,282.856,141.428,282.856z
			 M141.428,164.999c25.999,0,47.143,21.143,47.143,47.143c0,25.999-21.143,47.143-47.143,47.143
			c-25.999,0-47.143-21.144-47.143-47.143C94.285,186.142,115.429,164.999,141.428,164.999z M518.571,282.856
			c38.999,0,70.715-31.715,70.715-70.714c0-38.999-31.716-70.714-70.715-70.714c-38.999,0-70.714,31.715-70.714,70.714
			C447.857,251.14,479.572,282.856,518.571,282.856z M518.571,164.999c26,0,47.143,21.143,47.143,47.143
			c0,25.999-21.143,47.143-47.143,47.143c-26,0-47.143-21.144-47.143-47.143C471.428,186.142,492.571,164.999,518.571,164.999z
			 M636.428,306.427v153.214c0,19.494-15.863,35.357-35.357,35.357V365.356c0-32.493-26.436-58.929-58.929-58.929h-58.928
			c-6.506,0-11.785,5.28-11.785,11.785v70.715h-94.286c-6.506,0-11.785,5.279-11.785,11.785v35.357h-70.715v-35.357
			c0-6.505-5.279-11.785-11.785-11.785h-94.286v-70.715c0-6.505-5.28-11.785-11.786-11.785h-58.928
			c-32.493,0-58.929,26.435-58.929,58.929v129.642c-19.494,0-35.357-15.863-35.357-35.357V306.427H0v153.214
			c0,24.102,14.579,44.81,35.357,53.932v146.425h23.572V518.57h117.857v129.642c0,6.506,5.28,11.786,11.786,11.786H247.5V459.641
			h165v200.358h58.928c6.506,0,11.785-5.281,11.785-11.786V518.57h117.857v141.429h23.571V513.573
			c20.778-9.122,35.357-29.83,35.357-53.932V306.427H636.428z M271.071,436.07H141.428v-70.714h-23.572v82.5
			c0,6.505,5.28,11.785,11.786,11.785h82.5c6.494,0,11.785,5.292,11.785,11.786v165.001h-23.572V506.784
			c0-6.506-5.28-11.786-11.786-11.786H82.5V365.356c0-19.495,15.864-35.358,35.357-35.358H165v70.714
			c0,6.506,5.28,11.786,11.785,11.786h94.286V436.07z M577.5,494.998H471.428c-6.505,0-11.786,5.28-11.786,11.786v129.643h-23.571
			V471.427c0-6.494,5.291-11.786,11.786-11.786h82.5c6.506,0,11.785-5.279,11.785-11.785v-82.5h-23.571v70.714H388.928v-23.571
			h94.285c6.506,0,11.786-5.28,11.786-11.786v-70.714h47.143c19.494,0,35.357,15.863,35.357,35.358V494.998z M223.928,117.856
			v35.357c0,5.08,3.241,9.571,8.062,11.184c1.225,0.402,2.487,0.602,3.724,0.602c3.642,0,7.154-1.697,9.429-4.714l31.821-42.428
			h88.393c19.493,0,35.357-15.864,35.357-35.357V35.356c0-19.493-15.864-35.357-35.357-35.357H223.928
			c-19.494,0-35.357,15.864-35.357,35.357v47.143C188.571,101.993,204.435,117.856,223.928,117.856z M212.143,35.356
			c0-6.494,5.291-11.785,11.785-11.785h141.429c6.494,0,11.785,5.292,11.785,11.785v47.143c0,6.494-5.291,11.785-11.785,11.785
			h-94.286c-3.713,0-7.201,1.744-9.429,4.715L247.5,117.856V106.07c0-6.506-5.28-11.786-11.786-11.786h-11.786
			c-6.494,0-11.785-5.291-11.785-11.785V35.356z M353.571,47.142H235.714v23.572h117.857V47.142z M318.214,318.213h70.715v-23.571
			h-70.715V318.213z M306.428,247.499c-19.494,0-35.357,15.863-35.357,35.357v47.143c0,19.494,15.864,35.358,35.357,35.358h94.285
			c19.494,0,35.357-15.864,35.357-35.358v-8.214l21.592-32.387c2.416-3.619,2.64-8.262,0.589-12.093
			c-2.05-3.841-6.046-6.234-10.395-6.234h-13.801c-4.868-13.718-17.973-23.571-33.342-23.571H306.428z M412.5,282.856
			c0,6.506,5.28,11.786,11.786,11.786h1.544l-11.35,17.029c-1.285,1.933-1.98,4.22-1.98,6.542v11.785
			c0,6.494-5.292,11.786-11.786,11.786h-94.285c-6.494,0-11.786-5.292-11.786-11.786v-47.143c0-6.494,5.292-11.786,11.786-11.786
			h94.285C407.208,271.07,412.5,276.362,412.5,282.856z M294.642,188.57h-23.571v23.571h23.571V188.57z M318.214,188.57v23.571
			h23.572V188.57H318.214z M365.357,188.57v23.571h23.571V188.57H365.357z"/>
	</g>
</g>
</svg>
