<?xml version="1.0" encoding="UTF-8" standalone="no"?>
<!-- Generator: Adobe Illustrator 17.0.0, SVG Export Plug-In . SVG Version: 6.00 Build 0)  -->

<svg
   xmlns:dc="http://purl.org/dc/elements/1.1/"
   xmlns:cc="http://creativecommons.org/ns#"
   xmlns:rdf="http://www.w3.org/1999/02/22-rdf-syntax-ns#"
   xmlns:svg="http://www.w3.org/2000/svg"
   xmlns="http://www.w3.org/2000/svg"
   xmlns:sodipodi="http://sodipodi.sourceforge.net/DTD/sodipodi-0.dtd"
   xmlns:inkscape="http://www.inkscape.org/namespaces/inkscape"
   version="1.1"
   id="Forma_7_xA0_Image_1_"
   x="0px"
   y="0px"
   width="1557.697"
   height="1370.2982"
   viewBox="0 0 1557.697 1370.2982"
   enable-background="new 0 0 1393 1246"
   xml:space="preserve"
   inkscape:version="0.91 r13725"
   sodipodi:docname="icon-ejes-header.svg"><metadata
     id="metadata8"><rdf:RDF><cc:Work
         rdf:about=""><dc:format>image/svg+xml</dc:format><dc:type
           rdf:resource="http://purl.org/dc/dcmitype/StillImage" /><dc:title></dc:title></cc:Work></rdf:RDF></metadata><defs
     id="defs6" /><sodipodi:namedview
     pagecolor="#ffffff"
     bordercolor="#666666"
     borderopacity="1"
     objecttolerance="10"
     gridtolerance="10"
     guidetolerance="10"
     inkscape:pageopacity="0"
     inkscape:pageshadow="2"
     inkscape:window-width="1366"
     inkscape:window-height="747"
     id="namedview4"
     showgrid="false"
     fit-margin-top="0"
     fit-margin-left="0"
     fit-margin-right="0"
     fit-margin-bottom="0"
     inkscape:zoom="0.47052786"
     inkscape:cx="722.00327"
     inkscape:cy="487.30002"
     inkscape:window-x="0"
     inkscape:window-y="21"
     inkscape:window-maximized="1"
     inkscape:current-layer="layer1" /><g
     inkscape:groupmode="layer"
     id="layer1"
     inkscape:label="Layer 1"
     style="display:inline"
     transform="translate(1.25e-6,-0.64627508)"><path
       d="m 799.21629,880.4753 0,0 c -22.98537,0 -44.96352,-9.10367 -61.20359,-25.26802 L 514.39932,632.27523 c -33.81257,-33.69071 -33.81257,-88.25889 0,-121.94959 33.79531,-33.67279 88.57887,-33.67279 122.37275,0 L 799.21629,672.27395 1409.9117,63.690863 c 33.8126,-33.690701 88.5775,-33.690701 122.4259,0 33.8126,33.636943 33.8126,88.258887 0,121.949597 L 860.4214,855.20728 c -16.24157,16.20025 -38.20104,25.26802 -61.20511,25.26802"
       style="fill:#82c9cd;fill-opacity:1;fill-rule:evenodd;stroke:none;stroke-width:0;stroke-miterlimit:4;stroke-dasharray:none;stroke-opacity:1"
       id="path32"
       inkscape:connector-curvature="0" /><path
       d="m 1440.5747,732.18249 c 0,-47.63289 -38.7579,-86.23385 -86.5458,-86.23385 -24.1897,0 -46.0068,9.928 -61.7073,25.87731 L 1292.077,671.57509 799.15013,1162.7244 248.79651,614.37256 c -101.09527,-100.83914 -101.09527,-264.84834 0,-365.59788 48.92033,-48.77984 114.01025,-75.64279 183.32603,-75.64279 69.31577,0 134.49491,26.8988 183.50444,75.75031 l 122.39146,121.78831 c 33.82978,33.6011 88.59608,33.65486 122.40869,-0.0358 L 982.67332,248.77472 c 49.40658,-49.2637 117.46338,-73.65361 185.34038,-73.15184 l 0,-0.21505 c 47.5347,-1.09315 85.7716,-39.65825 85.7716,-87.27325 0,-48.3139 -39.3161,-87.48830492 -87.8047,-87.48830492 0,0 -0.1439,0.0186115 -0.2158,0.0186115 C 1050.2984,0.73659815 941.88239,45.52011 860.26457,126.8079 l -61.11444,60.89415 -61.13169,-60.82247 C 656.29271,45.484272 547.66082,0.64696309 432.12254,0.64696309 c -115.53829,0 -224.06226,44.80146991 -305.71603,126.14301691 -168.542015,168.07717 -168.542015,441.49156 0,609.515 l 611.55724,609.37152 c 16.90629,16.8274 39.04709,25.268 61.18638,25.268 22.158,0 44.2801,-8.4406 61.18641,-25.268 L 1413.0642,794.94115 c 16.8531,-15.7343 27.5176,-37.9379 27.5176,-62.75795"
       style="fill:#82c9cd;fill-opacity:1;fill-rule:evenodd;stroke:none;stroke-width:0;stroke-miterlimit:4;stroke-dasharray:none;stroke-opacity:1"
       id="path36"
       inkscape:connector-curvature="0" /></g></svg>
