<?xml version="1.0" encoding="utf-8"?>
<!-- Generator: Adobe Illustrator 17.0.0, SVG Export Plug-In . SVG Version: 6.00 Build 0)  -->
<!DOCTYPE svg PUBLIC "-//W3C//DTD SVG 1.1//EN" "http://www.w3.org/Graphics/SVG/1.1/DTD/svg11.dtd">
<svg version="1.1" id="Shape_1_1_" xmlns="http://www.w3.org/2000/svg" xmlns:xlink="http://www.w3.org/1999/xlink" x="0px" y="0px"
	 width="608px" height="792px" viewBox="0 0 608 792" enable-background="new 0 0 608 792" xml:space="preserve">
<g id="Shape_1">
	<g>
		<path fill-rule="evenodd" clip-rule="evenodd" fill="#EEEEEE" d="M604.114,122.654L485.184,3.881
			C482.792,1.478,479.487,0,475.826,0H66.087C29.646,0,0,29.607,0,66v660c0,36.392,29.646,66,66.087,66h475.826
			c36.44,0,66.087-29.608,66.087-66V132C608,128.343,606.52,125.044,604.114,122.654z M489.043,45.065l73.832,73.735h-73.832V45.065
			z M581.565,726c0,21.833-17.791,39.6-39.652,39.6H66.087c-21.862,0-39.652-17.767-39.652-39.6V66
			c0-21.833,17.791-39.6,39.652-39.6h396.522V132c0,7.3,5.922,13.2,13.218,13.2h105.739V726z M118.956,184.8
			c-29.157,0-52.869,23.681-52.869,52.8c0,29.119,23.712,52.8,52.869,52.8c29.158,0,52.87-23.681,52.87-52.8
			C171.826,208.481,148.114,184.8,118.956,184.8z M118.956,264c-14.579,0-26.435-11.841-26.435-26.4
			c0-14.56,11.856-26.4,26.435-26.4c14.579,0,26.435,11.841,26.435,26.4C145.391,252.159,133.535,264,118.956,264z M118.956,330
			c-29.157,0-52.869,23.681-52.869,52.8c0,29.119,23.712,52.8,52.869,52.8c29.158,0,52.87-23.681,52.87-52.8
			C171.826,353.681,148.114,330,118.956,330z M118.956,409.2c-14.579,0-26.435-11.84-26.435-26.4c0-14.56,11.856-26.4,26.435-26.4
			c14.579,0,26.435,11.84,26.435,26.4C145.391,397.359,133.535,409.2,118.956,409.2z M118.956,475.2
			c-29.157,0-52.869,23.681-52.869,52.8c0,29.119,23.712,52.8,52.869,52.8c29.158,0,52.87-23.681,52.87-52.8
			C171.826,498.88,148.114,475.2,118.956,475.2z M118.956,554.4c-14.579,0-26.435-11.84-26.435-26.4
			c0-14.56,11.856-26.4,26.435-26.4c14.579,0,26.435,11.84,26.435,26.4C145.391,542.559,133.535,554.4,118.956,554.4z
			 M118.956,620.4c-29.157,0-52.869,23.681-52.869,52.8c0,29.119,23.712,52.8,52.869,52.8c29.158,0,52.87-23.681,52.87-52.8
			C171.826,644.081,148.114,620.4,118.956,620.4z M118.956,699.6c-14.579,0-26.435-11.841-26.435-26.4
			c0-14.56,11.856-26.4,26.435-26.4c14.579,0,26.435,11.84,26.435,26.4C145.391,687.759,133.535,699.6,118.956,699.6z
			 M198.261,277.2h343.652v-26.4H198.261V277.2z M396.521,66H211.478v26.4h185.043V66z M436.174,118.8H171.826v26.4h264.348V118.8z
			 M198.261,422.4h343.652V396H198.261V422.4z M198.261,567.6h343.652v-26.4H198.261V567.6z M198.261,712.8h343.652v-26.4H198.261
			V712.8z M330.434,224.4V198H304v26.4H330.434z M277.565,224.4V198H251.13v26.4H277.565z M224.695,224.4V198h-26.435v26.4H224.695z
			"/>
	</g>
</g>
</svg>
