<?xml version="1.0" encoding="utf-8"?>
<!-- Generator: Adobe Illustrator 17.0.0, SVG Export Plug-In . SVG Version: 6.00 Build 0)  -->
<!DOCTYPE svg PUBLIC "-//W3C//DTD SVG 1.1//EN" "http://www.w3.org/Graphics/SVG/1.1/DTD/svg11.dtd">
<svg version="1.1" id="Forma_4_1_" xmlns="http://www.w3.org/2000/svg" xmlns:xlink="http://www.w3.org/1999/xlink" x="0px" y="0px"
	 width="520px" height="649px" viewBox="0 0 520 649" enable-background="new 0 0 520 649" xml:space="preserve">
<g id="Forma_4">
	<g>
		<path fill-rule="evenodd" clip-rule="evenodd" fill="#C5ECF0" d="M74.674,159.877c0-5.612-4.559-10.162-10.183-10.162
			c-5.624,0-10.183,4.551-10.183,10.162c0,16.205,13.677,29.406,32.585,32.935v1.615c0,5.612,4.559,10.162,10.183,10.162
			c5.624,0,10.183-4.55,10.183-10.162v-1.615c18.907-3.531,32.585-16.732,32.585-32.935c0-22.642-18.12-32.157-32.585-37.634V86.931
			c7.503,2.454,12.219,7.394,12.219,11.974c0,5.612,4.559,10.161,10.183,10.161c5.624,0,10.183-4.549,10.183-10.161
			c0-16.205-13.678-29.406-32.585-32.935v-1.615c0-5.612-4.559-10.161-10.183-10.161c-5.624,0-10.183,4.55-10.183,10.161v1.615
			c-18.908,3.531-32.585,16.731-32.585,32.935c0,22.642,18.12,32.158,32.585,37.634v35.311
			C79.39,169.398,74.674,164.458,74.674,159.877z M107.258,144.414c10.151,4.966,12.219,9.301,12.219,15.464
			c0,4.58-4.716,9.521-12.219,11.974V144.414z M74.674,98.906c0-4.58,4.716-9.521,12.219-11.974v27.438
			C76.741,109.404,74.674,105.068,74.674,98.906z M173.107,96.197H260c5.624,0,10.183-4.55,10.183-10.162
			c0-5.613-4.559-10.162-10.183-10.162h-86.893c-5.624,0-10.183,4.55-10.183,10.162C162.924,91.647,167.483,96.197,173.107,96.197z
			 M173.107,182.91h10.862c5.624,0,10.183-4.549,10.183-10.162c0-5.612-4.559-10.161-10.183-10.161h-10.862
			c-5.624,0-10.183,4.55-10.183,10.161C162.924,178.361,167.483,182.91,173.107,182.91z M378.799,248.622
			c0-5.612-4.559-10.162-10.183-10.162H64.491c-5.624,0-10.183,4.55-10.183,10.162c0,5.612,4.559,10.161,10.183,10.161h304.125
			C374.24,258.783,378.799,254.234,378.799,248.622z M162.245,303.496H129.66c-5.624,0-10.183,4.549-10.183,10.162
			c0,5.612,4.559,10.161,10.183,10.161h32.585c5.624,0,10.183-4.55,10.183-10.161C172.428,308.045,167.869,303.496,162.245,303.496z
			 M86.214,303.496H64.491c-5.624,0-10.183,4.549-10.183,10.162c0,5.612,4.559,10.161,10.183,10.161h21.723
			c5.624,0,10.183-4.55,10.183-10.161C96.397,308.045,91.838,303.496,86.214,303.496z M162.245,346.852H129.66
			c-5.624,0-10.183,4.55-10.183,10.162c0,5.612,4.559,10.162,10.183,10.162h32.585c5.624,0,10.183-4.55,10.183-10.162
			C172.428,351.402,167.869,346.852,162.245,346.852z M86.214,346.852H64.491c-5.624,0-10.183,4.55-10.183,10.162
			c0,5.612,4.559,10.162,10.183,10.162h21.723c5.624,0,10.183-4.55,10.183-10.162C96.397,351.402,91.838,346.852,86.214,346.852z
			 M162.245,390.21H129.66c-5.624,0-10.183,4.55-10.183,10.162c0,5.612,4.559,10.162,10.183,10.162h32.585
			c5.624,0,10.183-4.55,10.183-10.162C172.428,394.76,167.869,390.21,162.245,390.21z M86.214,390.21H64.491
			c-5.624,0-10.183,4.55-10.183,10.162c0,5.612,4.559,10.162,10.183,10.162h21.723c5.624,0,10.183-4.55,10.183-10.162
			C96.397,394.76,91.838,390.21,86.214,390.21z M162.245,433.567H129.66c-5.624,0-10.183,4.55-10.183,10.162
			s4.559,10.162,10.183,10.162h32.585c5.624,0,10.183-4.55,10.183-10.162S167.869,433.567,162.245,433.567z M86.214,433.567H64.491
			c-5.624,0-10.183,4.55-10.183,10.162s4.559,10.162,10.183,10.162h21.723c5.624,0,10.183-4.55,10.183-10.162
			S91.838,433.567,86.214,433.567z M162.245,476.925H129.66c-5.624,0-10.183,4.55-10.183,10.162c0,5.612,4.559,10.162,10.183,10.162
			h32.585c5.624,0,10.183-4.55,10.183-10.162C172.428,481.474,167.869,476.925,162.245,476.925z M86.214,476.925H64.491
			c-5.624,0-10.183,4.55-10.183,10.162c0,5.612,4.559,10.162,10.183,10.162h21.723c5.624,0,10.183-4.55,10.183-10.162
			C96.397,481.474,91.838,476.925,86.214,476.925z M271.54,172.748c0,5.613,4.559,10.162,10.183,10.162h10.862
			c5.624,0,10.183-4.549,10.183-10.162c0-5.612-4.559-10.161-10.183-10.161h-10.862C276.1,162.587,271.54,167.137,271.54,172.748z
			 M336.031,182.91h10.862c5.624,0,10.183-4.549,10.183-10.162c0-5.612-4.559-10.161-10.183-10.161h-10.862
			c-5.624,0-10.182,4.55-10.182,10.161C325.849,178.361,330.407,182.91,336.031,182.91z M227.415,162.587
			c-5.624,0-10.183,4.55-10.183,10.161c0,5.613,4.559,10.162,10.183,10.162h10.862c5.624,0,10.183-4.549,10.183-10.162
			c0-5.612-4.559-10.161-10.183-10.161H227.415z M173.107,139.553h108.616c5.624,0,10.183-4.549,10.183-10.161
			c0-5.613-4.559-10.162-10.183-10.162H173.107c-5.624,0-10.183,4.549-10.183,10.162
			C162.924,135.004,167.483,139.553,173.107,139.553z M477.232,281.817h-44.125V118.552c0-2.695-1.073-5.279-2.983-7.185
			L321.508,2.974c-1.909-1.907-4.499-2.977-7.2-2.977H31.906C14.313-0.003,0,14.281,0,31.838v520.285
			c0,17.557,14.313,31.841,31.906,31.841h163.603v22.356c0,23.534,19.186,42.679,42.768,42.679h238.956
			c23.582,0,42.768-19.146,42.768-42.679V324.496C520,300.963,500.814,281.817,477.232,281.817z M324.491,34.691l73.851,73.699
			h-51.449c-12.352,0-22.402-10.029-22.402-22.356V34.691z M195.509,324.496v239.143H31.906c-6.363,0-11.541-5.166-11.541-11.517
			V31.838c0-6.35,5.177-11.518,11.541-11.518h272.219v65.715c0,23.533,19.185,42.68,42.768,42.68h65.848v153.103H238.276
			C214.695,281.817,195.509,300.963,195.509,324.496z M499.634,606.319c0,12.327-10.05,22.355-22.402,22.355H238.276
			c-12.352,0-22.402-10.029-22.402-22.355V324.496c0-12.326,10.05-22.356,22.402-22.356h238.956
			c12.352,0,22.402,10.03,22.402,22.356V606.319z M455.509,325.174H260c-11.604,0-21.044,9.42-21.044,21.001v43.357
			c0,11.581,9.44,21.001,21.044,21.001h195.509c11.604,0,21.044-9.42,21.044-21.001v-43.357
			C476.553,334.595,467.113,325.174,455.509,325.174z M456.188,389.533c0,0.373-0.304,0.677-0.679,0.677H260
			c-0.375,0-0.679-0.304-0.679-0.677v-43.357c0-0.374,0.304-0.678,0.679-0.678h195.509c0.375,0,0.679,0.304,0.679,0.678V389.533z
			 M281.723,444.407H260c-11.604,0-21.044,9.42-21.044,21.001v21.678c0,11.58,9.44,21.001,21.044,21.001h21.723
			c11.604,0,21.044-9.421,21.044-21.001v-21.678C302.767,453.828,293.327,444.407,281.723,444.407z M282.402,487.087
			c0,0.374-0.304,0.677-0.679,0.677H260c-0.375,0-0.679-0.303-0.679-0.677v-21.678c0-0.374,0.304-0.678,0.679-0.678h21.723
			c0.375,0,0.679,0.303,0.679,0.678V487.087z M455.509,444.407h-21.723c-11.604,0-21.044,9.42-21.044,21.001v21.678
			c0,11.58,9.44,21.001,21.044,21.001h21.723c11.604,0,21.044-9.421,21.044-21.001v-21.678
			C476.553,453.828,467.113,444.407,455.509,444.407z M456.188,487.087c0,0.374-0.304,0.677-0.679,0.677h-21.723
			c-0.375,0-0.679-0.303-0.679-0.677v-21.678c0-0.374,0.304-0.678,0.679-0.678h21.723c0.375,0,0.679,0.303,0.679,0.678V487.087z
			 M368.616,444.407h-21.723c-11.604,0-21.044,9.42-21.044,21.001v21.678c0,11.58,9.44,21.001,21.044,21.001h21.723
			c11.604,0,21.044-9.421,21.044-21.001v-21.678C389.66,453.828,380.22,444.407,368.616,444.407z M369.295,487.087
			c0,0.374-0.304,0.677-0.679,0.677h-21.723c-0.375,0-0.679-0.303-0.679-0.677v-21.678c0-0.374,0.304-0.678,0.679-0.678h21.723
			c0.375,0,0.679,0.303,0.679,0.678V487.087z M281.723,531.121H260c-11.604,0-21.044,9.42-21.044,21.001v21.678
			c0,11.581,9.44,21.001,21.044,21.001h21.723c11.604,0,21.044-9.42,21.044-21.001v-21.678
			C302.767,540.541,293.327,531.121,281.723,531.121z M282.402,573.801c0,0.374-0.304,0.678-0.679,0.678H260
			c-0.375,0-0.679-0.303-0.679-0.678v-21.678c0-0.374,0.304-0.678,0.679-0.678h21.723c0.375,0,0.679,0.303,0.679,0.678V573.801z
			 M455.509,531.121h-21.723c-11.604,0-21.044,9.42-21.044,21.001v21.678c0,11.581,9.44,21.001,21.044,21.001h21.723
			c11.604,0,21.044-9.42,21.044-21.001v-21.678C476.553,540.541,467.113,531.121,455.509,531.121z M456.188,573.801
			c0,0.374-0.304,0.678-0.679,0.678h-21.723c-0.375,0-0.679-0.303-0.679-0.678v-21.678c0-0.374,0.304-0.678,0.679-0.678h21.723
			c0.375,0,0.679,0.303,0.679,0.678V573.801z M368.616,531.121h-21.723c-11.604,0-21.044,9.42-21.044,21.001v21.678
			c0,11.581,9.44,21.001,21.044,21.001h21.723c11.604,0,21.044-9.42,21.044-21.001v-21.678
			C389.66,540.541,380.22,531.121,368.616,531.121z M369.295,573.801c0,0.374-0.304,0.678-0.679,0.678h-21.723
			c-0.375,0-0.679-0.303-0.679-0.678v-21.678c0-0.374,0.304-0.678,0.679-0.678h21.723c0.375,0,0.679,0.303,0.679,0.678V573.801z"/>
	</g>
</g>
</svg>
