<?xml version="1.0" encoding="utf-8"?>
<!-- Generator: Adobe Illustrator 17.0.0, SVG Export Plug-In . SVG Version: 6.00 Build 0)  -->
<!DOCTYPE svg PUBLIC "-//W3C//DTD SVG 1.1//EN" "http://www.w3.org/Graphics/SVG/1.1/DTD/svg11.dtd">
<svg version="1.1" id="Rectángulo_5_copia_7_1_" xmlns="http://www.w3.org/2000/svg" xmlns:xlink="http://www.w3.org/1999/xlink"
	 x="0px" y="0px" width="1620px" height="521px" viewBox="0 0 1620 521" enable-background="new 0 0 1620 521" xml:space="preserve"
	>
<g id="Rectángulo_5_copia_7">
	<g>
		<path fill-rule="evenodd" clip-rule="evenodd" fill="#FFFFFF" d="M818.66,275.887c-32.491,0-55.178,22.688-55.178,55.177v9.196
			c0,44.694,25.272,73.571,64.374,73.571c39.104,0,64.375-28.877,64.375-73.571v-9.196c0-32.49-22.696-55.177-55.179-55.177H818.66z
			 M873.838,331.065v9.196c0,16.59-4.487,55.178-45.983,55.178c-41.504,0-45.982-38.588-45.982-55.178v-9.196
			c0-22.347,14.438-36.784,36.785-36.784h18.394C859.391,294.28,873.838,308.718,873.838,331.065z M809.74,331.065h-0.101
			c-5.068,0-9.141,4.121-9.141,9.196c0,5.077,4.157,9.196,9.242,9.196c5.076,0,9.196-4.12,9.196-9.196
			C818.936,335.185,814.815,331.065,809.74,331.065z M854.738,211.485c5.123,0.331,9.49-3.402,9.877-8.461l9.188-119.405
			c2.041-21.887,31.461-46.837,55.215-46.837h18.392c24.205,0,53.615,24.848,55.207,46.69l9.196,119.551
			c0.367,4.818,4.396,8.488,9.159,8.488c0.23,0,0.479-0.009,0.718-0.028c5.058-0.386,8.847-4.81,8.461-9.877l-9.196-119.514
			c-2.456-33.703-43.178-63.702-73.545-63.702h-18.393c-33.475,0-70.582,32.058-73.544,63.666l-9.196,119.551
			C845.891,206.676,849.679,211.1,854.738,211.485z M937.736,79.86c-1.251-3.761-4.763-6.29-8.719-6.29
			c-3.964,0-7.477,2.529-8.727,6.29c-6.907,20.738-27.258,21.29-28.058,21.299c-5.086,0-9.196,4.12-9.196,9.196v36.785
			c0,30.715,20.986,73.571,55.178,73.571c34.183,0,55.179-42.855,55.179-73.571v-36.785c0-5.076-4.12-9.196-9.196-9.196
			C983.8,101.158,944.651,100.578,937.736,79.86z M975.001,147.14h-0.001c0,24.996-16.406,55.177-36.786,55.177
			c-20.379,0-36.785-30.182-36.785-55.177v-28.711c9.003-2.041,20.122-7.173,28.289-17.62
			c12.875,12.883,33.429,16.912,45.283,18.172V147.14z M717.5,91.962h9.196c5.076,0,9.196-4.12,9.196-9.196
			c0-5.076-4.12-9.196-9.196-9.196H717.5c-5.086,0-9.196,4.12-9.196,9.196C708.302,87.842,712.414,91.962,717.5,91.962z
			 M846.525,349.458c5.076,0,9.196-4.12,9.196-9.196c0-5.076-4.12-9.196-9.196-9.196h-0.101c-5.067,0-9.141,4.12-9.141,9.196
			C837.283,345.338,841.439,349.458,846.525,349.458z M625.885,108.084c1.757,17.675,9.445,33.235,9.812,33.971
			c8.332,16.673,20.94,41.871,63.409,41.871c42.469,0,55.069-25.198,63.401-41.871c0.367-0.736,8.056-16.295,9.822-33.971
			c5.684-3.127,9.546-9.188,9.546-16.121V73.569c0-6.796-3.706-12.737-9.196-15.918v-2.473C772.679,24.747,747.922,0,717.501,0
			h-36.786c-30.431,0-55.179,24.747-55.179,55.177v2.473c-5.502,3.181-9.198,9.122-9.198,15.918v18.393
			C616.339,98.896,620.201,104.956,625.885,108.084z M634.73,73.569h0.001c5.076,0,9.196-4.12,9.196-9.196v-9.196
			c0-20.288,16.498-36.785,36.785-36.785h36.785c20.288,0,36.785,16.498,36.785,36.785v9.196c0,5.076,4.11,9.196,9.196,9.196v18.393
			c-5.086,0-9.196,4.12-9.196,9.196c0,15.91-8.147,32.518-8.23,32.674c-9.573,19.147-18.016,31.7-46.948,31.7
			c-28.941,0-37.384-12.553-46.948-31.691c-0.092-0.166-8.23-16.774-8.23-32.683c0-5.076-4.12-9.196-9.196-9.196V73.569z
			 M855.446,423.028c-1.821,0-3.596,0.542-5.104,1.545l-22.485,14.989l-22.495-14.991c-1.508-1.002-3.283-1.545-5.095-1.545
			c-53.201,0-64.375,25.004-64.375,45.982c0,0.616,0.063,1.217,0.178,1.8v7.399h18.348v-12.236h-0.065
			c0.522-8.637,4.984-23.835,43.162-24.533l25.235,16.829c3.09,2.06,7.109,2.06,10.198,0l25.244-16.829
			c38.178,0.698,42.64,15.896,43.162,24.533h-0.185v12.236h18.348v-6.912c0.188-0.732,0.299-1.496,0.299-2.287
			C919.821,448.033,908.647,423.028,855.446,423.028z M1021.589,312.673h-0.037c-5.067,0-9.177,4.092-9.196,9.159l-0.57,147.14
			c-0.002,0.632,0.059,1.249,0.178,1.845v7.39h18.348v-30.557h-0.051l0.487-125.744
			C1030.766,316.83,1026.674,312.691,1021.589,312.673z M671.517,91.962h9.196c5.076,0,9.196-4.12,9.196-9.196
			c0-5.076-4.12-9.196-9.196-9.196h-9.196c-5.086,0-9.196,4.12-9.196,9.196C662.321,87.842,666.431,91.962,671.517,91.962z
			 M744.905,259.307l7.697-38.403c46.433,1.049,79.853,12.617,90.097,31.433c2.419,4.461,7.983,6.106,12.47,3.678
			c4.461-2.428,6.106-8.011,3.678-12.47c-14.429-26.522-54.618-41.107-113.171-41.107c-4.571-0.083-8.7,2.897-9.61,7.385
			l-9.196,45.862c-0.994,4.984,2.225,9.831,7.21,10.824c0.617,0.128,1.214,0.184,1.821,0.184
			C740.196,266.691,744.022,263.675,744.905,259.307z M699.106,202.317c-10.143,0-18.393,8.249-18.393,18.393
			c0,6.778,3.724,12.645,9.196,15.836v66.931c0,5.076,4.11,9.196,9.196,9.196c5.076,0,9.196-4.12,9.196-9.196v-66.931
			c5.463-3.191,9.196-9.058,9.196-15.836C717.5,210.566,709.241,202.317,699.106,202.317z M597.945,312.673
			c-5.086,0-9.196,4.12-9.196,9.196v144.102h-0.134v12.236h18.348v-7.408c0.115-0.579,0.177-1.177,0.177-1.79v-147.14
			C607.142,316.793,603.022,312.673,597.945,312.673z M662.118,209.757c-0.919-4.469-5.251-7.311-9.619-7.321
			c-48.31,0-85.261,10.346-104.103,29.143c-9.831,9.822-14.825,21.64-14.825,35.112v22.729c-1.378-1.628-2.813-3.217-4.336-4.738
			c-18.024-17.988-45.108-27.488-78.335-27.488c-5.315,0.101-9.445,4.019-9.472,9.169c-0.01,1.876-0.653,45.899-36.785,45.899
			c-36.142,0-36.777-44.014-36.785-45.889c-0.01-5.067-4.129-9.168-9.196-9.168c-5.086,0-9.196,4.11-9.196,9.195
			c0,20.564,9.932,58.02,45.983,63.51v46.726c0,5.076,4.11,9.196,9.196,9.196c5.076,0,9.196-4.12,9.196-9.196v-46.736
			c31.038-4.736,42.727-33.134,45.357-54.083c24.398,1.37,43.995,8.856,57.036,21.887c11.073,11.045,17.16,26.007,17.16,42.146
			v147.14c0,0.298,0.017,0.593,0.045,0.884v26.708h18.348v-30.557h0v-5.817h0.135v-26.734c0.026-0.282,0.043-0.567,0.043-0.857
			V266.691c0-8.534,3.09-15.762,9.427-22.099c14.328-14.299,44.805-22.807,84.267-23.689l44.447,213.197
			c1.03,4.966,5.922,8.157,10.879,7.127c4.976-1.039,8.167-5.913,7.118-10.88L662.118,209.757z M285.088,312.261
			c-32.491,0-55.179,22.688-55.179,55.177v9.196c0,44.694,25.272,73.571,64.375,73.571c39.104,0,64.375-28.877,64.375-73.571v-9.196
			c0-32.49-22.696-55.177-55.179-55.177H285.088z M340.267,367.439v9.196c0,16.59-4.487,55.177-45.982,55.177
			c-41.504,0-45.983-38.588-45.983-55.177v-9.196c0-22.347,14.438-36.785,36.785-36.785h18.395
			C325.819,330.654,340.267,345.092,340.267,367.439z M276.168,367.439h-0.101c-5.068,0-9.142,4.12-9.142,9.196
			c0,5.076,4.157,9.196,9.243,9.196c5.076,0,9.196-4.12,9.196-9.196C285.364,371.559,281.244,367.439,276.168,367.439z
			 M321.167,247.859c5.122,0.331,9.49-3.402,9.877-8.461l9.187-119.404c2.041-21.887,31.461-46.837,55.215-46.837h18.392
			c24.206,0,53.615,24.848,55.207,46.69l9.196,119.551c0.367,4.818,4.396,8.489,9.159,8.489c0.229,0,0.479-0.009,0.718-0.029
			c5.058-0.385,8.847-4.81,8.461-9.877l-9.196-119.515c-2.456-33.703-43.178-63.701-73.545-63.701h-18.393
			c-33.475,0-70.582,32.058-73.544,63.666l-9.196,119.551C312.32,243.05,316.108,247.474,321.167,247.859z M404.164,116.234
			c-1.251-3.761-4.763-6.29-8.718-6.29c-3.964,0-7.477,2.529-8.728,6.29c-6.907,20.738-27.258,21.29-28.058,21.299
			c-5.086,0-9.196,4.12-9.196,9.195v36.785c0,30.716,20.986,73.571,55.179,73.571c34.183,0,55.179-42.855,55.179-73.571v-36.785
			c0-5.076-4.12-9.195-9.196-9.195C450.229,137.532,411.08,136.952,404.164,116.234z M441.429,183.514h-0.001
			c0,24.996-16.406,55.177-36.785,55.177c-20.379,0-36.785-30.182-36.785-55.177v-28.711c9.003-2.041,20.122-7.173,28.289-17.62
			c12.875,12.883,33.429,16.912,45.283,18.172V183.514z M183.929,128.336h9.196c5.076,0,9.196-4.12,9.196-9.196
			c0-5.076-4.12-9.196-9.196-9.196h-9.196c-5.086,0-9.196,4.12-9.196,9.196C174.731,124.216,178.843,128.336,183.929,128.336z
			 M312.953,385.832c5.076,0,9.196-4.12,9.196-9.196c0-5.076-4.12-9.196-9.196-9.196h-0.101c-5.067,0-9.141,4.12-9.141,9.196
			C303.711,381.711,307.868,385.832,312.953,385.832z M92.313,144.457c1.757,17.675,9.445,33.235,9.813,33.971
			c8.332,16.673,20.94,41.87,63.409,41.87s55.069-25.197,63.401-41.87c0.367-0.736,8.056-16.296,9.822-33.971
			c5.684-3.126,9.546-9.187,9.546-16.121v-18.393c0-6.796-3.707-12.738-9.196-15.919v-2.473c0-30.431-24.757-55.177-55.178-55.177
			h-36.786c-30.431,0-55.179,24.747-55.179,55.177v2.473c-5.502,3.181-9.198,9.123-9.198,15.919v18.393
			C82.767,135.27,86.63,141.33,92.313,144.457z M101.159,109.943h0.001c5.076,0,9.196-4.12,9.196-9.196v-9.196
			c0-20.287,16.499-36.784,36.785-36.784h36.785c20.288,0,36.785,16.498,36.785,36.784v9.196c0,5.076,4.11,9.196,9.196,9.196v18.393
			c-5.086,0-9.196,4.119-9.196,9.196c0,15.91-8.147,32.518-8.23,32.674c-9.573,19.146-18.016,31.699-46.948,31.699
			c-28.941,0-37.383-12.553-46.948-31.69c-0.092-0.166-8.231-16.774-8.231-32.683c0-5.077-4.12-9.196-9.196-9.196V109.943z
			 M321.874,459.402c-1.821,0-3.596,0.543-5.104,1.545l-22.485,14.99l-22.495-14.991c-1.507-1.002-3.283-1.545-5.094-1.545
			c-53.201,0-64.375,25.005-64.375,45.982c0,0.616,0.063,1.217,0.178,1.8v7.399h18.348v-12.236h-0.065
			c0.522-8.636,4.984-23.834,43.162-24.533l25.235,16.829c3.089,2.06,7.108,2.06,10.198,0l25.244-16.829
			c38.178,0.699,42.64,15.896,43.162,24.533H367.6v12.236h18.348v-6.91c0.188-0.733,0.299-1.497,0.299-2.288
			C386.249,484.406,375.076,459.402,321.874,459.402z M488.017,349.047h-0.037c-5.067,0-9.178,4.092-9.196,9.159l-0.57,147.141
			c-0.002,0.631,0.059,1.247,0.178,1.843v7.392h18.349v-30.557h-0.052l0.487-125.744
			C497.195,353.203,493.103,349.065,488.017,349.047z M137.946,128.336h9.196c5.076,0,9.196-4.12,9.196-9.196
			c0-5.076-4.12-9.196-9.196-9.196h-9.196c-5.086,0-9.196,4.12-9.196,9.196C128.75,124.216,132.86,128.336,137.946,128.336z
			 M211.333,295.68l7.697-38.403c46.433,1.049,79.853,12.617,90.097,31.433c2.418,4.461,7.983,6.106,12.47,3.678
			c4.461-2.428,6.107-8.01,3.679-12.47c-14.43-26.521-54.618-41.107-113.171-41.107c-4.57-0.083-8.7,2.897-9.61,7.385l-9.196,45.862
			c-0.994,4.984,2.225,9.831,7.21,10.824c0.617,0.128,1.213,0.184,1.821,0.184C206.625,303.065,210.451,300.049,211.333,295.68z
			 M165.535,238.691c-10.143,0-18.393,8.248-18.393,18.393c0,6.778,3.725,12.644,9.196,15.835v66.931
			c0,5.076,4.11,9.196,9.196,9.196c5.076,0,9.196-4.12,9.196-9.196V272.92c5.463-3.191,9.196-9.058,9.196-15.835
			C183.929,246.94,175.67,238.691,165.535,238.691z M64.374,349.047c-5.086,0-9.196,4.12-9.196,9.196v144.102h-0.133v12.236h18.348
			v-7.408c0.115-0.58,0.177-1.178,0.177-1.791v-147.14C73.571,353.167,69.451,349.047,64.374,349.047z M128.547,246.13
			c-0.919-4.469-5.252-7.311-9.619-7.32c-48.31,0-85.261,10.346-104.103,29.143C4.993,277.775,0,289.593,0,303.065v183.926
			c0,0.002,0,0.004,0,0.006v27.584h18.348v-26.725c0.027-0.285,0.044-0.573,0.044-0.865V303.065c0-8.534,3.09-15.762,9.427-22.099
			c14.328-14.3,44.805-22.807,84.267-23.69l44.447,213.197c1.03,4.966,5.922,8.157,10.88,7.128c4.976-1.039,8.167-5.914,7.118-10.88
			L128.547,246.13z M1353.303,318.68c-32.491,0-55.179,22.688-55.179,55.177v9.196c0,44.694,25.272,73.571,64.375,73.571
			c39.104,0,64.375-28.877,64.375-73.571v-9.196c0-32.49-22.697-55.177-55.179-55.177H1353.303z M1408.481,373.857v9.196
			c0,16.59-4.488,55.178-45.983,55.178c-41.504,0-45.983-38.588-45.983-55.178v-9.196c0-22.347,14.438-36.785,36.785-36.785h18.395
			C1394.034,337.073,1408.481,351.511,1408.481,373.857z M1344.382,373.857h-0.101c-5.068,0-9.141,4.12-9.141,9.196
			c0,5.076,4.157,9.196,9.243,9.196c5.076,0,9.196-4.12,9.196-9.196C1353.578,377.978,1349.458,373.857,1344.382,373.857z
			 M1389.381,254.278c5.122,0.331,9.49-3.402,9.877-8.461l9.188-119.405c2.041-21.887,31.461-46.837,55.215-46.837h18.392
			c24.206,0,53.615,24.848,55.207,46.69l9.196,119.551c0.367,4.818,4.396,8.488,9.159,8.488c0.229,0,0.478-0.009,0.718-0.029
			c5.057-0.385,8.847-4.809,8.461-9.877l-9.196-119.515c-2.456-33.703-43.178-63.701-73.545-63.701h-18.393
			c-33.475,0-70.582,32.058-73.544,63.666l-9.196,119.551C1380.534,249.468,1384.322,253.892,1389.381,254.278z M1472.378,122.652
			c-1.251-3.761-4.763-6.29-8.719-6.29c-3.964,0-7.477,2.529-8.728,6.29c-6.907,20.738-27.258,21.29-28.058,21.299
			c-5.086,0-9.196,4.12-9.196,9.196v36.784c0,30.716,20.986,73.571,55.178,73.571c34.183,0,55.179-42.854,55.179-73.571v-36.784
			c0-5.076-4.12-9.196-9.196-9.196C1518.443,143.951,1479.294,143.371,1472.378,122.652z M1509.643,189.933h-0.001
			c0,24.996-16.406,55.177-36.785,55.177s-36.785-30.182-36.785-55.177v-28.711c9.003-2.041,20.122-7.173,28.289-17.62
			c12.875,12.883,33.429,16.912,45.283,18.172V189.933z M1252.143,134.755h9.196c5.076,0,9.196-4.12,9.196-9.196
			c0-5.076-4.12-9.196-9.196-9.196h-9.196c-5.086,0-9.196,4.12-9.196,9.196C1242.945,130.635,1247.057,134.755,1252.143,134.755z
			 M1381.167,392.25c5.076,0,9.197-4.12,9.197-9.196c0-5.076-4.12-9.195-9.197-9.195h-0.101c-5.067,0-9.141,4.12-9.141,9.195
			C1371.925,388.13,1376.082,392.25,1381.167,392.25z M1160.528,150.876c1.757,17.675,9.445,33.235,9.813,33.971
			c8.332,16.673,20.94,41.871,63.409,41.871c42.469,0,55.069-25.198,63.401-41.871c0.367-0.736,8.056-16.295,9.822-33.971
			c5.684-3.127,9.546-9.188,9.546-16.121v-18.393c0-6.796-3.707-12.737-9.196-15.919V97.97c0-30.431-24.757-55.177-55.178-55.177
			h-36.786c-30.431,0-55.178,24.747-55.178,55.177v2.473c-5.502,3.182-9.198,9.123-9.198,15.919v18.393
			C1150.981,141.689,1154.844,147.749,1160.528,150.876z M1169.374,116.362h0.001c5.076,0,9.196-4.12,9.196-9.196V97.97
			c0-20.287,16.499-36.784,36.785-36.784h36.785c20.288,0,36.785,16.498,36.785,36.784v9.196c0,5.076,4.11,9.196,9.196,9.196v18.393
			c-5.086,0-9.196,4.119-9.196,9.196c0,15.91-8.147,32.518-8.23,32.674c-9.573,19.146-18.016,31.699-46.948,31.699
			c-28.941,0-37.383-12.553-46.948-31.69c-0.092-0.166-8.23-16.774-8.23-32.683c0-5.077-4.12-9.196-9.196-9.196V116.362z
			 M1390.089,465.821c-1.821,0-3.596,0.543-5.104,1.546l-22.485,14.989l-22.495-14.991c-1.508-1.002-3.283-1.545-5.094-1.545
			c-53.201,0-64.375,25.004-64.375,45.982c0,0.616,0.063,1.217,0.178,1.799V521h18.349v-12.236h-0.065
			c0.522-8.637,4.985-23.834,43.162-24.532l25.234,16.829c3.09,2.059,7.109,2.059,10.198,0l25.244-16.829
			c38.177,0.698,42.64,15.896,43.162,24.532h-0.185V521h18.348v-6.91c0.188-0.733,0.299-1.497,0.299-2.288
			C1454.464,490.825,1443.29,465.821,1390.089,465.821z M1556.231,355.466h-0.037c-5.068,0-9.178,4.092-9.196,9.159l-0.57,147.14
			c-0.002,0.631,0.059,1.247,0.178,1.842V521h18.349v-30.556h-0.052l0.487-125.744
			C1565.409,359.622,1561.317,355.484,1556.231,355.466z M1206.16,134.755h9.196c5.076,0,9.196-4.12,9.196-9.196
			c0-5.076-4.12-9.196-9.196-9.196h-9.196c-5.085,0-9.196,4.12-9.196,9.196C1196.964,130.635,1201.074,134.755,1206.16,134.755z
			 M1279.548,302.1l7.697-38.404c46.433,1.049,79.853,12.618,90.097,31.433c2.418,4.461,7.983,6.106,12.47,3.678
			c4.461-2.428,6.107-8.011,3.679-12.47c-14.43-26.522-54.618-41.107-113.171-41.107c-4.57-0.083-8.7,2.897-9.61,7.384
			l-9.196,45.862c-0.994,4.984,2.225,9.83,7.21,10.824c0.617,0.128,1.214,0.184,1.821,0.184
			C1274.839,309.484,1278.665,306.467,1279.548,302.1z M1233.749,245.11c-10.143,0-18.393,8.249-18.393,18.393
			c0,6.777,3.725,12.644,9.196,15.835v66.931c0,5.076,4.11,9.196,9.196,9.196c5.076,0,9.196-4.12,9.196-9.196v-66.931
			c5.463-3.191,9.196-9.058,9.196-15.835C1252.143,253.359,1243.884,245.11,1233.749,245.11z M1132.588,355.466
			c-5.086,0-9.196,4.12-9.196,9.196v144.102h-0.133V521h18.348v-7.408c0.115-0.579,0.177-1.177,0.177-1.79v-147.14
			C1141.785,359.586,1137.665,355.466,1132.588,355.466z M1196.761,252.549c-0.919-4.469-5.252-7.31-9.619-7.32
			c-48.309,0-85.261,10.346-104.103,29.143c-0.782,0.781-1.522,1.58-2.243,2.386c-3.789-10.646-9.868-20.339-17.99-28.449
			c-18.024-17.988-45.108-27.488-78.335-27.488c-5.315,0.101-9.445,4.019-9.472,9.169c-0.01,1.876-0.653,45.899-36.786,45.899
			c-36.142,0-36.776-44.014-36.785-45.889c-0.01-5.067-4.129-9.169-9.196-9.169c-5.086,0-9.196,4.111-9.196,9.196
			c0,20.564,9.932,58.019,45.983,63.51v46.726c0,5.076,4.11,9.196,9.196,9.196c5.076,0,9.196-4.12,9.196-9.196v-46.736
			c31.038-4.737,42.727-33.135,45.356-54.083c24.398,1.37,43.995,8.856,57.036,21.886c11.073,11.046,17.161,26.007,17.161,42.147
			v147.14c0,0.296,0.017,0.588,0.044,0.877v26.715h1.205v15.202c0,0.005,0.001,0.009,0.001,0.013V521h18.348v-26.726
			c0.027-0.285,0.044-0.572,0.044-0.864V309.484c0-8.534,3.09-15.762,9.427-22.099c14.328-14.3,44.804-22.807,84.267-23.69
			l44.447,213.197c1.03,4.966,5.922,8.157,10.88,7.127c4.975-1.039,8.167-5.914,7.118-10.88L1196.761,252.549z M1619.999,490.443
			V346.268c0-21.059-8.01-40.647-22.55-55.167c-18.024-17.988-45.108-27.488-78.335-27.488c-5.315,0.101-9.445,4.019-9.472,9.169
			c-0.01,1.876-0.653,45.899-36.785,45.899c-36.142,0-36.776-44.015-36.785-45.889c-0.01-5.067-4.129-9.169-9.196-9.169
			c-5.086,0-9.196,4.11-9.196,9.196c0,20.563,9.932,58.019,45.983,63.509v46.726c0,5.076,4.11,9.196,9.196,9.196
			c5.076,0,9.196-4.12,9.196-9.196v-46.736c31.038-4.737,42.727-33.135,45.357-54.084c24.398,1.37,43.995,8.856,57.036,21.887
			c11.073,11.045,17.16,26.007,17.16,42.146v147.14c0,0.299,0.017,0.594,0.045,0.885V521H1620L1619.999,490.443L1619.999,490.443z"
			/>
	</g>
</g>
</svg>
