<?xml version="1.0" encoding="utf-8"?>
<!-- Generator: Adobe Illustrator 17.0.0, SVG Export Plug-In . SVG Version: 6.00 Build 0)  -->
<!DOCTYPE svg PUBLIC "-//W3C//DTD SVG 1.1//EN" "http://www.w3.org/Graphics/SVG/1.1/DTD/svg11.dtd">
<svg version="1.1" id="Layer_1" xmlns="http://www.w3.org/2000/svg" xmlns:xlink="http://www.w3.org/1999/xlink" x="0px" y="0px"
	 width="324.514px" height="85.469px" viewBox="0 0 324.514 85.469" enable-background="new 0 0 324.514 85.469"
	 xml:space="preserve">
<g>
	<defs>
		<rect id="SVGID_1_" y="0" width="324.514" height="85.469"/>
	</defs>
	<clipPath id="SVGID_2_">
		<use xlink:href="#SVGID_1_"  overflow="visible"/>
	</clipPath>
	<path clip-path="url(#SVGID_2_)" fill="#504F51" d="M136.228,13.128c-0.243-0.243-0.688-0.574-1.333-0.993
		c-0.644-0.418-1.428-0.826-2.348-1.227c-0.925-0.4-1.925-0.739-3.004-1.018c-1.081-0.278-2.177-0.418-3.29-0.418
		c-1.986,0-3.467,0.366-4.441,1.097c-0.975,0.73-1.461,1.758-1.461,3.081c0,0.766,0.183,1.402,0.547,1.907
		c0.367,0.504,0.897,0.948,1.593,1.331c0.697,0.384,1.576,0.732,2.637,1.045c1.064,0.313,2.29,0.645,3.684,0.992
		c1.81,0.489,3.455,1.011,4.935,1.567c1.48,0.558,2.733,1.254,3.762,2.089c1.026,0.836,1.818,1.838,2.376,3.003
		c0.556,1.168,0.836,2.604,0.836,4.31c0,1.984-0.376,3.682-1.124,5.091c-0.749,1.411-1.759,2.552-3.03,3.422
		c-1.27,0.871-2.733,1.506-4.387,1.907c-1.654,0.399-3.386,0.6-5.196,0.6c-2.787,0-5.537-0.418-8.252-1.253
		c-2.717-0.836-5.155-2.019-7.312-3.552l3.186-6.215c0.313,0.313,0.879,0.722,1.697,1.227c0.816,0.506,1.784,1.01,2.898,1.515
		c1.113,0.505,2.35,0.932,3.709,1.279c1.357,0.349,2.75,0.522,4.178,0.522c3.97,0,5.954-1.27,5.954-3.812
		c0-0.801-0.226-1.48-0.68-2.037c-0.451-0.557-1.096-1.045-1.931-1.463c-0.836-0.418-1.847-0.8-3.03-1.149
		c-1.183-0.347-2.507-0.73-3.97-1.148c-1.775-0.487-3.316-1.019-4.621-1.593c-1.306-0.575-2.394-1.254-3.264-2.037
		c-0.871-0.784-1.524-1.689-1.96-2.717c-0.434-1.026-0.651-2.254-0.651-3.682c0-1.88,0.347-3.552,1.044-5.013
		c0.696-1.463,1.662-2.682,2.897-3.657c1.237-0.974,2.672-1.714,4.311-2.22c1.636-0.504,3.394-0.757,5.274-0.757
		c2.611,0,5.014,0.41,7.208,1.227c2.194,0.819,4.109,1.785,5.745,2.9L136.228,13.128z"/>
	<path clip-path="url(#SVGID_2_)" fill="#504F51" d="M152.94,41.018c-1.324,0-2.559-0.218-3.707-0.652
		c-1.15-0.435-2.142-1.045-2.978-1.829c-0.836-0.783-1.489-1.697-1.958-2.742c-0.471-1.044-0.705-2.193-0.705-3.447
		c0-1.288,0.286-2.481,0.862-3.578c0.575-1.096,1.373-2.027,2.402-2.794c1.027-0.765,2.253-1.366,3.681-1.802
		c1.429-0.435,2.996-0.653,4.702-0.653c1.217,0,2.411,0.105,3.579,0.313c1.165,0.21,2.2,0.506,3.106,0.888v-1.566
		c0-1.81-0.515-3.203-1.542-4.179c-1.026-0.974-2.55-1.462-4.568-1.462c-1.463,0-2.891,0.261-4.283,0.784
		c-1.393,0.522-2.821,1.288-4.284,2.297l-2.14-4.439c3.516-2.333,7.312-3.499,11.386-3.499c3.933,0,6.989,0.966,9.166,2.898
		c2.175,1.933,3.264,4.727,3.264,8.383v8.513c0,0.732,0.13,1.254,0.391,1.567c0.262,0.314,0.688,0.489,1.28,0.522v5.955
		c-1.185,0.243-2.211,0.366-3.082,0.366c-1.324,0-2.342-0.297-3.056-0.888c-0.714-0.592-1.156-1.375-1.33-2.351l-0.156-1.515
		c-1.22,1.602-2.7,2.821-4.441,3.656C156.788,40.6,154.926,41.018,152.94,41.018 M154.926,35.9c1.183,0,2.305-0.209,3.369-0.627
		c1.061-0.418,1.888-0.975,2.48-1.671c0.767-0.592,1.149-1.254,1.149-1.985v-3.133c-0.836-0.314-1.741-0.567-2.716-0.758
		c-0.974-0.191-1.914-0.287-2.819-0.287c-1.812,0-3.293,0.41-4.441,1.227c-1.148,0.818-1.723,1.855-1.723,3.108
		c0,1.184,0.451,2.167,1.359,2.951C152.489,35.508,153.602,35.9,154.926,35.9"/>
	<path clip-path="url(#SVGID_2_)" fill="#504F51" d="M200.888,40.496h-7V25.14c0-2.193-0.382-3.794-1.148-4.804
		c-0.766-1.011-1.827-1.515-3.186-1.515c-0.697,0-1.411,0.139-2.142,0.418c-0.732,0.279-1.42,0.67-2.062,1.175
		c-0.645,0.505-1.229,1.106-1.75,1.801c-0.523,0.697-0.907,1.463-1.15,2.299v15.982h-6.997V13.128h6.318v5.066
		c1.011-1.741,2.472-3.099,4.388-4.074c1.915-0.975,4.074-1.462,6.477-1.462c1.706,0,3.097,0.313,4.178,0.94
		c1.079,0.627,1.914,1.445,2.507,2.454c0.592,1.011,1.001,2.16,1.226,3.448c0.228,1.288,0.341,2.594,0.341,3.917V40.496z"/>
	<path clip-path="url(#SVGID_2_)" fill="#504F51" d="M223.137,39.086c-0.94,0.418-2.088,0.836-3.447,1.253
		c-1.358,0.418-2.787,0.627-4.282,0.627c-0.977,0-1.89-0.123-2.743-0.366c-0.853-0.243-1.602-0.635-2.245-1.175
		c-0.644-0.54-1.159-1.235-1.541-2.089c-0.384-0.853-0.575-1.889-0.575-3.107V18.507h-3.603v-5.38h3.603V4.248h7v8.879h5.745v5.38
		h-5.745v13.371c0,0.976,0.252,1.663,0.757,2.063c0.504,0.4,1.122,0.6,1.854,0.6c0.731,0,1.443-0.121,2.14-0.365
		c0.697-0.244,1.254-0.452,1.673-0.627L223.137,39.086z"/>
	<path clip-path="url(#SVGID_2_)" fill="#504F51" d="M234.263,41.018c-1.324,0-2.559-0.218-3.709-0.652
		c-1.148-0.435-2.14-1.045-2.976-1.829c-0.835-0.783-1.489-1.697-1.96-2.742c-0.469-1.044-0.705-2.193-0.705-3.447
		c0-1.288,0.289-2.481,0.862-3.578c0.575-1.096,1.376-2.027,2.402-2.794c1.027-0.765,2.255-1.366,3.684-1.802
		c1.426-0.435,2.993-0.653,4.701-0.653c1.217,0,2.409,0.105,3.577,0.313c1.165,0.21,2.2,0.506,3.108,0.888v-1.566
		c0-1.81-0.515-3.203-1.541-4.179c-1.027-0.974-2.551-1.462-4.571-1.462c-1.461,0-2.889,0.261-4.283,0.784
		c-1.393,0.522-2.819,1.288-4.282,2.297l-2.142-4.439c3.516-2.333,7.312-3.499,11.386-3.499c3.935,0,6.991,0.966,9.166,2.898
		c2.177,1.933,3.264,4.727,3.264,8.383v8.513c0,0.732,0.133,1.254,0.393,1.567c0.26,0.314,0.686,0.489,1.278,0.522v5.955
		c-1.182,0.243-2.211,0.366-3.079,0.366c-1.324,0-2.342-0.297-3.056-0.888c-0.714-0.592-1.159-1.375-1.333-2.351l-0.156-1.515
		c-1.22,1.602-2.698,2.821-4.439,3.656C238.109,40.6,236.247,41.018,234.263,41.018 M236.247,35.9c1.183,0,2.307-0.209,3.369-0.627
		c1.063-0.418,1.888-0.975,2.48-1.671c0.767-0.592,1.151-1.254,1.151-1.985v-3.133c-0.836-0.314-1.743-0.567-2.718-0.758
		c-0.974-0.191-1.914-0.287-2.819-0.287c-1.81,0-3.291,0.41-4.439,1.227c-1.15,0.818-1.725,1.855-1.725,3.108
		c0,1.184,0.453,2.167,1.359,2.951C233.81,35.508,234.923,35.9,236.247,35.9"/>
	<polygon clip-path="url(#SVGID_2_)" fill="#504F51" points="269.986,40.496 269.986,3.413 294.901,3.413 294.901,9.733
		277.194,9.733 277.194,19.291 291.923,19.291 291.923,25.14 277.194,25.14 277.194,40.496 	"/>
	<path clip-path="url(#SVGID_2_)" fill="#504F51" d="M310.202,41.018c-2.192,0-4.178-0.374-5.953-1.122
		c-1.776-0.749-3.291-1.768-4.545-3.056c-1.253-1.288-2.218-2.786-2.898-4.492c-0.679-1.706-1.018-3.5-1.018-5.379
		c0-1.95,0.33-3.787,0.992-5.511c0.66-1.723,1.619-3.238,2.872-4.544c1.254-1.305,2.776-2.341,4.571-3.107
		c1.792-0.766,3.802-1.149,6.031-1.149c2.229,0,4.222,0.383,5.982,1.149c1.758,0.766,3.253,1.793,4.491,3.081
		c1.235,1.289,2.177,2.786,2.821,4.492c0.643,1.707,0.966,3.482,0.966,5.327c0,0.454-0.009,0.888-0.026,1.306
		c-0.02,0.418-0.061,0.767-0.13,1.045h-21.153c0.104,1.08,0.364,2.037,0.783,2.872c0.417,0.836,0.957,1.55,1.619,2.142
		c0.66,0.592,1.409,1.045,2.245,1.358c0.835,0.313,1.706,0.47,2.613,0.47c1.391,0,2.706-0.34,3.941-1.019
		c1.237-0.678,2.082-1.575,2.533-2.689l6.008,1.671c-1.011,2.089-2.622,3.805-4.831,5.144
		C315.904,40.348,313.267,41.018,310.202,41.018 M317.306,24.514c-0.176-2.054-0.931-3.7-2.272-4.936
		c-1.342-1.236-2.97-1.854-4.884-1.854c-0.94,0-1.819,0.166-2.637,0.496c-0.818,0.332-1.541,0.793-2.168,1.384
		c-0.628,0.593-1.14,1.306-1.541,2.142c-0.4,0.835-0.636,1.759-0.704,2.768H317.306z"/>
	<path clip-path="url(#SVGID_2_)" fill="#504F51" d="M126.305,85.468c-2.403,0-4.545-0.374-6.425-1.122
		c-1.88-0.748-3.455-1.768-4.727-3.056c-1.272-1.288-2.238-2.768-2.898-4.439c-0.662-1.672-0.994-3.43-0.994-5.276
		c0-1.984,0.324-3.864,0.968-5.641c0.643-1.775,1.6-3.324,2.872-4.648c1.272-1.322,2.839-2.376,4.701-3.16
		c1.862-0.783,4.03-1.175,6.503-1.175c2.437,0,4.597,0.392,6.476,1.175c1.88,0.784,3.455,1.829,4.727,3.134
		c1.27,1.306,2.227,2.821,2.872,4.544c0.644,1.724,0.966,3.526,0.966,5.406c0,0.523-0.026,1.053-0.078,1.593
		c-0.053,0.54-0.113,1.019-0.183,1.437h-19.273c0.106,1.461,0.644,2.515,1.619,3.16c0.974,0.644,2.038,0.966,3.186,0.966
		c1.079,0,2.099-0.243,3.056-0.732c0.957-0.487,1.593-1.166,1.906-2.037l8.41,2.403c-1.115,2.193-2.83,3.987-5.146,5.379
		C132.527,84.773,129.682,85.468,126.305,85.468 M130.691,68.285c-0.174-1.323-0.662-2.367-1.463-3.134
		c-0.801-0.765-1.827-1.148-3.08-1.148c-1.254,0-2.281,0.383-3.082,1.148c-0.801,0.767-1.289,1.811-1.463,3.134H130.691z"/>
	<path clip-path="url(#SVGID_2_)" fill="#504F51" d="M155.918,85.469c-2.403,0-4.753-0.392-7.05-1.175
		c-2.298-0.784-4.249-1.923-5.851-3.421l3.397-5.955c1.703,1.15,3.349,2.037,4.935,2.665c1.582,0.626,3.037,0.939,4.361,0.939
		c1.391,0,2.09-0.435,2.09-1.305c0-0.487-0.272-0.905-0.81-1.253c-0.54-0.348-1.593-0.749-3.16-1.202
		c-1.951-0.557-3.579-1.105-4.883-1.645c-1.307-0.539-2.368-1.123-3.187-1.749c-0.818-0.628-1.402-1.323-1.749-2.089
		c-0.35-0.767-0.523-1.672-0.523-2.717c0-1.392,0.278-2.68,0.835-3.865c0.556-1.183,1.333-2.211,2.325-3.081
		c0.992-0.871,2.175-1.541,3.551-2.011c1.376-0.47,2.88-0.706,4.519-0.706c2.018,0,3.943,0.262,5.771,0.784
		c1.827,0.522,3.664,1.585,5.511,3.186l-3.762,5.955c-1.706-1.115-3.134-1.907-4.282-2.377c-1.15-0.47-2.229-0.705-3.238-0.705
		c-0.593,0-1.081,0.114-1.463,0.339c-0.384,0.227-0.575,0.584-0.575,1.07c0,0.524,0.278,0.95,0.835,1.281
		c0.558,0.331,1.654,0.704,3.291,1.122c1.986,0.523,3.657,1.071,5.013,1.645c1.359,0.576,2.447,1.202,3.265,1.881
		c0.818,0.679,1.402,1.446,1.751,2.299c0.348,0.853,0.521,1.836,0.521,2.95c0,1.428-0.26,2.699-0.783,3.813
		c-0.521,1.114-1.279,2.072-2.273,2.872c-0.992,0.802-2.192,1.411-3.603,1.829C159.287,85.261,157.693,85.469,155.918,85.469"/>
	<path clip-path="url(#SVGID_2_)" fill="#504F51" d="M193.836,85.469c-2.403,0-4.753-0.392-7.05-1.175
		c-2.298-0.784-4.249-1.923-5.851-3.421l3.397-5.955c1.703,1.15,3.349,2.037,4.935,2.665c1.582,0.626,3.037,0.939,4.361,0.939
		c1.391,0,2.09-0.435,2.09-1.305c0-0.487-0.272-0.905-0.81-1.253c-0.54-0.348-1.593-0.749-3.16-1.202
		c-1.951-0.557-3.579-1.105-4.883-1.645c-1.307-0.539-2.368-1.123-3.187-1.749c-0.818-0.628-1.402-1.323-1.749-2.089
		c-0.35-0.767-0.523-1.672-0.523-2.717c0-1.392,0.278-2.68,0.835-3.865c0.556-1.183,1.333-2.211,2.325-3.081
		c0.992-0.871,2.175-1.541,3.551-2.011c1.376-0.47,2.88-0.706,4.519-0.706c2.018,0,3.943,0.262,5.771,0.784
		c1.827,0.522,3.664,1.585,5.511,3.186l-3.762,5.955c-1.706-1.115-3.134-1.907-4.282-2.377c-1.15-0.47-2.229-0.705-3.238-0.705
		c-0.593,0-1.081,0.114-1.463,0.339c-0.384,0.227-0.575,0.584-0.575,1.07c0,0.524,0.278,0.95,0.835,1.281
		c0.558,0.331,1.654,0.704,3.291,1.122c1.986,0.523,3.657,1.071,5.013,1.645c1.359,0.576,2.447,1.202,3.265,1.881
		c0.818,0.679,1.402,1.446,1.751,2.299c0.348,0.853,0.521,1.836,0.521,2.95c0,1.428-0.26,2.699-0.783,3.813
		c-0.521,1.114-1.279,2.072-2.273,2.872c-0.992,0.802-2.192,1.411-3.603,1.829C197.205,85.261,195.611,85.469,193.836,85.469"/>
	<path clip-path="url(#SVGID_2_)" fill="#504F51" d="M216.764,85.469c-1.356,0-2.628-0.227-3.811-0.678
		c-1.185-0.453-2.203-1.072-3.056-1.855c-0.853-0.784-1.524-1.715-2.012-2.795c-0.486-1.078-0.732-2.245-0.732-3.498
		c0-1.393,0.298-2.665,0.89-3.814c0.591-1.149,1.409-2.141,2.455-2.977c1.044-0.835,2.288-1.479,3.733-1.932
		c1.446-0.452,3.039-0.679,4.78-0.679c2.226,0,4.073,0.349,5.536,1.044V67.45c0-1.288-0.375-2.246-1.124-2.873
		c-0.749-0.626-1.958-0.94-3.629-0.94c-1.567,0-3.012,0.253-4.334,0.758c-1.324,0.504-2.718,1.245-4.178,2.219l-2.874-6.163
		c3.62-2.332,7.746-3.5,12.378-3.5c4.389,0,7.764,0.976,10.134,2.926c2.366,1.95,3.551,4.875,3.551,8.774v5.327
		c0,0.94,0.139,1.594,0.416,1.959c0.28,0.366,0.767,0.584,1.463,0.654v8.356c-0.801,0.173-1.558,0.304-2.272,0.392
		c-0.714,0.086-1.348,0.13-1.906,0.13c-1.775,0-3.125-0.323-4.048-0.966c-0.922-0.644-1.523-1.593-1.801-2.847l-0.209-0.991
		c-1.219,1.565-2.63,2.759-4.23,3.576C220.28,85.06,218.574,85.469,216.764,85.469 M219.742,78.366c0.59,0,1.2-0.096,1.828-0.288
		c0.627-0.191,1.182-0.443,1.671-0.757c0.384-0.278,0.696-0.583,0.94-0.914c0.243-0.33,0.366-0.669,0.366-1.018v-2.037
		c-0.592-0.209-1.237-0.383-1.934-0.523c-0.696-0.139-1.321-0.208-1.879-0.208c-1.22,0-2.229,0.296-3.03,0.888s-1.2,1.341-1.2,2.245
		c0,0.767,0.304,1.393,0.913,1.881C218.027,78.123,218.802,78.366,219.742,78.366"/>
	<path clip-path="url(#SVGID_2_)" fill="#504F51" d="M239.747,46.819h9.923V74.03c0,2.089,0.853,3.134,2.559,3.134
		c0.417,0,0.871-0.069,1.359-0.209c0.486-0.138,0.94-0.33,1.356-0.575l1.255,7.313c-1.185,0.558-2.516,0.992-3.996,1.305
		c-1.48,0.314-2.882,0.47-4.204,0.47c-2.648,0-4.684-0.678-6.112-2.037c-1.428-1.357-2.14-3.324-2.14-5.901V46.819z"/>
	<path clip-path="url(#SVGID_2_)" fill="#504F51" d="M266.8,85.469c-2.785,0-4.91-0.843-6.37-2.533
		c-1.463-1.689-2.195-4.152-2.195-7.39V57.475h9.924v15.824c0,1.22,0.269,2.16,0.809,2.821c0.541,0.662,1.281,0.993,2.221,0.993
		c0.766,0,1.549-0.174,2.35-0.522c0.801-0.349,1.6-1.115,2.403-2.299V57.475h9.923v16.504c0,0.939,0.139,1.593,0.417,1.958
		c0.28,0.366,0.766,0.584,1.463,0.654v8.356c-1.706,0.347-3.1,0.522-4.178,0.522c-3.378,0-5.327-1.271-5.85-3.812l-0.208-0.992
		c-1.289,1.706-2.822,2.933-4.597,3.682C271.137,85.095,269.098,85.469,266.8,85.469"/>
	<path clip-path="url(#SVGID_2_)" fill="#504F51" d="M303.309,85.468c-1.88,0-3.614-0.348-5.196-1.044
		c-1.587-0.696-2.952-1.68-4.1-2.952c-1.151-1.269-2.047-2.784-2.692-4.543c-0.644-1.757-0.965-3.683-0.965-5.772
		c0-2.018,0.295-3.899,0.887-5.641c0.593-1.74,1.42-3.246,2.481-4.517s2.325-2.263,3.788-2.977c1.462-0.713,3.082-1.071,4.857-1.071
		c1.775,0,3.403,0.401,4.883,1.201c1.479,0.802,2.62,1.933,3.421,3.396V46.819h9.923v27.159c0,0.94,0.139,1.593,0.419,1.959
		c0.278,0.365,0.764,0.584,1.461,0.653v8.356c-1.706,0.347-3.099,0.522-4.178,0.522c-3.377,0-5.326-1.271-5.849-3.812l-0.209-0.992
		c-0.94,1.671-2.212,2.89-3.813,3.655C306.825,85.085,305.119,85.468,303.309,85.468 M306.024,77.112c1.81,0,3.377-0.941,4.701-2.82
		v-4.91c-0.488-1.219-1.2-2.202-2.142-2.951c-0.94-0.749-1.932-1.123-2.976-1.123c-0.731,0-1.402,0.156-2.012,0.47
		c-0.61,0.314-1.131,0.749-1.567,1.305c-0.434,0.558-0.783,1.202-1.044,1.933c-0.26,0.732-0.39,1.515-0.39,2.351
		c0,1.741,0.494,3.133,1.486,4.178C303.074,76.59,304.387,77.112,306.024,77.112"/>
	<path clip-path="url(#SVGID_2_)" fill="#79B4B9" d="M49.382,54.559L49.382,54.559c-1.42,0-2.778-0.564-3.781-1.567L31.783,39.168
		c-2.089-2.089-2.089-5.473,0-7.562c2.088-2.088,5.474-2.088,7.562,0l10.037,10.042L87.115,3.909c2.09-2.089,5.474-2.089,7.564,0
		c2.089,2.086,2.089,5.474,0,7.563l-41.516,41.52C52.16,53.996,50.803,54.559,49.382,54.559"/>
	<path clip-path="url(#SVGID_2_)" fill="#79B4B9" d="M89.009,45.363c0-2.953-2.394-5.348-5.348-5.348
		c-1.494,0-2.842,0.616-3.813,1.605l-0.014-0.015L49.377,72.061L15.372,38.057c-6.247-6.252-6.247-16.423,0-22.671
		c3.023-3.024,7.045-4.69,11.327-4.69c4.283,0,8.31,1.668,11.339,4.698l7.562,7.551c2.089,2.084,5.473,2.087,7.563-0.002
		l7.553-7.557c3.053-3.055,7.257-4.567,11.452-4.536v-0.013c2.937-0.068,5.299-2.459,5.299-5.412C77.467,2.429,75.039,0,72.042,0
		c-0.004,0-0.009,0.001-0.014,0.001c-7.133,0.004-13.832,2.782-18.875,7.822l-3.776,3.776L45.6,7.828C40.55,2.78,33.838,0,26.699,0
		S12.855,2.778,7.81,7.822C-2.604,18.244-2.604,35.2,7.81,45.618l37.786,37.788c1.044,1.043,2.413,1.566,3.781,1.566
		s2.736-0.523,3.78-1.566l34.152-34.152C88.35,48.279,89.009,46.902,89.009,45.363"/>
</g>
</svg>
