<?xml version="1.0" encoding="utf-8"?>
<!-- Generator: Adobe Illustrator 17.0.0, SVG Export Plug-In . SVG Version: 6.00 Build 0)  -->
<!DOCTYPE svg PUBLIC "-//W3C//DTD SVG 1.1//EN" "http://www.w3.org/Graphics/SVG/1.1/DTD/svg11.dtd">
<svg version="1.1" id="Layer_1" xmlns="http://www.w3.org/2000/svg" xmlns:xlink="http://www.w3.org/1999/xlink" x="0px" y="0px"
	 width="122.521px" height="116.949px" viewBox="0 0 122.521 116.949" enable-background="new 0 0 122.521 116.949"
	 xml:space="preserve">
<g>
	<defs>
		<rect id="SVGID_1_" width="122.521" height="147.757"/>
	</defs>
	<clipPath id="SVGID_2_">
		<use xlink:href="#SVGID_1_"  overflow="visible"/>
	</clipPath>
	<rect y="-0.001" clip-path="url(#SVGID_2_)" fill="#FFFFFF" width="122.521" height="116.95"/>
	<g clip-path="url(#SVGID_2_)">
		<defs>
			<rect id="SVGID_3_" width="122.521" height="147.757"/>
		</defs>
		<clipPath id="SVGID_4_">
			<use xlink:href="#SVGID_3_"  overflow="visible"/>
		</clipPath>
		<path clip-path="url(#SVGID_4_)" fill="#4A4A49" d="M22.879,39.609c0.453,0.299,0.946,0.554,1.473,0.77
			c0.515,0.21,1.062,0.373,1.629,0.49c0.565,0.111,1.149,0.17,1.734,0.17c1.018,0,1.943-0.161,2.74-0.473
			c0.811-0.316,1.499-0.757,2.061-1.314c0.567-0.555,1.003-1.217,1.297-1.966c0.291-0.743,0.436-1.548,0.436-2.387
			c0-0.793-0.127-1.486-0.383-2.057c-0.26-0.558-0.602-1.048-1.036-1.442c-0.41-0.381-0.886-0.703-1.409-0.948
			c-0.493-0.239-1.007-0.446-1.52-0.621c-0.501-0.173-0.999-0.34-1.479-0.489c-0.441-0.147-0.85-0.303-1.201-0.484
			c-0.307-0.155-0.557-0.344-0.737-0.56c-0.143-0.174-0.212-0.397-0.212-0.679c0-0.246,0.041-0.473,0.123-0.674
			c0.083-0.187,0.197-0.344,0.367-0.486c0.166-0.144,0.39-0.267,0.657-0.348c0.587-0.189,1.53-0.178,2.114,0.019
			c0.33,0.114,0.624,0.238,0.864,0.373c0.265,0.149,0.494,0.285,0.687,0.403c0.565,0.35,1.096,0.332,1.512,0.077
			c0.2-0.121,0.363-0.318,0.494-0.577l0.786-1.52c0.115-0.207,0.068-0.466-0.104-0.63c-0.652-0.617-1.455-1.104-2.379-1.452
			c-1.735-0.647-3.994-0.696-5.612-0.053c-0.761,0.301-1.419,0.713-1.945,1.22c-0.535,0.513-0.945,1.105-1.225,1.77
			c-0.281,0.661-0.419,1.35-0.419,2.046c0,0.863,0.131,1.602,0.384,2.2c0.252,0.605,0.599,1.116,1.026,1.523
			c0.414,0.401,0.896,0.725,1.42,0.971c0.498,0.232,1.009,0.435,1.524,0.6c0.503,0.16,0.998,0.31,1.476,0.447
			c0.437,0.124,0.834,0.279,1.18,0.459c0.31,0.158,0.552,0.355,0.734,0.58c0.153,0.195,0.222,0.45,0.222,0.784
			c0,0.659-0.184,1.138-0.566,1.471c-0.402,0.344-1.002,0.524-1.783,0.524c-0.53,0-0.98-0.07-1.346-0.21
			c-0.398-0.153-0.738-0.318-1.024-0.499c-0.301-0.193-0.572-0.367-0.79-0.528c-0.585-0.409-1.178-0.433-1.651-0.15
			c-0.174,0.108-0.327,0.247-0.494,0.458l-0.93,1.544c-0.127,0.203-0.09,0.471,0.073,0.643
			C22.006,38.973,22.422,39.31,22.879,39.609"/>
		<path clip-path="url(#SVGID_4_)" fill="#4A4A49" d="M35.392,40.848h2.503c0.398,0,0.744-0.118,1.019-0.344
			c0.265-0.217,0.45-0.469,0.545-0.736l1.165-3.18h6.421l1.169,3.189c0.115,0.295,0.304,0.549,0.56,0.749
			c0.28,0.216,0.619,0.322,1.013,0.322h2.491h0.019c0.301,0,0.536-0.235,0.536-0.532c0-0.123-0.043-0.235-0.11-0.32L45.972,22.82
			c-0.075-0.203-0.275-0.335-0.491-0.335h-3.288c-0.22,0-0.413,0.132-0.497,0.335l-6.792,17.302
			c-0.07,0.165-0.046,0.348,0.054,0.493C35.059,40.759,35.215,40.848,35.392,40.848 M43.676,28.247
			c0.051-0.14,0.109-0.286,0.162-0.448c0.055,0.147,0.104,0.287,0.15,0.417l1.846,5.036h-3.996L43.676,28.247z"/>
		<path clip-path="url(#SVGID_4_)" fill="#4A4A49" d="M54.643,40.848h2.835c0.298,0,0.532-0.235,0.532-0.532V29.871l8.021,10.216
			c0.214,0.271,0.438,0.471,0.684,0.591c0.242,0.111,0.523,0.17,0.86,0.17h1.663c0.292,0,0.533-0.235,0.533-0.532V23.012
			c0-0.291-0.241-0.527-0.533-0.527h-2.833c-0.296,0-0.533,0.236-0.533,0.527V33.46l-8.049-10.262
			c-0.108-0.133-0.205-0.241-0.291-0.324c-0.111-0.104-0.226-0.184-0.362-0.25c-0.129-0.06-0.269-0.1-0.409-0.117
			c-0.116-0.015-0.261-0.022-0.428-0.022h-1.69c-0.296,0-0.534,0.236-0.534,0.527v17.304C54.109,40.613,54.347,40.848,54.643,40.848
			"/>
		<path clip-path="url(#SVGID_4_)" fill="#4A4A49" d="M71.751,26.192h4.695v14.124c0,0.297,0.24,0.532,0.538,0.532h3.219
			c0.29,0,0.526-0.235,0.526-0.532V26.192h4.677c0.287,0,0.532-0.236,0.532-0.535v-2.645c0-0.291-0.245-0.527-0.532-0.527H71.751
			c-0.295,0-0.533,0.236-0.533,0.527v2.645C71.218,25.956,71.456,26.192,71.751,26.192"/>
		<path clip-path="url(#SVGID_4_)" fill="#4A4A49" d="M83.15,40.615c0.101,0.144,0.266,0.233,0.444,0.233h2.494
			c0.397,0,0.744-0.118,1.028-0.344c0.263-0.217,0.445-0.469,0.539-0.736l1.165-3.18h6.425l1.165,3.189
			c0.117,0.295,0.305,0.549,0.561,0.749c0.271,0.216,0.614,0.322,1.011,0.322h2.49h0.023c0.287,0,0.529-0.235,0.529-0.532
			c0-0.123-0.04-0.235-0.11-0.32L94.169,22.82c-0.079-0.203-0.271-0.335-0.491-0.335h-3.293c-0.22,0-0.414,0.132-0.494,0.335
			l-6.797,17.302C83.029,40.287,83.053,40.47,83.15,40.615 M91.876,28.247c0.053-0.14,0.108-0.286,0.162-0.448
			c0.057,0.147,0.103,0.287,0.148,0.417l1.843,5.036h-3.994L91.876,28.247z"/>
	</g>
	<g clip-path="url(#SVGID_2_)">
		<defs>
			<path id="SVGID_5_" d="M21.794,92.73c0.101,1.08,1.009,1.925,2.122,1.925h12.493c1.106,0,2.014-0.845,2.115-1.925H21.794z
				 M63.018,92.73c0.114,1.066,1.016,1.893,2.109,1.893h33.709c1.089,0,1.987-0.827,2.108-1.893H63.018z"/>
		</defs>
		<clipPath id="SVGID_6_">
			<use xlink:href="#SVGID_5_"  overflow="visible"/>
		</clipPath>

			<linearGradient id="SVGID_7_" gradientUnits="userSpaceOnUse" x1="0" y1="147.5213" x2="1" y2="147.5213" gradientTransform="matrix(-81.8281 0 0 81.8281 102.8554 -11977.6963)">
			<stop  offset="0" style="stop-color:#3AA1D9"/>
			<stop  offset="0.1908" style="stop-color:#3BA2D8"/>
			<stop  offset="0.3647" style="stop-color:#3FA4D4"/>
			<stop  offset="0.5321" style="stop-color:#45A9CC"/>
			<stop  offset="0.6955" style="stop-color:#4EAEBF"/>
			<stop  offset="0.8544" style="stop-color:#59B4AD"/>
			<stop  offset="1" style="stop-color:#65BC95"/>
		</linearGradient>
		<rect x="21.794" y="92.73" clip-path="url(#SVGID_6_)" fill="url(#SVGID_7_)" width="79.15" height="1.925"/>
	</g>
	<g clip-path="url(#SVGID_2_)">
		<defs>
			<path id="SVGID_8_" d="M23.916,44.539c-1.181,0-2.131,0.959-2.131,2.141v45.849c0,1.175,0.95,2.126,2.131,2.126h12.493
				c1.173,0,2.125-0.951,2.125-2.126V76.324h16.227c1.177,0,2.129-0.961,2.129-2.147v-8.766c0-1.188-0.952-2.148-2.129-2.148H38.534
				v-4.475H57.32c1.177,0,2.13-0.958,2.13-2.138v-9.97c0-1.182-0.953-2.141-2.13-2.141H23.916z M65.99,44.539
				c-0.102,0-0.198,0.01-0.295,0.022c-0.609,0.053-1.064,0.197-1.387,0.354c-0.208,0.085-0.4,0.205-0.57,0.35
				c-0.035,0.031-0.054,0.055-0.054,0.055c-0.416,0.384-0.679,0.937-0.679,1.547v45.634c0,1.174,0.952,2.122,2.122,2.122h33.709
				c1.172,0,2.122-0.957,2.122-2.139v-9.369c0-1.181-0.95-2.144-2.122-2.144H79.512v-4.647h16.904c1.169,0,2.122-0.961,2.122-2.147
				v-8.766c0-1.188-0.953-2.148-2.122-2.148H79.512V58.19h19.324c1.172,0,2.122-0.955,2.122-2.143V46.68
				c0-1.182-0.95-2.141-2.122-2.141H65.99z"/>
		</defs>
		<clipPath id="SVGID_9_">
			<use xlink:href="#SVGID_8_"  overflow="visible"/>
		</clipPath>
		<g clip-path="url(#SVGID_9_)">
			<defs>
				<rect id="SVGID_10_" x="21.023" y="110.317" width="81.832" height="10.921"/>
			</defs>
			<clipPath id="SVGID_11_">
				<use xlink:href="#SVGID_10_"  overflow="visible"/>
			</clipPath>

				<linearGradient id="SVGID_12_" gradientUnits="userSpaceOnUse" x1="4.848085e-006" y1="147.757" x2="1" y2="147.757" gradientTransform="matrix(-81.832 0 0 81.832 102.8554 -11975.4736)">
				<stop  offset="0" style="stop-color:#F8CDE2"/>
				<stop  offset="0.1627" style="stop-color:#F8CADF"/>
				<stop  offset="0.311" style="stop-color:#F7C1D6"/>
				<stop  offset="0.4538" style="stop-color:#F5B1C7"/>
				<stop  offset="0.5931" style="stop-color:#F29AB1"/>
				<stop  offset="0.7301" style="stop-color:#EF7B97"/>
				<stop  offset="0.865" style="stop-color:#EA5078"/>
				<stop  offset="0.9962" style="stop-color:#E6005B"/>
				<stop  offset="1" style="stop-color:#E5005A"/>
			</linearGradient>
			<rect x="21.023" y="110.317" clip-path="url(#SVGID_11_)" fill="url(#SVGID_12_)" width="81.832" height="10.921"/>
		</g>
	</g>
	<g clip-path="url(#SVGID_2_)">
		<defs>
			<path id="SVGID_13_" d="M23.916,44.539c-1.181,0-2.131,0.959-2.131,2.141v45.849c0,1.175,0.95,2.126,2.131,2.126h12.493
				c1.173,0,2.125-0.951,2.125-2.126V76.324h16.227c1.177,0,2.129-0.961,2.129-2.147v-8.766c0-1.188-0.952-2.148-2.129-2.148H38.534
				v-4.475H57.32c1.177,0,2.13-0.958,2.13-2.138v-9.97c0-1.182-0.953-2.141-2.13-2.141H23.916z M65.99,44.539
				c-0.102,0-0.198,0.01-0.295,0.022c-0.609,0.053-1.064,0.197-1.387,0.354c-0.208,0.085-0.4,0.205-0.57,0.35
				c-0.035,0.031-0.054,0.055-0.054,0.055c-0.416,0.384-0.679,0.937-0.679,1.547v45.634c0,1.174,0.952,2.122,2.122,2.122h33.709
				c1.172,0,2.122-0.957,2.122-2.139v-9.369c0-1.181-0.95-2.144-2.122-2.144H79.512v-4.647h16.904c1.169,0,2.122-0.961,2.122-2.147
				v-8.766c0-1.188-0.953-2.148-2.122-2.148H79.512V58.19h19.324c1.172,0,2.122-0.955,2.122-2.143V46.68
				c0-1.182-0.95-2.141-2.122-2.141H65.99z"/>
		</defs>
		<clipPath id="SVGID_14_">
			<use xlink:href="#SVGID_13_"  overflow="visible"/>
		</clipPath>
		<g clip-path="url(#SVGID_14_)">
			<defs>
				<rect id="SVGID_15_" x="21.023" y="99.334" width="81.832" height="3.617"/>
			</defs>
			<clipPath id="SVGID_16_">
				<use xlink:href="#SVGID_15_"  overflow="visible"/>
			</clipPath>

				<linearGradient id="SVGID_17_" gradientUnits="userSpaceOnUse" x1="4.848085e-006" y1="147.757" x2="1" y2="147.757" gradientTransform="matrix(-81.832 0 0 81.832 102.8554 -11990.1094)">
				<stop  offset="0" style="stop-color:#EC6408"/>
				<stop  offset="0.1637" style="stop-color:#EB6708"/>
				<stop  offset="0.313" style="stop-color:#E97108"/>
				<stop  offset="0.4567" style="stop-color:#E47F07"/>
				<stop  offset="0.597" style="stop-color:#DE9106"/>
				<stop  offset="0.7347" style="stop-color:#D3A504"/>
				<stop  offset="0.8687" style="stop-color:#C5B905"/>
				<stop  offset="1" style="stop-color:#AFCA0B"/>
			</linearGradient>
			<rect x="21.023" y="99.334" clip-path="url(#SVGID_16_)" fill="url(#SVGID_17_)" width="81.832" height="3.617"/>
		</g>
	</g>
	<g clip-path="url(#SVGID_2_)">
		<defs>
			<path id="SVGID_18_" d="M21.785,60.877v3.617h34.902c-0.34-0.728-1.074-1.231-1.926-1.231H38.534v-2.386H21.785z M63.005,60.877
				v3.617h35.331c-0.34-0.728-1.074-1.231-1.92-1.231H79.512v-2.386H63.005z"/>
		</defs>
		<clipPath id="SVGID_19_">
			<use xlink:href="#SVGID_18_"  overflow="visible"/>
		</clipPath>

			<linearGradient id="SVGID_20_" gradientUnits="userSpaceOnUse" x1="0" y1="147.757" x2="1" y2="147.757" gradientTransform="matrix(-81.832 0 0 81.832 102.8554 -12028.5654)">
			<stop  offset="0" style="stop-color:#EC6408"/>
			<stop  offset="0.1637" style="stop-color:#EC6707"/>
			<stop  offset="0.313" style="stop-color:#EE7103"/>
			<stop  offset="0.4567" style="stop-color:#F08100"/>
			<stop  offset="0.597" style="stop-color:#F49700"/>
			<stop  offset="0.7347" style="stop-color:#F9B100"/>
			<stop  offset="0.8687" style="stop-color:#FFCF00"/>
			<stop  offset="1" style="stop-color:#FFED00"/>
		</linearGradient>
		<rect x="21.785" y="60.877" clip-path="url(#SVGID_19_)" fill="url(#SVGID_20_)" width="76.551" height="3.617"/>
	</g>
	<g clip-path="url(#SVGID_2_)">
		<defs>
			<path id="SVGID_21_" d="M21.785,75.519v9.143h16.749v-8.338h16.227c0.673,0,1.273-0.314,1.663-0.805H21.785z M63.005,75.519
				v9.143h37.953v-1.547c0-1.181-0.95-2.144-2.122-2.144H79.512v-4.647h16.904c0.669,0,1.267-0.314,1.656-0.805H63.005z"/>
		</defs>
		<clipPath id="SVGID_22_">
			<use xlink:href="#SVGID_21_"  overflow="visible"/>
		</clipPath>

			<linearGradient id="SVGID_23_" gradientUnits="userSpaceOnUse" x1="0" y1="147.757" x2="1" y2="147.757" gradientTransform="matrix(-81.832 0 0 81.832 102.8554 -12011.1611)">
			<stop  offset="0" style="stop-color:#0083CB"/>
			<stop  offset="0.1397" style="stop-color:#0084CA"/>
			<stop  offset="0.2672" style="stop-color:#0088C7"/>
			<stop  offset="0.3899" style="stop-color:#008FC1"/>
			<stop  offset="0.5097" style="stop-color:#209AB7"/>
			<stop  offset="0.6275" style="stop-color:#64A8A7"/>
			<stop  offset="0.7436" style="stop-color:#98B98E"/>
			<stop  offset="0.8585" style="stop-color:#C9CE64"/>
			<stop  offset="0.9697" style="stop-color:#F9E600"/>
			<stop  offset="1" style="stop-color:#FFED00"/>
		</linearGradient>
		<rect x="21.785" y="75.519" clip-path="url(#SVGID_22_)" fill="url(#SVGID_23_)" width="79.173" height="9.143"/>
	</g>
	<g clip-path="url(#SVGID_2_)">
		<defs>
			<path id="SVGID_24_" d="M21.785,63.701v7.443H56.89v-5.733c0-0.699-0.329-1.319-0.84-1.71H21.785z M63.005,63.701v7.443h35.533
				v-5.733c0-0.699-0.329-1.319-0.839-1.71H63.005z"/>
		</defs>
		<clipPath id="SVGID_25_">
			<use xlink:href="#SVGID_24_"  overflow="visible"/>
		</clipPath>

			<linearGradient id="SVGID_26_" gradientUnits="userSpaceOnUse" x1="0" y1="147.757" x2="1" y2="147.757" gradientTransform="matrix(-81.832 0 0 81.832 102.8554 -12023.8281)">
			<stop  offset="0" style="stop-color:#15B6C6"/>
			<stop  offset="0.1587" style="stop-color:#21B6C4"/>
			<stop  offset="0.3033" style="stop-color:#38B8BD"/>
			<stop  offset="0.4426" style="stop-color:#51BBB1"/>
			<stop  offset="0.5786" style="stop-color:#6BBE9E"/>
			<stop  offset="0.7121" style="stop-color:#86C384"/>
			<stop  offset="0.8438" style="stop-color:#A1C85D"/>
			<stop  offset="0.9718" style="stop-color:#BBCF1F"/>
			<stop  offset="1" style="stop-color:#C1D100"/>
		</linearGradient>
		<rect x="21.785" y="63.701" clip-path="url(#SVGID_25_)" fill="url(#SVGID_26_)" width="76.753" height="7.443"/>
	</g>
	<g clip-path="url(#SVGID_2_)">
		<defs>
			<path id="SVGID_27_" d="M23.916,44.539c-1.181,0-2.131,0.959-2.131,2.141v45.849c0,1.175,0.95,2.126,2.131,2.126h12.493
				c1.173,0,2.125-0.951,2.125-2.126V76.324h16.227c1.177,0,2.129-0.961,2.129-2.147v-8.766c0-1.188-0.952-2.148-2.129-2.148H38.534
				v-4.475H57.32c1.177,0,2.13-0.958,2.13-2.138v-9.97c0-1.182-0.953-2.141-2.13-2.141H23.916z M65.99,44.539
				c-0.102,0-0.198,0.01-0.295,0.022c-0.609,0.053-1.064,0.197-1.387,0.354c-0.208,0.085-0.4,0.205-0.57,0.35
				c-0.035,0.031-0.054,0.055-0.054,0.055c-0.416,0.384-0.679,0.937-0.679,1.547v45.634c0,1.174,0.952,2.122,2.122,2.122h33.709
				c1.172,0,2.122-0.957,2.122-2.139v-9.369c0-1.181-0.95-2.144-2.122-2.144H79.512v-4.647h16.904c1.169,0,2.122-0.961,2.122-2.147
				v-8.766c0-1.188-0.953-2.148-2.122-2.148H79.512V58.19h19.324c1.172,0,2.122-0.955,2.122-2.143V46.68
				c0-1.182-0.95-2.141-2.122-2.141H65.99z"/>
		</defs>
		<clipPath id="SVGID_28_">
			<use xlink:href="#SVGID_27_"  overflow="visible"/>
		</clipPath>
		<g clip-path="url(#SVGID_28_)">
			<g>
				<defs>
					<rect id="SVGID_29_" x="21.023" y="67.385" width="81.832" height="4.437"/>
				</defs>
				<clipPath id="SVGID_30_">
					<use xlink:href="#SVGID_29_"  overflow="visible"/>
				</clipPath>
				<g clip-path="url(#SVGID_30_)">
					<defs>
						<rect id="SVGID_31_" x="21.023" y="67.385" width="81.832" height="4.437"/>
					</defs>
					<clipPath id="SVGID_32_">
						<use xlink:href="#SVGID_31_"  overflow="visible"/>
					</clipPath>

						<linearGradient id="SVGID_33_" gradientUnits="userSpaceOnUse" x1="-4.871394e-006" y1="147.757" x2="1" y2="147.757" gradientTransform="matrix(81.832 0 0 -81.832 21.0234 12160.8545)">
						<stop  offset="0" style="stop-color:#0083CB"/>
						<stop  offset="0.1397" style="stop-color:#0084CA"/>
						<stop  offset="0.2672" style="stop-color:#0088C7"/>
						<stop  offset="0.3899" style="stop-color:#008FC1"/>
						<stop  offset="0.5097" style="stop-color:#209AB7"/>
						<stop  offset="0.6275" style="stop-color:#64A8A7"/>
						<stop  offset="0.7436" style="stop-color:#98B98E"/>
						<stop  offset="0.8585" style="stop-color:#C9CE64"/>
						<stop  offset="0.9697" style="stop-color:#F9E600"/>
						<stop  offset="1" style="stop-color:#FFED00"/>
					</linearGradient>
					<rect x="21.023" y="67.385" clip-path="url(#SVGID_32_)" fill="url(#SVGID_33_)" width="81.832" height="4.437"/>
				</g>
			</g>
		</g>
		<g clip-path="url(#SVGID_28_)">
			<g>
				<defs>
					<rect id="SVGID_34_" x="21.023" y="31.632" width="81.832" height="22.477"/>
				</defs>
				<clipPath id="SVGID_35_">
					<use xlink:href="#SVGID_34_"  overflow="visible"/>
				</clipPath>
				<g clip-path="url(#SVGID_35_)">
					<defs>
						<rect id="SVGID_36_" x="21.023" y="31.632" width="81.832" height="22.477"/>
					</defs>
					<clipPath id="SVGID_37_">
						<use xlink:href="#SVGID_36_"  overflow="visible"/>
					</clipPath>

						<linearGradient id="SVGID_38_" gradientUnits="userSpaceOnUse" x1="-4.871394e-006" y1="147.757" x2="1" y2="147.757" gradientTransform="matrix(81.832 0 0 -81.832 21.0234 12134.1221)">
						<stop  offset="0" style="stop-color:#F08487"/>
						<stop  offset="0.2135" style="stop-color:#F08186"/>
						<stop  offset="0.408" style="stop-color:#EE7780"/>
						<stop  offset="0.5952" style="stop-color:#EC6577"/>
						<stop  offset="0.7779" style="stop-color:#E9486B"/>
						<stop  offset="0.9558" style="stop-color:#E6195D"/>
						<stop  offset="1" style="stop-color:#E5005A"/>
					</linearGradient>
					<rect x="21.023" y="31.632" clip-path="url(#SVGID_37_)" fill="url(#SVGID_38_)" width="81.832" height="22.477"/>
				</g>
			</g>
		</g>
		<g clip-path="url(#SVGID_28_)">
			<g>
				<defs>
					<rect id="SVGID_39_" x="21.023" y="22.485" width="81.832" height="11.388"/>
				</defs>
				<clipPath id="SVGID_40_">
					<use xlink:href="#SVGID_39_"  overflow="visible"/>
				</clipPath>
				<g clip-path="url(#SVGID_40_)">
					<defs>
						<rect id="SVGID_41_" x="21.023" y="22.485" width="81.832" height="11.388"/>
					</defs>
					<clipPath id="SVGID_42_">
						<use xlink:href="#SVGID_41_"  overflow="visible"/>
					</clipPath>

						<linearGradient id="SVGID_43_" gradientUnits="userSpaceOnUse" x1="-4.871394e-006" y1="147.757" x2="1" y2="147.757" gradientTransform="matrix(81.832 0 0 -81.832 21.0234 12119.4307)">
						<stop  offset="0" style="stop-color:#FCBE00"/>
						<stop  offset="0.1627" style="stop-color:#FBBB00"/>
						<stop  offset="0.311" style="stop-color:#FAB300"/>
						<stop  offset="0.4538" style="stop-color:#F7A400"/>
						<stop  offset="0.5931" style="stop-color:#F38F00"/>
						<stop  offset="0.7301" style="stop-color:#EE7302"/>
						<stop  offset="0.865" style="stop-color:#E84C0F"/>
						<stop  offset="0.9962" style="stop-color:#E30B13"/>
						<stop  offset="1" style="stop-color:#E30613"/>
					</linearGradient>
					<rect x="21.023" y="22.485" clip-path="url(#SVGID_42_)" fill="url(#SVGID_43_)" width="81.832" height="11.388"/>
				</g>
			</g>
		</g>
		<g clip-path="url(#SVGID_28_)">
			<g>
				<defs>
					<rect id="SVGID_44_" x="21.023" y="71.822" width="81.832" height="28.896"/>
				</defs>
				<clipPath id="SVGID_45_">
					<use xlink:href="#SVGID_44_"  overflow="visible"/>
				</clipPath>
				<g clip-path="url(#SVGID_45_)">
					<defs>
						<rect id="SVGID_46_" x="21.023" y="71.823" width="81.832" height="28.896"/>
					</defs>
					<clipPath id="SVGID_47_">
						<use xlink:href="#SVGID_46_"  overflow="visible"/>
					</clipPath>

						<linearGradient id="SVGID_48_" gradientUnits="userSpaceOnUse" x1="-4.871394e-006" y1="147.757" x2="1" y2="147.757" gradientTransform="matrix(81.832 0 0 -81.832 21.0234 12177.5215)">
						<stop  offset="0" style="stop-color:#A0C519"/>
						<stop  offset="0.1397" style="stop-color:#9EC421"/>
						<stop  offset="0.2672" style="stop-color:#99C031"/>
						<stop  offset="0.3899" style="stop-color:#90BB46"/>
						<stop  offset="0.5097" style="stop-color:#81B35E"/>
						<stop  offset="0.6275" style="stop-color:#6DAA78"/>
						<stop  offset="0.7436" style="stop-color:#51A093"/>
						<stop  offset="0.8585" style="stop-color:#2193AC"/>
						<stop  offset="0.9697" style="stop-color:#0084C1"/>
						<stop  offset="1" style="stop-color:#0080C6"/>
					</linearGradient>
					<rect x="21.023" y="71.823" clip-path="url(#SVGID_47_)" fill="url(#SVGID_48_)" width="81.832" height="28.896"/>
				</g>
			</g>
		</g>
		<g clip-path="url(#SVGID_28_)">
			<g>
				<defs>
					<rect id="SVGID_49_" x="21.023" y="106.35" width="81.832" height="18.677"/>
				</defs>
				<clipPath id="SVGID_50_">
					<use xlink:href="#SVGID_49_"  overflow="visible"/>
				</clipPath>
				<g clip-path="url(#SVGID_50_)">
					<defs>
						<rect id="SVGID_51_" x="21.023" y="106.351" width="81.832" height="18.677"/>
					</defs>
					<clipPath id="SVGID_52_">
						<use xlink:href="#SVGID_51_"  overflow="visible"/>
					</clipPath>

						<linearGradient id="SVGID_53_" gradientUnits="userSpaceOnUse" x1="-4.871394e-006" y1="147.757" x2="1" y2="147.757" gradientTransform="matrix(81.832 0 0 -81.832 21.0234 12206.9404)">
						<stop  offset="0" style="stop-color:#009FE3"/>
						<stop  offset="0.3199" style="stop-color:#00B2B1"/>
						<stop  offset="0.8966" style="stop-color:#C8D400"/>
						<stop  offset="1" style="stop-color:#C8D400"/>
					</linearGradient>
					<rect x="21.023" y="106.351" clip-path="url(#SVGID_52_)" fill="url(#SVGID_53_)" width="81.832" height="18.677"/>
				</g>
			</g>
		</g>
		<g clip-path="url(#SVGID_28_)">
			<g>
				<defs>
					<rect id="SVGID_54_" x="21.086" y="115.343" width="81.769" height="2.705"/>
				</defs>
				<clipPath id="SVGID_55_">
					<use xlink:href="#SVGID_54_"  overflow="visible"/>
				</clipPath>
				<g clip-path="url(#SVGID_55_)">
					<defs>
						<rect id="SVGID_56_" x="21.085" y="115.344" width="81.77" height="2.705"/>
					</defs>
					<clipPath id="SVGID_57_">
						<use xlink:href="#SVGID_56_"  overflow="visible"/>
					</clipPath>

						<linearGradient id="SVGID_58_" gradientUnits="userSpaceOnUse" x1="-1.093986e-005" y1="147.757" x2="1" y2="147.757" gradientTransform="matrix(81.7695 0 0 -81.7695 21.0859 12198.7129)">
						<stop  offset="0" style="stop-color:#F3A3C7"/>
						<stop  offset="0.189" style="stop-color:#F3A0C5"/>
						<stop  offset="0.3614" style="stop-color:#F196BF"/>
						<stop  offset="0.5274" style="stop-color:#EF85B4"/>
						<stop  offset="0.6892" style="stop-color:#ED6BA5"/>
						<stop  offset="0.8466" style="stop-color:#E94491"/>
						<stop  offset="1" style="stop-color:#E6007E"/>
					</linearGradient>
					<rect x="21.085" y="115.344" clip-path="url(#SVGID_57_)" fill="url(#SVGID_58_)" width="81.77" height="2.705"/>
				</g>
			</g>
		</g>
		<g clip-path="url(#SVGID_28_)">
			<g>
				<defs>
					<rect id="SVGID_59_" x="21.023" y="79.758" width="81.832" height="2.705"/>
				</defs>
				<clipPath id="SVGID_60_">
					<use xlink:href="#SVGID_59_"  overflow="visible"/>
				</clipPath>
				<g clip-path="url(#SVGID_60_)">
					<defs>
						<rect id="SVGID_61_" x="21.023" y="79.758" width="81.832" height="2.705"/>
					</defs>
					<clipPath id="SVGID_62_">
						<use xlink:href="#SVGID_61_"  overflow="visible"/>
					</clipPath>

						<linearGradient id="SVGID_63_" gradientUnits="userSpaceOnUse" x1="-4.871394e-006" y1="147.757" x2="1" y2="147.757" gradientTransform="matrix(81.832 0 0 -81.832 21.0234 12172.3613)">
						<stop  offset="0" style="stop-color:#F8CDE2"/>
						<stop  offset="0.1627" style="stop-color:#F8CADF"/>
						<stop  offset="0.311" style="stop-color:#F7C1D6"/>
						<stop  offset="0.4538" style="stop-color:#F5B1C7"/>
						<stop  offset="0.5931" style="stop-color:#F29AB1"/>
						<stop  offset="0.7301" style="stop-color:#EF7B97"/>
						<stop  offset="0.865" style="stop-color:#EA5078"/>
						<stop  offset="0.9962" style="stop-color:#E6005B"/>
						<stop  offset="1" style="stop-color:#E5005A"/>
					</linearGradient>
					<rect x="21.023" y="79.758" clip-path="url(#SVGID_62_)" fill="url(#SVGID_63_)" width="81.832" height="2.705"/>
				</g>
			</g>
		</g>
		<g clip-path="url(#SVGID_28_)">
			<g>
				<defs>
					<rect id="SVGID_64_" x="21.023" y="47.212" width="81.832" height="24.61"/>
				</defs>
				<clipPath id="SVGID_65_">
					<use xlink:href="#SVGID_64_"  overflow="visible"/>
				</clipPath>
				<g clip-path="url(#SVGID_65_)">
					<defs>
						<rect id="SVGID_66_" x="21.023" y="47.212" width="81.832" height="24.61"/>
					</defs>
					<clipPath id="SVGID_67_">
						<use xlink:href="#SVGID_66_"  overflow="visible"/>
					</clipPath>

						<linearGradient id="SVGID_68_" gradientUnits="userSpaceOnUse" x1="-4.871394e-006" y1="147.757" x2="1" y2="147.757" gradientTransform="matrix(81.832 0 0 -81.832 21.0234 12150.7676)">
						<stop  offset="0" style="stop-color:#F49600"/>
						<stop  offset="0.189" style="stop-color:#F39300"/>
						<stop  offset="0.3614" style="stop-color:#F28A00"/>
						<stop  offset="0.5274" style="stop-color:#EF7B00"/>
						<stop  offset="0.6892" style="stop-color:#EC6309"/>
						<stop  offset="0.8466" style="stop-color:#E74210"/>
						<stop  offset="1" style="stop-color:#E30613"/>
					</linearGradient>
					<rect x="21.023" y="47.212" clip-path="url(#SVGID_67_)" fill="url(#SVGID_68_)" width="81.832" height="24.61"/>
				</g>
			</g>
		</g>
		<g clip-path="url(#SVGID_28_)">
			<g>
				<defs>
					<rect id="SVGID_69_" x="21.023" y="75.352" width="81.832" height="4.436"/>
				</defs>
				<clipPath id="SVGID_70_">
					<use xlink:href="#SVGID_69_"  overflow="visible"/>
				</clipPath>
				<g clip-path="url(#SVGID_70_)">
					<defs>
						<rect id="SVGID_71_" x="21.023" y="75.352" width="81.832" height="4.436"/>
					</defs>
					<clipPath id="SVGID_72_">
						<use xlink:href="#SVGID_71_"  overflow="visible"/>
					</clipPath>

						<linearGradient id="SVGID_73_" gradientUnits="userSpaceOnUse" x1="-4.871394e-006" y1="147.757" x2="1" y2="147.757" gradientTransform="matrix(81.832 0 0 -81.832 21.0234 12168.8213)">
						<stop  offset="0" style="stop-color:#15B6C6"/>
						<stop  offset="0.1587" style="stop-color:#21B6C4"/>
						<stop  offset="0.3033" style="stop-color:#38B8BD"/>
						<stop  offset="0.4426" style="stop-color:#51BBB1"/>
						<stop  offset="0.5786" style="stop-color:#6BBE9E"/>
						<stop  offset="0.7121" style="stop-color:#86C384"/>
						<stop  offset="0.8438" style="stop-color:#A1C85D"/>
						<stop  offset="0.9718" style="stop-color:#BBCF1F"/>
						<stop  offset="1" style="stop-color:#C1D100"/>
					</linearGradient>
					<rect x="21.023" y="75.352" clip-path="url(#SVGID_72_)" fill="url(#SVGID_73_)" width="81.832" height="4.436"/>
				</g>
			</g>
		</g>
		<g opacity="0.45" clip-path="url(#SVGID_28_)">
			<g>
				<defs>
					<rect id="SVGID_74_" x="21.023" y="75.352" width="81.832" height="4.436"/>
				</defs>
				<clipPath id="SVGID_75_">
					<use xlink:href="#SVGID_74_"  overflow="visible"/>
				</clipPath>
				<g clip-path="url(#SVGID_75_)">
					<defs>
						<rect id="SVGID_76_" x="21.023" y="75.352" width="81.832" height="4.436"/>
					</defs>
					<clipPath id="SVGID_77_">
						<use xlink:href="#SVGID_76_"  overflow="visible"/>
					</clipPath>

						<linearGradient id="SVGID_78_" gradientUnits="userSpaceOnUse" x1="-4.871394e-006" y1="147.757" x2="1" y2="147.757" gradientTransform="matrix(81.832 0 0 -81.832 21.0234 12168.8213)">
						<stop  offset="0" style="stop-color:#15B6C6"/>
						<stop  offset="0.1587" style="stop-color:#21B6C4"/>
						<stop  offset="0.3033" style="stop-color:#38B8BD"/>
						<stop  offset="0.4426" style="stop-color:#51BBB1"/>
						<stop  offset="0.5786" style="stop-color:#6BBE9E"/>
						<stop  offset="0.7121" style="stop-color:#86C384"/>
						<stop  offset="0.8438" style="stop-color:#A1C85D"/>
						<stop  offset="0.9718" style="stop-color:#BBCF1F"/>
						<stop  offset="1" style="stop-color:#C1D100"/>
					</linearGradient>
					<rect x="21.023" y="75.352" clip-path="url(#SVGID_77_)" fill="url(#SVGID_78_)" width="81.832" height="4.436"/>
				</g>
			</g>
		</g>
		<g clip-path="url(#SVGID_28_)">
			<g>
				<defs>
					<rect id="SVGID_79_" x="21.023" y="82.482" width="81.832" height="2.705"/>
				</defs>
				<clipPath id="SVGID_80_">
					<use xlink:href="#SVGID_79_"  overflow="visible"/>
				</clipPath>
				<g clip-path="url(#SVGID_80_)">
					<defs>
						<rect id="SVGID_81_" x="21.023" y="82.482" width="81.832" height="2.705"/>
					</defs>
					<clipPath id="SVGID_82_">
						<use xlink:href="#SVGID_81_"  overflow="visible"/>
					</clipPath>

						<linearGradient id="SVGID_83_" gradientUnits="userSpaceOnUse" x1="-4.871394e-006" y1="147.757" x2="1" y2="147.757" gradientTransform="matrix(81.832 0 0 -81.832 21.0234 12175.0859)">
						<stop  offset="0" style="stop-color:#15B6C6"/>
						<stop  offset="0.1587" style="stop-color:#21B6C4"/>
						<stop  offset="0.3033" style="stop-color:#38B8BD"/>
						<stop  offset="0.4426" style="stop-color:#51BBB1"/>
						<stop  offset="0.5786" style="stop-color:#6BBE9E"/>
						<stop  offset="0.7121" style="stop-color:#86C384"/>
						<stop  offset="0.8438" style="stop-color:#A1C85D"/>
						<stop  offset="0.9718" style="stop-color:#BBCF1F"/>
						<stop  offset="1" style="stop-color:#C1D100"/>
					</linearGradient>
					<rect x="21.023" y="82.482" clip-path="url(#SVGID_82_)" fill="url(#SVGID_83_)" width="81.832" height="2.705"/>
				</g>
			</g>
		</g>
	</g>
</g>
</svg>
