<?xml version="1.0" encoding="UTF-8" standalone="no"?>
<!-- Generator: Adobe Illustrator 16.0.0, SVG Export Plug-In . SVG Version: 6.00 Build 0)  -->

<svg
   xmlns:dc="http://purl.org/dc/elements/1.1/"
   xmlns:cc="http://creativecommons.org/ns#"
   xmlns:rdf="http://www.w3.org/1999/02/22-rdf-syntax-ns#"
   xmlns:svg="http://www.w3.org/2000/svg"
   xmlns="http://www.w3.org/2000/svg"
   xmlns:sodipodi="http://sodipodi.sourceforge.net/DTD/sodipodi-0.dtd"
   xmlns:inkscape="http://www.inkscape.org/namespaces/inkscape"
   version="1.1"
   id="Capa_1"
   x="0px"
   y="0px"
   width="512"
   height="465.45453"
   viewBox="0 0 561 509.99998"
   xml:space="preserve"
   inkscape:version="0.91 r13725"
   sodipodi:docname="thumb-up-button.svg"><metadata
     id="metadata42"><rdf:RDF><cc:Work
         rdf:about=""><dc:format>image/svg+xml</dc:format><dc:type
           rdf:resource="http://purl.org/dc/dcmitype/StillImage" /><dc:title /></cc:Work></rdf:RDF></metadata><defs
     id="defs40" /><sodipodi:namedview
     pagecolor="#ffffff"
     bordercolor="#666666"
     borderopacity="1"
     objecttolerance="10"
     gridtolerance="10"
     guidetolerance="10"
     inkscape:pageopacity="0"
     inkscape:pageshadow="2"
     inkscape:window-width="1366"
     inkscape:window-height="747"
     id="namedview38"
     showgrid="false"
     fit-margin-top="0"
     fit-margin-left="0"
     fit-margin-right="0"
     fit-margin-bottom="0"
     inkscape:zoom="1.1914345"
     inkscape:cx="308.80078"
     inkscape:cy="137.80029"
     inkscape:window-x="0"
     inkscape:window-y="21"
     inkscape:window-maximized="1"
     inkscape:current-layer="Capa_1" /><g
     id="g3"
     transform="translate(0,-25.5)"><g
       id="thumb-up"><path
         d="m 0,535.5 102,0 0,-306 -102,0 0,306 z M 561,255 c 0,-28.05 -22.95,-51 -51,-51 l -160.65,0 25.5,-117.3 c 0,-2.55 0,-5.1 0,-7.65 0,-10.2 -5.1,-20.4 -10.199,-28.05 L 336.6,25.5 168.3,193.8 c -10.2,7.65 -15.3,20.4 -15.3,35.7 l 0,255 c 0,28.05 22.95,51 51,51 l 229.5,0 c 20.4,0 38.25,-12.75 45.9,-30.6 l 76.5,-181.051 c 2.55,-5.1 2.55,-12.75 2.55,-17.85 l 0,-51 2.55,0 c 0,2.551 0,0.001 0,0.001 z"
         id="path6"
         inkscape:connector-curvature="0"
         style="fill:#9f9f9f;fill-opacity:1" /></g></g><g
     id="g8"
     transform="translate(0,-25.5)" /><g
     id="g10"
     transform="translate(0,-25.5)" /><g
     id="g12"
     transform="translate(0,-25.5)" /><g
     id="g14"
     transform="translate(0,-25.5)" /><g
     id="g16"
     transform="translate(0,-25.5)" /><g
     id="g18"
     transform="translate(0,-25.5)" /><g
     id="g20"
     transform="translate(0,-25.5)" /><g
     id="g22"
     transform="translate(0,-25.5)" /><g
     id="g24"
     transform="translate(0,-25.5)" /><g
     id="g26"
     transform="translate(0,-25.5)" /><g
     id="g28"
     transform="translate(0,-25.5)" /><g
     id="g30"
     transform="translate(0,-25.5)" /><g
     id="g32"
     transform="translate(0,-25.5)" /><g
     id="g34"
     transform="translate(0,-25.5)" /><g
     id="g36"
     transform="translate(0,-25.5)" /></svg>
