<?xml version="1.0" encoding="utf-8"?>
<!-- Generator: Adobe Illustrator 20.0.0, SVG Export Plug-In . SVG Version: 6.00 Build 0)  -->
<svg version="1.1" id="Capa_1" xmlns="http://www.w3.org/2000/svg" xmlns:xlink="http://www.w3.org/1999/xlink" x="0px" y="0px"
	 viewBox="0 0 729 729" style="enable-background:new 0 0 729 729;" xml:space="preserve">
<style type="text/css">
	.st0{fill:#53B5BA;}
	.st1{fill:#E7ECED;}
	.st2{fill:#2B3B4E;}
	.st3{fill:#FEAB57;}
	.st4{fill:#307477;}
	.st5{fill:#79B4B9;}
	.st6{fill:#FFFFFF;}
</style>
<circle class="st5" cx="364.5" cy="364.5" r="364.5"/>
<g>
	<g>
		<g>
			<path class="st6" d="M371.4,460.6L371.4,460.6c-7.8,0-15.2-3.1-20.7-8.6l-75.6-75.7c-11.4-11.4-11.4-30,0-41.4
				c11.4-11.4,30-11.4,41.4,0l54.9,55L578,183.3c11.4-11.4,30-11.4,41.4,0c11.4,11.4,11.4,30,0,41.4L392.1,452
				C386.6,457.5,379.2,460.6,371.4,460.6L371.4,460.6z"/>
		</g>
		<g>
			<path class="st6" d="M588.3,410.3c0-16.2-13.1-29.3-29.3-29.3c-8.2,0-15.6,3.4-20.9,8.8l-0.1-0.1L371.4,556.4L185.2,370.3
				c-34.2-34.2-34.2-89.9,0-124.1c16.5-16.6,38.6-25.7,62-25.7s45.5,9.1,62.1,25.7l41.4,41.3c11.4,11.4,30,11.4,41.4,0l41.3-41.4
				c16.7-16.7,39.7-25,62.7-24.8l0-0.1c16.1-0.4,29-13.5,29-29.6c0-16.4-13.3-29.7-29.7-29.7c0,0-0.1,0-0.1,0
				c-39,0-75.7,15.2-103.3,42.8l-20.7,20.7l-20.7-20.6c-27.6-27.6-64.4-42.9-103.5-42.9c-39.1,0-75.8,15.2-103.4,42.8
				c-57,57.1-57,149.9,0,206.9l206.8,206.8c5.7,5.7,13.2,8.6,20.7,8.6c7.5,0,15-2.9,20.7-8.6L579,431.6
				C584.7,426.2,588.3,418.7,588.3,410.3z"/>
		</g>
	</g>
</g>
</svg>
